<?xml version="1.0" encoding="utf-8"?>
<!-- Generator: Adobe Illustrator 27.5.0, SVG Export Plug-In . SVG Version: 6.00 Build 0)  -->
<svg version="1.1" xmlns="http://www.w3.org/2000/svg" xmlns:xlink="http://www.w3.org/1999/xlink" x="0px" y="0px"
	 viewBox="0 0 3710 3710" style="enable-background:new 0 0 3710 3710;" xml:space="preserve">
<g id="Background">
	<g>
		<g>
			<rect style="fill:#FFFFFF;" width="3710" height="3710"/>
		</g>
	</g>
</g>
<g id="Illustration">
	<g>
		<linearGradient id="SVGID_1_" gradientUnits="userSpaceOnUse" x1="3578.0063" y1="4043.4458" x2="1125.083" y2="997.0689">
			<stop  offset="0" style="stop-color:#B37CFF"/>
			<stop  offset="1" style="stop-color:#F895E7"/>
		</linearGradient>
		<path style="opacity:0.3;fill:url(#SVGID_1_);" d="M2903.192,2842.065c-56.343,59.315-109.654,97.567-151.774,127.788
			c-495.111,355.248-1080.959,251.695-1205.469,226.406c-183.861-37.343-539.26-109.527-796.208-411.692
			c-388.74-457.15-328.207-1177.378-26.674-1652.81c55.155-86.965,346.501-569.639,938.659-647.044
			c358.368-46.845,776.109,47.636,1078.626,301.085C3375.362,1317.811,3330.156,2392.57,2903.192,2842.065z"/>
		<g>
			
				<linearGradient id="SVGID_00000091717816301820059470000016183472945010629809_" gradientUnits="userSpaceOnUse" x1="5167.1177" y1="5485.3047" x2="5498.0591" y2="5485.3047" gradientTransform="matrix(-1.5256 1.0076 0.5511 0.8344 5860.7559 -8132.2217)">
				<stop  offset="0" style="stop-color:#B37CFF"/>
				<stop  offset="1" style="stop-color:#F895E7"/>
			</linearGradient>
			<path style="fill:url(#SVGID_00000091717816301820059470000016183472945010629809_);" d="M1069.615,2378.489
				c0,0,109.031-211.754-15.319-408.081c-115.375-182.158-414.459-601.096-403.317-846.628c0.494-10.877-20.138-6.09-26.918,6.271
				c-72.721,132.596-225.727,462.708-146.194,773.099C580.429,2303.417,1069.615,2378.489,1069.615,2378.489z"/>
			<path style="opacity:0.45;fill:#FFFFFF;" d="M610.692,1354.323c-14.843,44.463-22.217,91.057-24.846,137.562
				c-2.578,46.56,0.477,93.314,8.838,139.009c4.145,22.864,9.93,45.39,16.752,67.563l5.416,16.54
				c1.915,5.475,4.044,10.875,6.053,16.314l3.039,8.151l3.374,8.019c2.268,5.338,4.454,10.71,6.785,16.019l7.445,15.726
				c1.263,2.61,2.431,5.266,3.77,7.839l4.07,7.69l8.16,15.367l8.82,15.002l4.408,7.501c1.52,2.47,3.15,4.872,4.704,7.321l9.43,14.63
				c6.451,9.692,13.142,19.323,19.778,28.935c26.786,38.335,54.601,75.949,83.306,112.9c14.33,18.493,28.929,36.784,43.687,54.959
				c14.665,18.252,29.492,36.384,44.39,54.483c14.887,18.108,29.828,36.194,44.581,54.469c14.703,18.311,29.4,36.686,43.088,55.871
				c13.694,19.166,26.639,38.986,37.614,59.958c5.336,10.564,10.283,21.347,14.242,32.529c3.835,11.222,6.837,22.723,8.714,34.419
				c0.147,0.918-0.477,1.782-1.395,1.929c-0.894,0.144-1.736-0.445-1.916-1.323l-0.007-0.034
				c-2.315-11.386-5.715-22.503-9.91-33.309c-4.301-10.774-9.39-21.218-14.954-31.41c-11.393-20.262-24.733-39.417-38.857-57.979
				c-28.372-37.069-59.028-72.522-89.413-108.245c-61.155-71.132-120.1-144.588-173.8-221.805
				c-6.691-9.676-13.389-19.299-19.935-29.117l-9.637-14.923c-1.596-2.493-3.232-4.962-4.768-7.493l-4.451-7.689l-8.898-15.378
				l-8.23-15.749l-4.1-7.881c-1.349-2.636-2.527-5.358-3.798-8.032l-7.493-16.113c-19.016-43.415-32.627-89.166-40.407-135.851
				c-3.716-23.371-6.089-46.934-7.012-70.543c-0.907-23.611-0.236-47.256,1.812-70.75c2.073-23.497,5.797-46.812,10.776-69.808
				c5.1-22.96,11.384-45.713,20.392-67.43c0.044-0.106,0.166-0.156,0.272-0.112C610.68,1354.095,610.726,1354.221,610.692,1354.323z
				"/>
		</g>
		<g>
			
				<linearGradient id="SVGID_00000065074811724199845240000014114708315814507180_" gradientUnits="userSpaceOnUse" x1="411.99" y1="-194.4211" x2="1163.8552" y2="1780.4744">
				<stop  offset="0" style="stop-color:#CB236D"/>
				<stop  offset="1" style="stop-color:#4C246D"/>
			</linearGradient>
			<path style="fill:url(#SVGID_00000065074811724199845240000014114708315814507180_);" d="M493.899,522.093
				c-7.512-13.753,12.026-23.644,28.218-14.371c164.421,94.157,575.531,378.596,635.282,895.786
				c74.965,648.893,316.298,879.135,575.444,1016.159c0,0-320.093-58.385-575.698-291.687
				C529.574,1555.17,627.461,766.627,493.899,522.093z"/>
			<path style="opacity:0.47;fill:#FFFFFF;" d="M660.937,717.542c22.408,24.226,41.947,50.421,60.494,77.4
				c4.564,6.785,9.37,13.424,13.738,20.336l13.146,20.72l6.567,10.371l6.193,10.588l12.39,21.187
				c32.203,56.994,59.832,116.473,84.312,177.179l17.722,45.804c5.399,15.448,10.478,31.01,15.733,46.515l7.82,23.282
				c2.39,7.826,4.589,15.709,6.892,23.563l13.672,47.174c1.201,3.917,2.208,7.882,3.143,11.866l2.913,11.925l5.826,23.854
				l5.825,23.858c1.953,7.951,3.968,15.891,5.426,23.946l9.588,48.165c3.196,16.068,6.452,32.166,9.345,47.939
				c23.664,126.996,66.875,249.871,120.396,367.529c6.617,14.757,13.684,29.309,20.635,43.914
				c7.195,14.489,14.319,29.013,21.821,43.348c14.858,28.744,30.433,57.12,46.584,85.161c16.104,28.069,32.891,55.75,50.356,82.978
				c8.7,13.636,17.654,27.101,26.729,40.464c9.037,13.323,18.359,26.721,27.792,39.389l0.148,0.198
				c3.837,5.154,2.771,12.442-2.382,16.279c-5.111,3.807-12.329,2.781-16.19-2.265c-20.209-26.433-38.658-53.27-56.628-80.766
				c-17.934-27.434-35.169-55.305-51.719-83.58c-16.504-28.302-32.214-57.062-47.317-86.137
				c-7.611-14.508-14.844-29.211-22.146-43.879c-7.059-14.788-14.231-29.522-20.955-44.471
				c-6.942-14.847-13.344-29.941-19.941-44.946c-6.283-15.144-12.666-30.245-18.496-45.576c-12.05-30.5-22.96-61.454-33.187-92.627
				l-7.463-23.451c-2.48-7.819-4.661-15.734-7.005-23.597c-4.782-15.698-8.784-31.627-13.055-47.474
				c-7.941-31.854-15.329-63.874-20.975-96.249l-17.522-95.832c-1.32-7.996-3.196-15.869-5.01-23.758l-5.407-23.675l-5.406-23.68
				l-2.703-11.842c-0.865-3.957-1.802-7.895-2.932-11.782l-12.821-46.849c-2.161-7.802-4.218-15.638-6.465-23.415l-7.388-23.132
				c-4.967-15.409-9.758-30.884-14.869-46.248l-16.499-45.69c-22.806-60.604-48.78-120.117-79.331-177.285l-11.606-21.354
				l-5.805-10.682l-6.176-10.462l-12.374-20.925c-4.113-6.986-8.658-13.69-12.968-20.554c-4.355-6.834-8.681-13.692-13.363-20.299
				c-4.646-6.63-9.063-13.444-13.901-19.931c-9.496-13.074-19.226-26.175-29.742-38.236l-0.1-0.114
				c-1.132-1.298-0.997-3.268,0.301-4.4C657.872,716.198,659.796,716.311,660.937,717.542z"/>
		</g>
		<g>
			<g>
				
					<linearGradient id="SVGID_00000054256909113826123210000016512041890082152636_" gradientUnits="userSpaceOnUse" x1="-303.243" y1="1350.9027" x2="1033.7264" y2="3203.709" gradientTransform="matrix(-0.9897 0.1431 0.1431 0.9897 2328.615 -303.7789)">
					<stop  offset="0" style="stop-color:#A737D5"/>
					<stop  offset="1" style="stop-color:#EF497A"/>
				</linearGradient>
				<path style="fill:url(#SVGID_00000054256909113826123210000016512041890082152636_);" d="M2393.747,2077.386
					c0,0-176.449-235.133-65.719-499.74c102.738-245.51,380.075-817.122,315.759-1113.594c-2.85-13.134,23.247-11.574,34.052,2.066
					c115.901,146.317,370.328,516.383,337.714,910.524C2973.494,1884.91,2393.747,2077.386,2393.747,2077.386z"/>
				<path style="opacity:0.45;fill:#FFFFFF;" d="M2740.906,735.988c15.451,24.564,27.801,50.952,38.753,77.836
					c10.813,26.953,20.164,54.555,27.544,82.718c7.349,28.165,13.054,56.8,16.831,85.718c3.758,28.92,5.741,58.083,6.05,87.29
					c0.183,58.417-6.922,116.904-21.086,173.664l-5.787,21.156c-0.994,3.517-1.865,7.073-2.961,10.559l-3.36,10.438l-6.758,20.866
					l-7.649,20.552l-3.827,10.277c-1.345,3.397-2.826,6.739-4.253,10.103l-8.642,20.151c-5.937,13.3-12.097,26.394-18.239,39.552
					c-49.382,105.063-105.924,206.633-165.636,305.832c-29.589,49.751-59.564,99.23-86.426,150.202
					c-13.35,25.507-25.624,51.573-35.298,78.585c-4.664,13.552-8.698,27.313-11.704,41.312c-2.871,14.017-4.71,28.247-5.173,42.581
					l-0.001,0.038c-0.037,1.146-0.997,2.047-2.144,2.009c-1.116-0.036-1.999-0.951-2.01-2.058
					c-0.134-14.621,1.142-29.237,3.489-43.685c2.506-14.424,6.296-28.568,10.605-42.526c9.019-27.788,20.674-54.584,33.375-80.736
					c12.69-26.176,26.776-51.573,40.882-76.894c14.175-25.288,28.616-50.385,42.989-75.497
					c14.388-25.104,28.682-50.233,42.754-75.474c14.201-25.167,28.185-50.443,41.799-75.908
					c27.291-50.898,53.362-102.418,78.031-154.603c6.088-13.068,12.239-26.171,18.085-39.299l8.45-19.752
					c1.385-3.301,2.872-6.562,4.211-9.881l3.813-10.039l7.632-20.079l6.753-20.386l3.362-10.199c1.098-3.407,1.97-6.88,2.967-10.318
					l5.809-20.676c1.739-6.942,3.289-13.931,4.945-20.896l2.448-10.456l2.013-10.546c1.321-7.034,2.795-14.045,3.993-21.103
					l3.171-21.246c3.717-28.392,6.101-56.999,6.417-85.677c0.727-57.331-5.22-114.856-17.982-170.98
					c-12.812-56.047-31.417-111.22-58.671-162.256c-0.074-0.121-0.037-0.279,0.084-0.353
					C2740.669,735.835,2740.828,735.88,2740.906,735.988z"/>
			</g>
			<g>
				
					<linearGradient id="SVGID_00000056414687390984049250000005592025762955867060_" gradientUnits="userSpaceOnUse" x1="-1501.2489" y1="466.6304" x2="35.7266" y2="2351.0076" gradientTransform="matrix(-0.9897 0.1431 0.1431 0.9897 2328.615 -303.7789)">
					<stop  offset="0" style="stop-color:#A737D5"/>
					<stop  offset="1" style="stop-color:#EF497A"/>
				</linearGradient>
				<path style="fill:url(#SVGID_00000056414687390984049250000005592025762955867060_);" d="M3087.292,733.551
					c-2.856-14.15-22.826-15.069-26.908-1.222c-39.459,133.86-153.926,481.623-325.438,664.71
					c-279.261,298.108-468.904,785.649-295.896,1041.729C2439.049,2438.767,3398.445,2275.244,3087.292,733.551z"/>
				<path style="opacity:0.43;fill:#FFFFFF;" d="M3060.787,924.915c-0.371,4.964-0.991,8.346-1.491,12.327l-1.722,11.5l-3.69,22.911
					l-8.315,45.612c-5.823,30.348-12.02,60.621-18.498,90.84c-13.177,60.382-27.818,120.455-43.936,180.143
					c-32.061,119.42-69.705,237.429-113.272,353.318c-43.582,115.864-93.683,229.492-152.448,338.703
					c-29.762,54.386-61.139,107.934-95.843,159.356c-35.118,51.109-72.18,100.938-113.19,147.371
					c-1.815,2.054-4.952,2.25-7.007,0.434c-1.958-1.729-2.198-4.697-0.648-6.747c74.422-97.923,137.171-203.691,193.011-312.844
					c55.646-109.312,104.083-222.242,147.842-336.977c43.615-114.815,82.178-231.598,117.221-349.483
					c17.302-59.005,33.996-118.222,49.464-177.778c7.839-29.752,15.405-59.581,22.6-89.499l10.459-44.945l5.077-22.491l2.409-11.249
					l2.054-10.517l0.251-1.285c0.517-2.65,3.084-4.378,5.733-3.86C3059.306,920.234,3060.971,922.479,3060.787,924.915z"/>
			</g>
		</g>
		<g>
			
				<linearGradient id="SVGID_00000094609159688945848100000010791180983714629773_" gradientUnits="userSpaceOnUse" x1="-307.6209" y1="2514.292" x2="-777.9753" y2="5196.584" gradientTransform="matrix(1 0 0 1 1513.0023 0)">
				<stop  offset="0" style="stop-color:#2B3582"/>
				<stop  offset="1" style="stop-color:#150E42"/>
			</linearGradient>
			<path style="fill:url(#SVGID_00000094609159688945848100000010791180983714629773_);" d="M1169.068,3144.754
				c-1.547,0-3.114-0.089-4.687-0.268c-22.292-2.559-38.286-22.704-35.722-45.001L1383.681,880.23
				c2.559-22.277,22.743-38.247,44.997-35.717c22.292,2.559,38.286,22.704,35.722,45.002l-255.021,2219.255
				C1206.998,3129.479,1189.432,3144.754,1169.068,3144.754z"/>
			
				<linearGradient id="SVGID_00000067956221314208503740000013850378262596957874_" gradientUnits="userSpaceOnUse" x1="687.4376" y1="2688.7817" x2="217.0818" y2="5371.083" gradientTransform="matrix(1 0 0 1 1513.0023 0)">
				<stop  offset="0" style="stop-color:#2B3582"/>
				<stop  offset="1" style="stop-color:#150E42"/>
			</linearGradient>
			<path style="fill:url(#SVGID_00000067956221314208503740000013850378262596957874_);" d="M2570.942,3144.764
				c-18.592,0-35.366-12.845-39.605-31.75l-497.59-2219.255c-4.905-21.891,8.862-43.623,30.758-48.532
				c21.845-4.871,43.617,8.857,48.532,30.757l497.585,2219.255c4.909,21.89-8.858,43.622-30.753,48.533
				C2576.879,3144.437,2573.888,3144.764,2570.942,3144.764z"/>
			
				<linearGradient id="SVGID_00000005257969438205074500000001804071150159231112_" gradientUnits="userSpaceOnUse" x1="209.1398" y1="2604.9092" x2="-261.2153" y2="5287.2056" gradientTransform="matrix(1 0 0 1 1513.0023 0)">
				<stop  offset="0" style="stop-color:#2B3582"/>
				<stop  offset="1" style="stop-color:#150E42"/>
			</linearGradient>
			<path style="fill:url(#SVGID_00000005257969438205074500000001804071150159231112_);" d="M1730.63,3144.754
				c-22.436,0-40.627-18.191-40.627-40.627v-1095.24c0-22.436,18.191-40.627,40.627-40.627c22.436,0,40.627,18.191,40.627,40.627
				v1095.24C1771.257,3126.563,1753.066,3144.754,1730.63,3144.754z"/>
			
				<linearGradient id="SVGID_00000081614205536846815950000009022951410885714069_" gradientUnits="userSpaceOnUse" x1="1906.1737" y1="875.3574" x2="1359.5444" y2="4371.248">
				<stop  offset="0" style="stop-color:#2B3582"/>
				<stop  offset="1" style="stop-color:#150E42"/>
			</linearGradient>
			<path style="fill:url(#SVGID_00000081614205536846815950000009022951410885714069_);" d="M917.566,636.587l142.84,1799.133
				c3.022,38.053,35.256,67.11,73.417,66.179l1491.856-36.388c43.492-1.061,76.083-40.207,69.243-83.172l-285.599-1793.98
				c-5.655-35.524-36.697-61.401-72.66-60.568L987.567,559.027C946.29,559.983,914.299,595.43,917.566,636.587z"/>
			
				<linearGradient id="SVGID_00000032606842245272013020000005970185753900102583_" gradientUnits="userSpaceOnUse" x1="2631.2781" y1="-208.2224" x2="162.3326" y2="4929.0244">
				<stop  offset="0" style="stop-color:#53D8FF"/>
				<stop  offset="1" style="stop-color:#3840F7"/>
			</linearGradient>
			<path style="fill:url(#SVGID_00000032606842245272013020000005970185753900102583_);" d="M1042.442,608.551l1251.047-28.963
				c35.962-0.832,67.005,25.044,72.66,60.569l269.491,1692.825c6.84,42.964-25.751,82.109-69.243,83.171l-1385.75,33.8
				c-38.162,0.931-70.397-28.125-73.417-66.179L972.442,686.111C969.173,644.953,1001.165,609.506,1042.442,608.551z"/>
			<defs>
				
					<filter id="Adobe_OpacityMaskFilter" filterUnits="userSpaceOnUse" x="1074.158" y="681.225" width="1495.262" height="1680.395">
					<feFlood  style="flood-color:white;flood-opacity:1" result="back"/>
					<feBlend  in="SourceGraphic" in2="back" mode="normal"/>
				</filter>
			</defs>
			
				<mask maskUnits="userSpaceOnUse" x="1074.158" y="681.225" width="1495.262" height="1680.395" id="SVGID_00000006700264777830511460000012101736062898273415_">
				<g style="filter:url(#Adobe_OpacityMaskFilter);">
					<defs>
						
							<filter id="Adobe_OpacityMaskFilter_00000063632683761604260330000007395930424760918423_" filterUnits="userSpaceOnUse" x="1074.158" y="681.225" width="1495.262" height="1680.395">
							<feFlood  style="flood-color:white;flood-opacity:1" result="back"/>
							<feBlend  in="SourceGraphic" in2="back" mode="normal"/>
						</filter>
					</defs>
					
						<mask maskUnits="userSpaceOnUse" x="1074.158" y="681.225" width="1495.262" height="1680.395" id="SVGID_00000006700264777830511460000012101736062898273415_">
						<g style="filter:url(#Adobe_OpacityMaskFilter_00000063632683761604260330000007395930424760918423_);">
						</g>
					</mask>
					
						<linearGradient id="SVGID_00000065753511276377654140000006257775963542601657_" gradientUnits="userSpaceOnUse" x1="1823.2004" y1="1516.3384" x2="297.4187" y2="4652.6665">
						<stop  offset="0" style="stop-color:#FFFFFF"/>
						<stop  offset="1" style="stop-color:#000000"/>
					</linearGradient>
					
						<path style="mask:url(#SVGID_00000006700264777830511460000012101736062898273415_);fill:url(#SVGID_00000065753511276377654140000006257775963542601657_);" d="
						M1137.254,707.263l1123.956-26.021c32.309-0.747,60.198,22.5,65.279,54.416l242.114,1520.855
						c6.145,38.599-23.135,73.768-62.209,74.722l-1244.975,30.366c-34.285,0.836-63.245-25.268-65.959-59.456l-121.096-1525.2
						C1071.428,739.968,1100.171,708.122,1137.254,707.263z"/>
				</g>
			</mask>
			
				<linearGradient id="SVGID_00000173161500575727017290000013036070896918552968_" gradientUnits="userSpaceOnUse" x1="1823.2004" y1="1516.3384" x2="297.4187" y2="4652.6665">
				<stop  offset="0" style="stop-color:#FFFFFF"/>
				<stop  offset="1" style="stop-color:#FFFFFF"/>
			</linearGradient>
			<path style="opacity:0.71;fill:url(#SVGID_00000173161500575727017290000013036070896918552968_);" d="M1137.254,707.263
				l1123.956-26.021c32.309-0.747,60.198,22.5,65.279,54.416l242.114,1520.855c6.145,38.599-23.135,73.768-62.209,74.722
				l-1244.975,30.366c-34.285,0.836-63.245-25.268-65.959-59.456l-121.096-1525.2
				C1071.428,739.968,1100.171,708.122,1137.254,707.263z"/>
			<g>
				
					<linearGradient id="SVGID_00000026120879300035053680000001881349608260018092_" gradientUnits="userSpaceOnUse" x1="1722.9285" y1="612.7032" x2="1849.4895" y2="2025.9724">
					<stop  offset="0" style="stop-color:#FDF53F"/>
					<stop  offset="1" style="stop-color:#D93C65"/>
				</linearGradient>
				<path style="fill:url(#SVGID_00000026120879300035053680000001881349608260018092_);" d="M2000.126,2196.696
					c0,0-591.997,19.531-690.123-348.176c-78.864-295.522,157.258,4.098,431.831,186.262c21.548,14.296,44.061-16.73,23.781-32.774
					c-199.244-157.628-486.275-414.61-438.42-553.932c72.245-210.32,94.074-95.404,286.925,144.758
					c192.851,240.161,288.351,229.897,182.916,53.32c-105.436-176.578-401.96-332.672-383.922-453.45
					c18.038-120.778,128.098-283.894,166.99-362.757c38.891-78.861,414.357,130.048,413.671,285.555
					c-0.685,155.508-112.099,389.215-52.081,514.811c60.019,125.597,115.375-125.713,134.03-265.662
					c18.655-139.949,53.639-222.163,156.345-78.203c102.707,143.959,13.774,358.848-87.796,482.94
					c-101.57,124.093-122.696,230.325-68.04,173.479c54.656-56.847,208.316-245.573,221.607-336.276
					C2311.132,1515.887,2525.086,1864.105,2000.126,2196.696z"/>
				<path style="opacity:0.53;fill:#FFFFFF;" d="M1974.582,2176.348c-1.696-0.793-2.911-2.469-3.009-4.477
					c-23.103-453.246-265.798-1015.802-268.248-1021.428c-1.154-2.65,0.059-5.726,2.712-6.887c2.638-1.145,5.727,0.065,6.88,2.714
					c2.461,5.643,245.905,569.904,269.101,1025.077c0.149,2.879-2.07,5.337-4.956,5.487
					C1976.174,2176.88,1975.331,2176.699,1974.582,2176.348z"/>
			</g>
		</g>
		<g>
			
				<linearGradient id="SVGID_00000014621679259027489350000001571576148856671391_" gradientUnits="userSpaceOnUse" x1="-482.3468" y1="2316.2395" x2="-314.0076" y2="2316.2395" gradientTransform="matrix(-1 0 0 1 2669.0103 0)">
				<stop  offset="0" style="stop-color:#F9B776"/>
				<stop  offset="1" style="stop-color:#F47960"/>
			</linearGradient>
			<path style="fill:url(#SVGID_00000014621679259027489350000001571576148856671391_);" d="M3090.767,2229.48
				c17.27,18.433,42.697,34.361,60.59,44.294c-26.721,33.03-62.88,66.107-110.747,98.482l-13.699,30.743l-43.894-52.608
				C2983.018,2350.391,3061.779,2311.196,3090.767,2229.48z"/>
			<g>
				
					<linearGradient id="SVGID_00000020388427411754963710000011799814690871012498_" gradientUnits="userSpaceOnUse" x1="2292.978" y1="1145.9677" x2="2723.4551" y2="1656.533" gradientTransform="matrix(0.9966 0.0819 -0.0819 0.9966 -135.0352 -86.4434)">
					<stop  offset="0" style="stop-color:#FDF53F"/>
					<stop  offset="1" style="stop-color:#D93C65"/>
				</linearGradient>
				<path style="fill:url(#SVGID_00000020388427411754963710000011799814690871012498_);" d="M2316.134,1551.118
					c0,0,114.498-221.148-80.913-330.658s-269.875,17.181-432.283-89.887C1802.938,1130.573,1888.364,1544.441,2316.134,1551.118z"
					/>
				
					<linearGradient id="SVGID_00000009559064880083639390000013292900362781598864_" gradientUnits="userSpaceOnUse" x1="-248.5426" y1="1038.5443" x2="-884.5328" y2="1757.2993" gradientTransform="matrix(-0.9966 -0.0819 -0.0819 0.9966 1760.3298 69.3106)">
					<stop  offset="0" style="stop-color:#CB236D"/>
					<stop  offset="1" style="stop-color:#4C246D"/>
				</linearGradient>
				<path style="fill:url(#SVGID_00000009559064880083639390000013292900362781598864_);" d="M2117.349,1159.79
					c8.959-0.007,59.577-12.077,72.299,15.92s-11.113,45.778-77.517,47.57c-66.404,1.792-77.106,46.803-24.03,81.759
					c53.076,34.956,20.137,73.092-41.625,48.688c-61.763-24.405-62.451-2.142-38.809,35.625
					c23.642,37.767-31.508,70.656-84.633,25.727c-48.812-41.281-137.86-148.978-163.317-289.115
					c-2.699-14.857,12.585-26.543,26.294-20.212C1832.097,1127.036,1933.156,1159.936,2117.349,1159.79z"/>
				<path style="fill:#FFFFFF;" d="M2299.672,1484.138c5.151-11.049,8.765-22.797,11.488-34.724
					c2.745-11.937,4.262-24.173,4.752-36.474c0.463-12.305-0.234-24.694-2.143-36.94c-1.889-12.246-4.99-24.364-9.4-36.021
					c-8.658-23.381-21.958-45.098-38.402-63.936c-16.364-18.954-35.495-35.399-56.039-49.552l-0.013-0.009
					c-3.964-2.731-9.391-1.731-12.122,2.233c-2.73,3.964-1.731,9.391,2.233,12.122c0.136,0.094,0.297,0.197,0.437,0.282
					c20.328,12.286,39.331,26.761,55.858,43.739c16.608,16.876,30.382,36.6,39.969,58.376c4.869,10.856,8.533,22.272,11.057,33.963
					c2.543,11.689,3.945,23.665,4.21,35.704c0.24,12.034-0.527,24.151-2.533,36.097
					C2307.035,1460.939,2304.153,1472.811,2299.672,1484.138z"/>
				<g>
					
						<linearGradient id="SVGID_00000143613402842351049100000008498804252042585225_" gradientUnits="userSpaceOnUse" x1="3223.4407" y1="2028.5577" x2="3744.6831" y2="1745.274">
						<stop  offset="0" style="stop-color:#2B3582"/>
						<stop  offset="1" style="stop-color:#150E42"/>
					</linearGradient>
					<path style="fill:url(#SVGID_00000143613402842351049100000008498804252042585225_);" d="M2562.742,1752.766
						c382.267,378.076,606.734,730.408,688.639,870.324c11.003,18.796-9.643,40.302-28.781,29.904
						c-417.989-227.105-656.562-529.738-787.093-757.906C2469.622,1812.273,2523,1772.057,2562.742,1752.766z"/>
					
						<linearGradient id="SVGID_00000028293708619518708280000013157610842777273473_" gradientUnits="userSpaceOnUse" x1="-937.6349" y1="1588.2959" x2="-653.4359" y2="1588.2959" gradientTransform="matrix(-0.9966 -0.0819 -0.0819 0.9966 1760.3298 69.3106)">
						<stop  offset="0" style="stop-color:#18459F"/>
						<stop  offset="0.9901" style="stop-color:#2874B5"/>
					</linearGradient>
					<path style="fill:url(#SVGID_00000028293708619518708280000013157610842777273473_);" d="M2323.901,1532.504
						c85.569,73.488,165.122,147.351,238.841,220.262c-39.743,19.291-93.12,59.507-127.235,142.323
						c-108.73-190.06-142.501-328.457-142.501-328.457C2293.689,1531.723,2323.901,1532.504,2323.901,1532.504z"/>
				</g>
			</g>
			
				<linearGradient id="SVGID_00000110468428241090472730000016130319109105715105_" gradientUnits="userSpaceOnUse" x1="-313.0836" y1="3182.3098" x2="-186.8552" y2="3182.3098" gradientTransform="matrix(-1 0 0 1 2669.0103 0)">
				<stop  offset="0" style="stop-color:#2B3582"/>
				<stop  offset="1" style="stop-color:#150E42"/>
			</linearGradient>
			<path style="fill:url(#SVGID_00000110468428241090472730000016130319109105715105_);" d="M2855.867,3227.255
				c-0.015-0.94,0.048-1.892,0.29-2.851c14.217-56.365,84.78-91.471,84.78-91.471l27.962,2.192
				c16.077,49.679,14.011,80.147,11.429,93.718c-0.072,0.38-0.187,0.742-0.288,1.11
				C2956.974,3232.013,2909.499,3233.359,2855.867,3227.255z"/>
			
				<linearGradient id="SVGID_00000115495956267428185220000004962159700712843401_" gradientUnits="userSpaceOnUse" x1="2.9225" y1="3033.3962" x2="-456.2999" y2="3393.979" gradientTransform="matrix(-1 0 0 1 2669.0103 0)">
				<stop  offset="0" style="stop-color:#53D8FF"/>
				<stop  offset="1" style="stop-color:#3840F7"/>
			</linearGradient>
			<path style="fill:url(#SVGID_00000115495956267428185220000004962159700712843401_);" d="M2980.04,3229.952
				c-1.246,4.532-4.591,8.06-8.873,8.961c-32.811,6.9-84.961,1.347-106.857-1.516c-4.831-0.631-8.361-5.099-8.442-10.143
				C2909.499,3233.359,2956.974,3232.013,2980.04,3229.952z"/>
			
				<linearGradient id="SVGID_00000037673247854389773490000005978727494363998611_" gradientUnits="userSpaceOnUse" x1="-277.9809" y1="3038.6045" x2="-302.0927" y2="3249.0356" gradientTransform="matrix(-1 0 0 1 2669.0103 0)">
				<stop  offset="0" style="stop-color:#F9B776"/>
				<stop  offset="1" style="stop-color:#F47960"/>
			</linearGradient>
			<path style="fill:url(#SVGID_00000037673247854389773490000005978727494363998611_);" d="M2980.142,3093.477l-11.843,57.01
				c-0.868,4.178-4.078,7.306-7.966,7.671c-4.759,0.447-11.534,0.709-18.347-0.292c-6.109-0.897-10.364-7.106-9.281-13.769
				l8.232-50.62H2980.142z"/>
			
				<linearGradient id="SVGID_00000127766292032397182400000001837943245527843496_" gradientUnits="userSpaceOnUse" x1="84.5001" y1="3137.2903" x2="-374.7218" y2="3497.8726" gradientTransform="matrix(-1 0 0 1 2669.0103 0)">
				<stop  offset="0" style="stop-color:#53D8FF"/>
				<stop  offset="1" style="stop-color:#3840F7"/>
			</linearGradient>
			<path style="fill:url(#SVGID_00000127766292032397182400000001837943245527843496_);" d="M2734.77,3229.38
				c30.882-0.865,46.854-4.501,55.112-7.876c0.019,3.071,0.001,6.196-0.098,9.433c-0.107,3.458-2.668,6.22-5.819,6.2l-169.559-1.094
				c-5.411-0.035-8.573-6.311-6.229-11.272C2630.41,3226.607,2687.032,3230.716,2734.77,3229.38z"/>
			
				<linearGradient id="SVGID_00000065773204238900063020000009707311534876785028_" gradientUnits="userSpaceOnUse" x1="-120.8718" y1="3185.6672" x2="60.8323" y2="3185.6672" gradientTransform="matrix(-1 0 0 1 2669.0103 0)">
				<stop  offset="0" style="stop-color:#2B3582"/>
				<stop  offset="1" style="stop-color:#150E42"/>
			</linearGradient>
			<path style="fill:url(#SVGID_00000065773204238900063020000009707311534876785028_);" d="M2608.178,3224.77
				c0.205-0.432,0.38-0.872,0.671-1.279c14.974-20.923,53.114-62.587,128.477-80.658l36.154-1.141c0,0,16.099,27.981,16.403,79.812
				c-8.258,3.375-24.23,7.012-55.112,7.876C2687.032,3230.716,2630.41,3226.607,2608.178,3224.77z"/>
			
				<linearGradient id="SVGID_00000022545362476419096560000011110591497476005768_" gradientUnits="userSpaceOnUse" x1="-81.5726" y1="3061.1094" x2="-105.6844" y2="3271.5405" gradientTransform="matrix(-1 0 0 1 2669.0103 0)">
				<stop  offset="0" style="stop-color:#F9B776"/>
				<stop  offset="1" style="stop-color:#F47960"/>
			</linearGradient>
			<path style="fill:url(#SVGID_00000022545362476419096560000011110591497476005768_);" d="M2780.184,3086.9
				c-0.402,2.695-5.357,43.653-7.276,59.534c-0.456,3.774-3.189,6.694-6.636,7.106c-6.156,0.735-16.118,1.405-24.833-0.382
				c-4.702-0.964-8.105-5.481-8.105-10.733v-64.293L2780.184,3086.9z"/>
			
				<linearGradient id="SVGID_00000037650648515253072210000003018002173283205288_" gradientUnits="userSpaceOnUse" x1="204.9171" y1="2098.8467" x2="-566.2661" y2="3295.5117" gradientTransform="matrix(-1 0 0 1 2669.0103 0)">
				<stop  offset="0.0985" style="stop-color:#CB236D"/>
				<stop  offset="0.936" style="stop-color:#4C246D"/>
			</linearGradient>
			<path style="fill:url(#SVGID_00000037650648515253072210000003018002173283205288_);" d="M2809.189,2339.431
				c0,0-87.2,331.392-85.624,748.417c0.029,7.603,5.367,14.165,12.807,15.732c10.964,2.309,27.08,5.051,40.423,4.677
				c7.122-0.2,13.076-5.482,14.274-12.506c12.227-71.702,82.394-475.639,122.373-541.217c0,0,26.303,359.764,17.895,546.412
				c-0.209,4.641,3.189,8.667,7.804,9.2c7.001,0.81,18.2,1.424,32.452-0.09c5.41-0.575,9.775-4.665,10.548-10.05
				c8.709-60.684,58.837-421.896,56.706-682.101c-0.12-14.674-38.805-78.475-38.805-78.475H2809.189z"/>
			
				<linearGradient id="SVGID_00000141450926986156869300000017618114174529181580_" gradientUnits="userSpaceOnUse" x1="-1032.2899" y1="1827.1583" x2="-1164.8506" y2="3125.1409" gradientTransform="matrix(-1 0 0 1 1901.2418 0)">
				<stop  offset="0" style="stop-color:#FDF53F"/>
				<stop  offset="1" style="stop-color:#D93C65"/>
			</linearGradient>
			<path style="fill:url(#SVGID_00000141450926986156869300000017618114174529181580_);" d="M2687.915,1938.364
				c14.152-17.74,26.551-36.755,36.921-56.348c14.485-27.366,25.67-57.323,29.628-88.225
				c97.948,17.029,247.294,36.382,310.473,44.342c20.716,2.609,39.663,12.823,53.314,28.621
				c54.138,62.651,172.936,234.179,33.106,407.02c-17.893-9.933-43.32-25.861-60.59-44.294
				c15.47-43.609,16.737-99.337-15.684-167.675c-1.108,5.417-2.477,10.78-4.142,16.056c-44.685,141.565-47.069,259.37-46.969,286.52
				c0.014,3.687-2.199,7.005-5.623,8.377c-58.81,23.566-172.018,9.541-210.019,3.877c-6.969-1.038-11.656-7.525-10.693-14.504
				c18.651-135.121-77.068-357.402-102.349-413.077C2693.47,1945.05,2690.956,1941.445,2687.915,1938.364z"/>
			
				<linearGradient id="SVGID_00000106844782109832554600000016914235188647092148_" gradientUnits="userSpaceOnUse" x1="-224.7133" y1="1677.1566" x2="-316.7769" y2="2075.0027" gradientTransform="matrix(-1 0 0 1 2669.0103 0)">
				<stop  offset="0" style="stop-color:#F9B776"/>
				<stop  offset="1" style="stop-color:#F47960"/>
			</linearGradient>
			<path style="fill:url(#SVGID_00000106844782109832554600000016914235188647092148_);" d="M2963.289,1708.137l11.334,115.801
				c0,0-65.145,19.621-112.526-13.81l33.308-105.246L2963.289,1708.137z"/>
			<g>
				
					<linearGradient id="SVGID_00000009572626224801516700000004430166827301843331_" gradientUnits="userSpaceOnUse" x1="-1295.4276" y1="-965.6403" x2="-1458.7605" y2="-749.5641" gradientTransform="matrix(-0.6854 -0.7281 -0.7281 0.6854 1318.0114 1318.7853)">
					<stop  offset="0" style="stop-color:#F9B776"/>
					<stop  offset="1" style="stop-color:#F47960"/>
				</linearGradient>
				<path style="fill:url(#SVGID_00000009572626224801516700000004430166827301843331_);" d="M2887.699,1576.151
					c-1.568,1.476-66.171,128.341-66.171,128.341l73.222,35.348l79.094-111.145
					C2973.845,1628.695,2913.948,1551.443,2887.699,1576.151z"/>
				
					<linearGradient id="SVGID_00000138532880570126845800000011928366590962361535_" gradientUnits="userSpaceOnUse" x1="-1420.1677" y1="-913.7496" x2="-1225.0642" y2="-913.7496" gradientTransform="matrix(-0.6854 -0.7281 -0.7281 0.6854 1318.0114 1318.7853)">
					<stop  offset="0" style="stop-color:#2B3582"/>
					<stop  offset="1" style="stop-color:#150E42"/>
				</linearGradient>
				<path style="fill:url(#SVGID_00000138532880570126845800000011928366590962361535_);" d="M2941.447,1631.773
					c1.307,3.379,0.985,7.151-0.878,10.258l-36.519,60.876c-0.554,0.924-1.214,1.759-2.002,2.493
					c-4.347,4.046-19.221,15.815-30.72-0.208c-9.801-13.657-18.996-26.073-28.85-31.194c-5.754-2.99-12.835-0.602-15.756,5.187
					c-6.017,11.925-17.672,36.234-24.993,59.286c-1.835,5.777,1.147,11.981,6.765,14.257c14.827,6.007,44.13,16.87,70.133,20.459
					c4.271,0.589,8.5-1.213,11.042-4.695c11.187-15.326,42.719-58.156,53.481-68.877c9.998-9.96,28.451-6.205,36.765-3.815
					c3.156,0.907,6.517,0.47,9.33-1.224c8.436-5.081,23.158-17.735,9.69-39.158c-3.348-5.326-1.641-12.421,3.615-15.879
					c9.418-6.196,19.639-17.825,9.902-36.659c-9.857-19.065-27.46-20.777-39.449-19.311c-5.305,0.648-10.69-2.134-12.725-7.075
					c-0.905-2.198-2.695-4.071-6.026-4.747c-6.284-1.275-10.408-7.021-9.175-13.313c2.114-10.789,0.522-24.804-16.704-34.275
					c-31.593-17.37-59.267,10.933-66.304,34.826c-7.037,23.893,28.287,40.778,50.507,43.596
					C2928.898,1604.649,2937.846,1622.462,2941.447,1631.773z"/>
				
					<linearGradient id="SVGID_00000178898130816180915100000006381559833640023996_" gradientUnits="userSpaceOnUse" x1="-1534.6459" y1="-794.5249" x2="-1403.6399" y2="-928.9335" gradientTransform="matrix(-0.6854 -0.7281 -0.7281 0.6854 1318.0114 1318.7853)">
					<stop  offset="0" style="stop-color:#F9B776"/>
					<stop  offset="1" style="stop-color:#F47960"/>
				</linearGradient>
				<path style="fill:url(#SVGID_00000178898130816180915100000006381559833640023996_);" d="M2929.434,1721.97
					c0,0,14.048-41.105,32.031-39.596c17.983,1.509,32.136,19.423,9.85,39.562C2943.593,1746.985,2929.434,1721.97,2929.434,1721.97
					z"/>
			</g>
			
				<linearGradient id="SVGID_00000075152418592835190970000012871442431680697268_" gradientUnits="userSpaceOnUse" x1="-302.2451" y1="1768.3311" x2="-492.8249" y2="2118.4663" gradientTransform="matrix(-1 0 0 1 2669.0103 0)">
				<stop  offset="0" style="stop-color:#FDF53F"/>
				<stop  offset="1" style="stop-color:#D93C65"/>
			</linearGradient>
			<path style="fill:url(#SVGID_00000075152418592835190970000012871442431680697268_);" d="M3081.014,2051.217
				c23.703-64.869,15.104-143.199,15.014-143.983l-6.531,0.747c0.087,0.769,8.502,77.597-14.661,140.979L3081.014,2051.217z"/>
			
				<linearGradient id="SVGID_00000132073829814262003320000014350744109639639963_" gradientUnits="userSpaceOnUse" x1="2934.2146" y1="1779.7865" x2="2945.5447" y2="2365.1802">
				<stop  offset="0.0985" style="stop-color:#CB236D"/>
				<stop  offset="0.936" style="stop-color:#4C246D"/>
			</linearGradient>
			<path style="fill:url(#SVGID_00000132073829814262003320000014350744109639639963_);" d="M2916.646,2546.087
				c1.461,0,2.797-0.981,3.179-2.463c7.231-27.89,61.38-58.54,61.926-58.846c1.583-0.888,2.148-2.892,1.259-4.476
				c-0.89-1.583-2.884-2.15-4.476-1.259c-2.328,1.305-57.142,32.334-65.073,62.931c-0.456,1.758,0.6,3.553,2.357,4.007
				C2916.094,2546.053,2916.374,2546.087,2916.646,2546.087z"/>
			<g>
				
					<linearGradient id="SVGID_00000134207871279410846630000016833428815255781781_" gradientUnits="userSpaceOnUse" x1="-1578.4552" y1="1268.4663" x2="-1711.0161" y2="2566.4512" gradientTransform="matrix(-0.9661 -0.2581 -0.2581 0.9661 1436.7734 173.8431)">
					<stop  offset="0" style="stop-color:#FDF53F"/>
					<stop  offset="1" style="stop-color:#D93C65"/>
				</linearGradient>
				<path style="fill:url(#SVGID_00000134207871279410846630000016833428815255781781_);" d="M2431.583,1839.714
					c113.77,49.449,210.999-4.695,280.683-34.681c92-39.588,143.356,5.351,143.356,5.351l-122.376,133.028
					c-151.525,81.781-268.852,23.283-337.207-34.599C2402.818,1878.615,2417.483,1855.744,2431.583,1839.714z"/>
				
					<linearGradient id="SVGID_00000126319709851908763100000009662116310421309592_" gradientUnits="userSpaceOnUse" x1="-1391.0959" y1="1327.4683" x2="-1244.0833" y2="1327.4683" gradientTransform="matrix(-0.9661 -0.2581 -0.2581 0.9661 1436.7734 173.8431)">
					<stop  offset="0" style="stop-color:#F9B776"/>
					<stop  offset="1" style="stop-color:#F47960"/>
				</linearGradient>
				<path style="fill:url(#SVGID_00000126319709851908763100000009662116310421309592_);" d="M2331.855,1682.274l29.23,80.118
					c29.704,44.849,34.062,61.485,70.498,77.322c-14.1,16.03-28.765,38.901-35.543,69.099
					c-41.564-51.059-55.255-120.087-55.255-120.087C2288.383,1694.883,2331.855,1682.274,2331.855,1682.274z"/>
			</g>
		</g>
		<g>
			
				<linearGradient id="SVGID_00000121269160154702541270000016860242492070261936_" gradientUnits="userSpaceOnUse" x1="6026.5947" y1="-1159.2222" x2="4547.4644" y2="-1495.9349" gradientTransform="matrix(0.0765 0.9971 -0.9971 0.0765 -690.4598 -2558.3276)">
				<stop  offset="0" style="stop-color:#FDF53F"/>
				<stop  offset="1" style="stop-color:#D93C65"/>
			</linearGradient>
			<path style="fill:url(#SVGID_00000121269160154702541270000016860242492070261936_);" d="M951.852,3161.938
				c141.54-34.627,243.942-145.949,324.074-248.303c60.035-76.685,116.053-156.214,168.001-237.408
				c39.969-62.47,79.889-135.995,101.418-205.598c11.783-38.095,18.546-78.445,9.246-117.125
				c-17.25-71.744-66.031-103.697-148.168-108.04c-45.998-2.432-127.793,14.092-142.708-35.069
				c-13.021-42.918,10.693-88.624,21.064-130.276c3.535-14.198,7.091-28.574,6.573-43.113
				c-1.703-47.78-48.524-87.181-100.37-100.543c-107.497-27.704-220.52,64.996-290.877,127.861
				c-81.765,73.058-147.468,159.223-206.404,247.48c-99.533,149.05-167.981,321.572-168.629,496.291
				c-0.391,105.399,29.88,218.53,122.858,289.992C729.586,3160.847,847.126,3187.558,951.852,3161.938z M1346.228,2389.04
				c12.755-50.552,53.568-85.453,91.159-77.954c37.591,7.499,57.724,54.559,44.97,105.111
				c-12.755,50.552-53.568,85.453-91.159,77.954C1353.606,2486.652,1333.473,2439.592,1346.228,2389.04z"/>
			
				<linearGradient id="SVGID_00000045589129775076185750000014229048457238710205_" gradientUnits="userSpaceOnUse" x1="5086.8042" y1="-1557.9159" x2="6304.6836" y2="173.416" gradientTransform="matrix(0.0765 0.9971 -0.9971 0.0765 -690.4598 -2558.3276)">
				<stop  offset="0" style="stop-color:#FDF53F"/>
				<stop  offset="1" style="stop-color:#D93C65"/>
			</linearGradient>
			<path style="fill:url(#SVGID_00000045589129775076185750000014229048457238710205_);" d="M964.985,3170.265
				c140.25-34.311,241.72-144.619,321.121-246.041c59.488-75.986,114.995-154.79,166.47-235.244
				c39.604-61.901,79.161-134.756,100.494-203.725c11.676-37.748,18.377-77.73,9.162-116.058
				c-17.093-71.091-65.429-102.752-146.818-107.056c-45.579-2.41-126.628,13.964-141.408-34.749
				c-12.903-42.527,10.595-87.816,20.872-129.088c3.503-14.069,7.026-28.314,6.513-42.72c-1.688-47.344-48.082-86.387-99.455-99.627
				c-106.518-27.452-218.511,64.404-288.227,126.696c-81.02,72.393-146.124,157.772-204.524,245.225
				c-98.626,147.692-166.451,318.642-167.093,491.769c-0.387,104.439,29.608,216.539,121.739,287.349
				C744.743,3169.184,861.213,3195.652,964.985,3170.265z M1355.767,2404.409c12.639-50.092,53.08-84.675,90.328-77.244
				c37.248,7.431,57.198,54.062,44.56,104.154c-12.639,50.091-53.08,84.675-90.328,77.243
				C1363.078,2501.132,1343.128,2454.5,1355.767,2404.409z"/>
			
				<linearGradient id="SVGID_00000006696272111900739750000009133904476530865039_" gradientUnits="userSpaceOnUse" x1="839.9169" y1="-3733.3965" x2="2153.03" y2="-1866.6813" gradientTransform="matrix(-0.5343 0.8453 -0.8453 -0.5343 305.6434 -712.6379)">
				<stop  offset="0" style="stop-color:#FDF53F"/>
				<stop  offset="1" style="stop-color:#D93C65"/>
			</linearGradient>
			<path style="fill:url(#SVGID_00000006696272111900739750000009133904476530865039_);" d="M1048.648,2152.833
				c-41.24-23.145-53.55-71.482-27.496-107.965c26.054-36.483,80.607-47.296,121.846-24.152
				c41.24,23.144,53.55,71.482,27.495,107.965C1144.44,2165.165,1089.888,2175.978,1048.648,2152.833z"/>
			
				<linearGradient id="SVGID_00000170967635188723621650000006965823006458159781_" gradientUnits="userSpaceOnUse" x1="4229.146" y1="-215.6579" x2="4175.2354" y2="74.8618" gradientTransform="matrix(0.489 0.8723 -0.8723 0.489 -1008.143 -1555.1271)">
				<stop  offset="0" style="stop-color:#FDF53F"/>
				<stop  offset="1" style="stop-color:#D93C65"/>
			</linearGradient>
			<path style="fill:url(#SVGID_00000170967635188723621650000006965823006458159781_);" d="M1061.913,2130.948
				c-32.333-18.146-41.984-56.043-21.557-84.647c20.427-28.604,63.197-37.081,95.53-18.936
				c32.333,18.146,41.984,56.043,21.557,84.647C1137.016,2140.616,1094.245,2149.094,1061.913,2130.948z"/>
			
				<linearGradient id="SVGID_00000016755516628102433210000002370991171146029723_" gradientUnits="userSpaceOnUse" x1="5193.2554" y1="-1195.9685" x2="4890.8535" y2="-1110.0511" gradientTransform="matrix(0.0867 0.9962 -0.9962 0.0867 -687.202 -2586.3113)">
				<stop  offset="0" style="stop-color:#FDF53F"/>
				<stop  offset="1" style="stop-color:#D93C65"/>
			</linearGradient>
			<path style="fill:url(#SVGID_00000016755516628102433210000002370991171146029723_);" d="M825.851,2335.548
				c-41.24-23.144-53.55-71.482-27.495-107.965c26.054-36.483,80.607-47.296,121.846-24.152
				c41.24,23.145,53.55,71.482,27.496,107.965C921.643,2347.879,867.091,2358.692,825.851,2335.548z"/>
			
				<linearGradient id="SVGID_00000176031165361324230630000016903848899640013955_" gradientUnits="userSpaceOnUse" x1="4362.8438" y1="102.074" x2="4677.3213" y2="-272.3035" gradientTransform="matrix(0.489 0.8723 -0.8723 0.489 -1008.143 -1555.1271)">
				<stop  offset="0" style="stop-color:#CB236D"/>
				<stop  offset="1" style="stop-color:#4C246D"/>
			</linearGradient>
			<path style="fill:url(#SVGID_00000176031165361324230630000016903848899640013955_);" d="M829.581,2330.325
				c-37.979-21.314-49.315-65.83-25.321-99.428s74.233-43.556,112.212-22.242c37.979,21.314,49.315,65.83,25.321,99.428
				C917.799,2341.681,867.56,2351.639,829.581,2330.325z"/>
			
				<linearGradient id="SVGID_00000002359122984484973220000001402393652974802329_" gradientUnits="userSpaceOnUse" x1="5426.7368" y1="-1117.7878" x2="5075.6655" y2="-815.932" gradientTransform="matrix(0.0867 0.9962 -0.9962 0.0867 -687.202 -2586.3113)">
				<stop  offset="0" style="stop-color:#FDF53F"/>
				<stop  offset="1" style="stop-color:#D93C65"/>
			</linearGradient>
			<path style="fill:url(#SVGID_00000002359122984484973220000001402393652974802329_);" d="M664.986,2608.503
				c-41.24-23.145-53.55-71.482-27.495-107.965s80.607-47.296,121.846-24.152c41.24,23.144,53.55,71.482,27.495,107.965
				C760.778,2620.834,706.226,2631.647,664.986,2608.503z"/>
			
				<linearGradient id="SVGID_00000145042204847260102800000000037363154016433805_" gradientUnits="userSpaceOnUse" x1="4429.0122" y1="332.8751" x2="4384.0869" y2="868.9886" gradientTransform="matrix(0.489 0.8723 -0.8723 0.489 -1008.143 -1555.1271)">
				<stop  offset="0" style="stop-color:#CB236D"/>
				<stop  offset="1" style="stop-color:#4C246D"/>
			</linearGradient>
			<path style="fill:url(#SVGID_00000145042204847260102800000000037363154016433805_);" d="M671.843,2598.187
				c-35.259-19.788-45.784-61.116-23.508-92.309c22.276-31.193,68.918-40.438,104.177-20.65
				c35.259,19.788,45.784,61.116,23.508,92.309C753.744,2608.73,707.102,2617.976,671.843,2598.187z"/>
			
				<linearGradient id="SVGID_00000072280864040211776950000006234231498244843392_" gradientUnits="userSpaceOnUse" x1="4824.626" y1="-1509.7035" x2="4850.2051" y2="-929.9118" gradientTransform="matrix(0.0929 0.9957 -0.9957 0.0929 -978.2262 -1929.0229)">
				<stop  offset="0" style="stop-color:#FDF53F"/>
				<stop  offset="1" style="stop-color:#D93C65"/>
			</linearGradient>
			<path style="fill:url(#SVGID_00000072280864040211776950000006234231498244843392_);" d="M600.251,2845.615
				c-41.24-23.145-53.55-71.482-27.496-107.965s80.607-47.296,121.846-24.152c41.24,23.144,53.55,71.482,27.495,107.965
				C696.043,2857.947,641.491,2868.76,600.251,2845.615z"/>
			
				<linearGradient id="SVGID_00000082358623785043533560000014716270313310966457_" gradientUnits="userSpaceOnUse" x1="4857.8457" y1="-1227.6251" x2="4740.6074" y2="-946.2543" gradientTransform="matrix(0.0929 0.9957 -0.9957 0.0929 -978.2262 -1929.0229)">
				<stop  offset="0" style="stop-color:#FDF53F"/>
				<stop  offset="1" style="stop-color:#D93C65"/>
			</linearGradient>
			<path style="fill:url(#SVGID_00000082358623785043533560000014716270313310966457_);" d="M605.914,2832.928
				c-34.169-19.176-44.369-59.227-22.781-89.455c21.587-30.228,66.787-39.187,100.956-20.011
				c34.169,19.176,44.369,59.227,22.782,89.455C685.282,2843.146,640.083,2852.105,605.914,2832.928z"/>
			
				<linearGradient id="SVGID_00000155826772842993899330000003985295719453719738_" gradientUnits="userSpaceOnUse" x1="5568.1392" y1="990.4799" x2="5121.8813" y2="831.7438" gradientTransform="matrix(0.489 0.8723 -0.8723 0.489 -1008.143 -1555.1271)">
				<stop  offset="0" style="stop-color:#B37CFF"/>
				<stop  offset="1" style="stop-color:#F895E7"/>
			</linearGradient>
			<path style="fill:url(#SVGID_00000155826772842993899330000003985295719453719738_);" d="M669.815,3069.724
				c-41.24-23.144-53.55-71.482-27.495-107.965c26.054-36.483,80.607-47.296,121.846-24.152
				c41.24,23.144,53.55,71.482,27.496,107.965C765.607,3082.055,711.055,3092.868,669.815,3069.724z"/>
			
				<linearGradient id="SVGID_00000147923992583571111370000012620340978760661662_" gradientUnits="userSpaceOnUse" x1="5081.9438" y1="725.8169" x2="5102.9092" y2="725.8169" gradientTransform="matrix(0.489 0.8723 -0.8723 0.489 -1008.143 -1555.1271)">
				<stop  offset="0" style="stop-color:#B37CFF"/>
				<stop  offset="1" style="stop-color:#F895E7"/>
			</linearGradient>
			<path style="fill:url(#SVGID_00000147923992583571111370000012620340978760661662_);" d="M671.189,3063.135
				c-37.959-21.304-49.291-65.797-25.309-99.378s74.195-43.534,112.155-22.231c37.959,21.304,49.291,65.797,25.309,99.378
				S709.149,3084.439,671.189,3063.135z"/>
			
				<linearGradient id="SVGID_00000116213398848283779750000008466384616253896639_" gradientUnits="userSpaceOnUse" x1="5819.3379" y1="-1300.4353" x2="5727.541" y2="-1022.8055" gradientTransform="matrix(0.0867 0.9962 -0.9962 0.0867 -687.202 -2586.3113)">
				<stop  offset="0" style="stop-color:#FDF53F"/>
				<stop  offset="1" style="stop-color:#D93C65"/>
			</linearGradient>
			<path style="fill:url(#SVGID_00000116213398848283779750000008466384616253896639_);" d="M900.168,3125.037
				c-41.24-23.145-53.55-71.482-27.496-107.965c26.054-36.483,80.607-47.296,121.846-24.152
				c41.24,23.144,53.55,71.482,27.495,107.965C995.96,3137.368,941.407,3148.181,900.168,3125.037z"/>
			
				<linearGradient id="SVGID_00000021839412540383108110000002829228151595845802_" gradientUnits="userSpaceOnUse" x1="5586.6099" y1="-1273.0144" x2="5916.8486" y2="-1022.6138" gradientTransform="matrix(0.0867 0.9962 -0.9962 0.0867 -687.202 -2586.3113)">
				<stop  offset="0" style="stop-color:#FDF53F"/>
				<stop  offset="1" style="stop-color:#D93C65"/>
			</linearGradient>
			<path style="fill:url(#SVGID_00000021839412540383108110000002829228151595845802_);" d="M903.292,3118.024
				c-37.333-20.952-48.477-64.711-24.891-97.738s72.971-42.816,110.304-21.864c37.333,20.952,48.477,64.711,24.891,97.738
				C990.01,3129.188,940.625,3138.977,903.292,3118.024z"/>
			
				<linearGradient id="SVGID_00000033347843360855068390000014487296101050012297_" gradientUnits="userSpaceOnUse" x1="4717.2798" y1="-1112.0323" x2="5523.0161" y2="-2295.0593" gradientTransform="matrix(0.0765 0.9971 -0.9971 0.0765 -690.4598 -2558.3276)">
				<stop  offset="0" style="stop-color:#FDF53F"/>
				<stop  offset="1" style="stop-color:#D93C65"/>
			</linearGradient>
			<path style="fill:url(#SVGID_00000033347843360855068390000014487296101050012297_);" d="M1292.318,2320.8l-105.073-89.272
				c-17.208-14.62-44.514-14.139-60.989,1.075l-24.494,22.619c-19.332,17.852-14.647,47.057,9.545,59.502l129.568,66.653
				c16.798,8.641,38.022,6.292,51.861-5.74h0C1310.082,2360.554,1309.894,2335.732,1292.318,2320.8z"/>
			
				<linearGradient id="SVGID_00000156586996383843046170000015913607831125160635_" gradientUnits="userSpaceOnUse" x1="4851.6309" y1="-1020.5188" x2="5657.3726" y2="-2203.5537" gradientTransform="matrix(0.0765 0.9971 -0.9971 0.0765 -690.4598 -2558.3276)">
				<stop  offset="0" style="stop-color:#FDF53F"/>
				<stop  offset="1" style="stop-color:#D93C65"/>
			</linearGradient>
			<path style="fill:url(#SVGID_00000156586996383843046170000015913607831125160635_);" d="M1224.638,2410.028l-144.049-48.457
				c-20.786-6.992-44.199,0.413-55.243,17.473l-27.998,43.249c-16.951,26.185,3.702,58.987,37.791,60.018l172.047,5.208
				c19.102,0.578,36.53-9.538,43.542-25.274v0C1259.984,2441.469,1248.243,2417.969,1224.638,2410.028z"/>
			
				<linearGradient id="SVGID_00000033353283393853947160000000943442364774038677_" gradientUnits="userSpaceOnUse" x1="4984.688" y1="-929.8901" x2="5790.4355" y2="-2112.9338" gradientTransform="matrix(0.0765 0.9971 -0.9971 0.0765 -690.4598 -2558.3276)">
				<stop  offset="0" style="stop-color:#FDF53F"/>
				<stop  offset="1" style="stop-color:#D93C65"/>
			</linearGradient>
			<path style="fill:url(#SVGID_00000033353283393853947160000000943442364774038677_);" d="M1248.584,2550.307
				c-6.358-9.827-15.793-17.923-29.934-15.958c-72.769,10.109-145.853,18.527-218.474,29.459c-9.768,1.47-20.946,2.242-30.083,5.65
				c1.113,39.578-2.143,80.368,1.739,119.785c0.188,19.21,24.591,30.421,42.396,19.479c39.166-21.236,75.53-46.148,113.086-69.477
				c40.15-24.94,80.603-49.507,120.901-74.258C1255.698,2560.391,1252.298,2556.047,1248.584,2550.307z"/>
			
				<linearGradient id="SVGID_00000144337053080117869440000004818347600584766614_" gradientUnits="userSpaceOnUse" x1="5016.1797" y1="-908.4182" x2="5821.9438" y2="-2091.4863" gradientTransform="matrix(0.0765 0.9971 -0.9971 0.0765 -690.4598 -2558.3276)">
				<stop  offset="0" style="stop-color:#FDF53F"/>
				<stop  offset="1" style="stop-color:#D93C65"/>
			</linearGradient>
			<path style="fill:url(#SVGID_00000144337053080117869440000004818347600584766614_);" d="M1274.486,2598.833
				c-43.409,36.719-165.334,132.631-226.455,180.534c-17.856,13.994-15.385,39.305,4.922,50.441l102.689,56.314
				c17.39,9.537,40.226,4.196,49.988-11.69l142.087-231.233c10.087-16.416,1.903-36.983-17.591-44.207l-17.331-6.422
				C1299.739,2587.731,1284.706,2590.188,1274.486,2598.833z"/>
		</g>
		<g>
			<g>
				
					<linearGradient id="SVGID_00000078764223898335845790000009667067272035177910_" gradientUnits="userSpaceOnUse" x1="1240.7272" y1="2700.3904" x2="2548.4473" y2="2938.7227" gradientTransform="matrix(0.9949 0.1008 -0.1008 0.9949 -135.1907 -68.8084)">
					<stop  offset="0" style="stop-color:#18459F"/>
					<stop  offset="0.9901" style="stop-color:#2874B5"/>
				</linearGradient>
				<path style="fill:url(#SVGID_00000078764223898335845790000009667067272035177910_);" d="M2277.524,2918.284
					c29.744,9.918,52.46,29.543,67.412,57.143c3.891,7.183,7.139,14.785,8.759,22.792c1.048,5.182,1.404,10.484,1.405,15.771
					c0.015,66.53-53.73,111.861-111.292,133.834c-76.507,29.205-153.002,20.291-232.28,17.583
					c-81.253-2.774-162.507-5.545-243.735-8.979c-70.694-2.988-141.399-6.302-212.01-10.897
					c-40.906-2.56-81.814-5.103-122.695-8.019c-39.116-2.79-82.008-1.674-120.188-10.495
					c17.341-34.227,21.325-85.852,24.943-124.095c2.717-28.716,3.86-57.536,4.949-86.339c0.507-13.419-4.906-64.48,6.012-71.415
					c3.701-2.351,9.39-2.905,15.728-2.6c11.553,0.557,25.261,3.972,33.009,4.578c20.151,1.576,40.288,3.332,60.411,5.235
					c40.258,3.807,80.458,8.212,120.615,12.971c158.34,18.766,320.751,34.977,472.498,85.089
					c6.07,2.042,79.734,22.935,79.434,21.246c-3.197-18.03,12.732-33.709,28.76-42.563
					C2194.918,2909.428,2238.88,2905.398,2277.524,2918.284z"/>
				
					<linearGradient id="SVGID_00000155860454851696856240000006063036210796710069_" gradientUnits="userSpaceOnUse" x1="2547.4116" y1="2664.5781" x2="2860.5793" y2="2995.3213" gradientTransform="matrix(0.9949 0.1008 -0.1008 0.9949 -135.1907 -68.8084)">
					<stop  offset="0" style="stop-color:#18459F"/>
					<stop  offset="0.9901" style="stop-color:#2874B5"/>
				</linearGradient>
				<path style="fill:url(#SVGID_00000155860454851696856240000006063036210796710069_);" d="M2351.602,3049.731
					c-5.427,13.407-11.553,30.446-23.93,39.108c1.847-2.302,2.625-5.261,3.263-8.143c4.943-22.354,4.223-47.433-0.986-69.713
					c-7.377-31.549-28.114-51.44-55.274-66.832c-16.405-9.298-34.628-16.096-53.476-16.656c-18.848-0.56-38.383,5.678-51.436,19.286
					c-10.109,10.539-17.353,32.387-4.995,43.748c11.095,10.199,38.615,14.578,50.124,2.318c1.403-1.498,3.276-3.254,5.196-2.529
					c1.354,3.085-0.244,6.649-2.188,9.401c-6.375,9.022-16.636,14.788-27.371,17.399c-15.692,3.818-34.175,4.53-46.611-6.744
					c-9.961-9.031-15.01-21.806-14.373-35.199c1.872-39.364,36.225-64.971,73.145-69.141c23.762-2.683,47.79,1.729,70.815,8.188
					c37.614,10.551,72.192,31.412,79.821,72.097c0.863,4.604,1.727,9.208,2.59,13.813
					C2359.121,3017.232,2358.149,3033.557,2351.602,3049.731z"/>
				
					<linearGradient id="SVGID_00000018212520048496785290000015102221345660436406_" gradientUnits="userSpaceOnUse" x1="1657.7712" y1="3043.2544" x2="1991.8998" y2="2475.2349">
					<stop  offset="0" style="stop-color:#CB236D"/>
					<stop  offset="1" style="stop-color:#4C246D"/>
				</linearGradient>
				<path style="fill:url(#SVGID_00000018212520048496785290000015102221345660436406_);" d="M1821.416,2948.562
					c-2.978-17.86-8.919-36.443-17.173-54.46c-75.098-11.576-150.841-19.88-225.676-28.749c-8.066-0.956-16.135-1.886-24.204-2.811
					c2.681,9.293,5.438,18.69,8.581,28.263c22.164,73.259,0.185,153.88-13.39,229.435c-1.65,8.501-3.775,16.647-6.287,24.508
					c4.172,0.261,8.344,0.523,12.516,0.784c70.61,4.595,141.316,7.909,212.009,10.897c10.781,0.456,21.564,0.873,32.346,1.307
					C1822.672,3091.165,1831.252,3019.78,1821.416,2948.562z"/>
			</g>
			<g>
				
					<linearGradient id="SVGID_00000033345761952195371790000014592350019640273087_" gradientUnits="userSpaceOnUse" x1="1833.2902" y1="2800.6416" x2="1523.2018" y2="3234.3728" gradientTransform="matrix(0.9949 0.1008 -0.1008 0.9949 -135.1907 -68.8084)">
					<stop  offset="0" style="stop-color:#53D8FF"/>
					<stop  offset="1" style="stop-color:#3840F7"/>
				</linearGradient>
				<path style="fill:url(#SVGID_00000033345761952195371790000014592350019640273087_);" d="M1358.31,2987.433
					c-8.033,79.259-25.537,142.396-39.097,141.022c-13.559-1.374-18.04-66.74-10.007-145.999s25.537-142.396,39.097-141.022
					C1361.863,2842.809,1366.343,2908.175,1358.31,2987.433z"/>
				<g>
					
						<linearGradient id="SVGID_00000060014023720673554800000015529513308217199499_" gradientUnits="userSpaceOnUse" x1="1730.7286" y1="2822.9712" x2="1599.8296" y2="3030.1377" gradientTransform="matrix(0.9949 0.1008 -0.1008 0.9949 -135.1907 -68.8084)">
						<stop  offset="0" style="stop-color:#2B3582"/>
						<stop  offset="1" style="stop-color:#150E42"/>
					</linearGradient>
					<path style="fill:url(#SVGID_00000060014023720673554800000015529513308217199499_);" d="M1263.183,2977.689
						c-2.833,27.958-9.586,50.17-15.082,49.613c-5.496-0.557-7.654-23.673-4.821-51.63c2.833-27.957,9.586-50.17,15.082-49.613
						S1266.017,2949.731,1263.183,2977.689z"/>
					
						<linearGradient id="SVGID_00000009589627255672992140000010548202463415772548_" gradientUnits="userSpaceOnUse" x1="1051.3489" y1="3364.3196" x2="1499.0804" y2="2655.9688">
						<stop  offset="0" style="stop-color:#CB236D"/>
						<stop  offset="1" style="stop-color:#4C246D"/>
					</linearGradient>
					<path style="fill:url(#SVGID_00000009589627255672992140000010548202463415772548_);" d="M1175.792,2914.33
						c-9.54,1.206-18.611,3.203-26.725,5.855c-34.654,11.328-69.788,30.042-86.086,62.655
						c-7.755,15.518-10.587,32.935-14.809,49.769c-7.974,31.248-8.74,62.8-40.355,76.181
						c-37.414,15.836-76.755,28.174-114.901,42.176c-21.655,7.948-35.696,38.766-30.432,61.114
						c7.952,33.76,43.762,27.577,69.885,27.426c61.69-0.357,123.461-1.213,184.885,2.431c15.147,0.899,30.338,1.798,45.483,0.868
						c20.345-1.25,40.338-5.781,60.577-8.198c49.908-5.958,100.325,1.012,150.55,2.939c22.917,0.879,47.475,0.234,66.339-12.808
						c5.759-3.982,11.237-10.941,8.503-17.386c-1.196-2.818-3.738-4.807-6.245-6.565c-46.668-32.717-109.233-26.635-164.561-40.313
						c-13.614-3.365-27.242-8.166-38.028-17.128c-18.8-15.623-25.879-40.913-31.967-64.586c-2.754-10.708-5.528-21.79-3.756-32.704
						c6.809-41.93,53.071-18.982,74.894-41.468c15.208-15.67,10.453-51.514-4.628-65.978
						C1250.779,2915.939,1210.233,2909.978,1175.792,2914.33z"/>
					
						<linearGradient id="SVGID_00000153698190543012019890000017974527286101294220_" gradientUnits="userSpaceOnUse" x1="1781.7084" y1="2795.7451" x2="1598.6954" y2="3085.3896" gradientTransform="matrix(0.9949 0.1008 -0.1008 0.9949 -135.1907 -68.8084)">
						<stop  offset="0" style="stop-color:#53D8FF"/>
						<stop  offset="1" style="stop-color:#3840F7"/>
					</linearGradient>
					<path style="fill:url(#SVGID_00000153698190543012019890000017974527286101294220_);" d="M1326.197,2933.141l-65.866-6.676
						c9.507,32.662,4.528,66.465-10.24,101.038l63.101,6.395C1329.608,3001.538,1333.943,2967.951,1326.197,2933.141z"/>
				</g>
				
					<linearGradient id="SVGID_00000095300770627875926440000008411607192426851208_" gradientUnits="userSpaceOnUse" x1="1700.634" y1="2890.4077" x2="1551.6228" y2="2851.3911" gradientTransform="matrix(0.9949 0.1008 -0.1008 0.9949 -135.1907 -68.8084)">
					<stop  offset="0" style="stop-color:#53D8FF"/>
					<stop  offset="1" style="stop-color:#3840F7"/>
				</linearGradient>
				<path style="fill:url(#SVGID_00000095300770627875926440000008411607192426851208_);" d="M1258.363,2926.058
					c9.562,32.282,7.297,65.899-10.261,101.243l21.666,2.196c13.844-32.645,17.236-66.396,10.261-101.243L1258.363,2926.058z"/>
			</g>
		</g>
	</g>
</g>
</svg>
