<?xml version="1.0" encoding="utf-8"?>
<!-- Generator: Adobe Illustrator 27.5.0, SVG Export Plug-In . SVG Version: 6.00 Build 0)  -->
<svg version="1.1" xmlns="http://www.w3.org/2000/svg" xmlns:xlink="http://www.w3.org/1999/xlink" x="0px" y="0px"
	 viewBox="0 0 3710 3710" style="enable-background:new 0 0 3710 3710;" xml:space="preserve">
<g id="Background">
	<g>
		<g>
			<rect style="fill:#FFFFFF;" width="3710" height="3710"/>
		</g>
	</g>
</g>
<g id="Illustration">
	<g>
		<linearGradient id="SVGID_1_" gradientUnits="userSpaceOnUse" x1="3613.5991" y1="4050.1777" x2="1167.5366" y2="1012.3216">
			<stop  offset="0" style="stop-color:#B37CFF"/>
			<stop  offset="1" style="stop-color:#F895E7"/>
		</linearGradient>
		<path style="opacity:0.3;fill:url(#SVGID_1_);" d="M2940.672,2852.157c-56.185,59.149-109.347,97.294-151.349,127.431
			c-493.727,354.254-1077.936,250.991-1202.097,225.773c-183.347-37.239-537.752-109.22-793.981-410.54
			c-387.653-455.872-327.289-1174.085-26.6-1648.187c55.001-86.721,345.531-568.045,936.033-645.235
			c357.365-46.714,773.939,47.503,1075.609,300.243C3411.521,1332.167,3366.442,2403.92,2940.672,2852.157z"/>
		<g>
			
				<linearGradient id="SVGID_00000108291340305867054240000004789589536466732684_" gradientUnits="userSpaceOnUse" x1="6438.8057" y1="983.558" x2="8249.3721" y2="983.558" gradientTransform="matrix(0.9241 0.3823 -0.3823 0.9241 -5471.54 -1929.6399)">
				<stop  offset="0" style="stop-color:#A737D5"/>
				<stop  offset="1" style="stop-color:#EF497A"/>
			</linearGradient>
			<path style="fill:url(#SVGID_00000108291340305867054240000004789589536466732684_);" d="M504.09,478.956
				c-4.484-19.087,22.366-31.775,38.808-18.442c166.958,135.386,568.11,540.808,468.135,1249.311
				c-125.433,888.923,89.01,1213.284,355.939,1411.137c0,0-366.582-93.043-597.218-422.176
				C203.49,1890.687,583.816,818.335,504.09,478.956z"/>
			<path style="fill:#FFFFFF;" d="M631.148,756.602c20.886,98.959,39.502,198.221,53.888,297.93
				c14.989,99.625,26.475,199.598,34.335,299.735c7.415,100.155,12.652,200.415,12.95,300.718
				c0.82,100.297-3.35,200.512-7.944,301.117c-3.941,100.569-8.573,201.863-1.211,303.875
				c7.24,101.803,28.669,204.497,71.193,300.764c10.63,23.992,21.808,47.911,34.507,71.022
				c12.208,23.324,25.615,46.188,39.491,68.835c28.019,45.185,59.559,88.842,94.707,130.279
				c70.55,82.733,155.637,156.124,249.372,218.236c9.866,6.537,24,4.93,31.572-3.589c7.434-8.364,5.774-20.285-3.63-26.903
				l-0.066-0.047c-22.303-15.664-44.372-31.53-65.544-48.19c-10.743-8.186-21.043-16.766-31.525-25.175
				c-10.1-8.741-20.599-17.147-30.375-26.149c-39.802-35.426-76.676-73.222-110.129-113.185
				c-67.29-79.556-121.158-168.207-161.969-260.111c-19.81-46.165-35.648-93.51-47.21-141.744
				c-11.521-48.246-18.768-97.331-22.775-146.81c-8.026-99.014-4.401-199.306-1.297-299.893
				c2.953-100.613,5.12-201.737,2.465-302.78c-1.169-50.518-3.39-101.012-6.657-151.447c-1.465-25.224-3.496-50.419-5.473-75.613
				c-2.258-25.178-4.676-50.342-7.332-75.483c-10.838-100.554-25.224-200.774-43.256-300.461
				c-18.585-99.612-40.226-198.765-66.254-297.03c-0.745-2.81-3.983-4.565-7.235-3.922
				C632.585,751.206,630.578,753.877,631.148,756.602z"/>
		</g>
		<g>
			<g>
				
					<linearGradient id="SVGID_00000148659939650725053580000017969319487273293972_" gradientUnits="userSpaceOnUse" x1="-2879.0034" y1="3820.4424" x2="-763.098" y2="3820.4424" gradientTransform="matrix(0.3723 -0.9282 0.9282 0.3723 -1838.0726 -1408.3268)">
					<stop  offset="0" style="stop-color:#CE1567"/>
					<stop  offset="1" style="stop-color:#7A1DBC"/>
				</linearGradient>
				<path style="fill:url(#SVGID_00000148659939650725053580000017969319487273293972_);" d="M1211.909,2866.296
					c-15.96,32.677-60.105,38.434-84.268,11.257c-133.332-149.953-471.966-608.015-360.523-1291.69
					c94.109-577.332,90.274-899.328,78.405-1045.382c-2.51-30.884,35.867-47.022,56.228-23.664
					C1126.391,774.515,1790.222,1682.244,1211.909,2866.296z"/>
				<path style="fill:#FFFFFF;" d="M1162.92,2861.331c-0.8,0.415-1.649,0.759-2.548,1.021c-7.522,2.213-15.415-2.09-17.628-9.612
					c-2.509-8.528-249.79-862.027-155.202-1670.68c0.913-7.781,7.962-13.358,15.754-12.454c7.789,0.914,13.362,7.964,12.454,15.755
					c-93.902,802.766,151.743,1650.893,154.234,1659.364C1171.936,2851.351,1168.83,2858.263,1162.92,2861.331z"/>
			</g>
		</g>
		<g>
			<g>
				
					<linearGradient id="SVGID_00000111166064139142151130000009682415676813137831_" gradientUnits="userSpaceOnUse" x1="1125.1781" y1="1819.5259" x2="2944.468" y2="1819.5259">
					<stop  offset="0" style="stop-color:#2B3582"/>
					<stop  offset="1" style="stop-color:#150E42"/>
				</linearGradient>
				<path style="fill:url(#SVGID_00000111166064139142151130000009682415676813137831_);" d="M1158.516,599.662
					c-10.731,432.84-45.531,1925.869-28.918,2454.954c1.76,56.052,46.693,101.04,102.743,102.875
					c277.222,9.072,1074.71,32.066,1528.151,13.042c94.445-3.962,169.549-80.463,171.51-174.97
					c9.423-454.321,30.211-1732.155-19.201-2317.531c-5.92-70.137-60.97-125.99-131.006-132.996
					c-301.907-30.202-1103.766-104.028-1495.51-78.606C1215.632,471.013,1160.27,528.884,1158.516,599.662z"/>
				
					<linearGradient id="SVGID_00000026142450895548235020000000442398170689911462_" gradientUnits="userSpaceOnUse" x1="2615.6238" y1="931.727" x2="282.0948" y2="4082.6873">
					<stop  offset="0" style="stop-color:#53D8FF"/>
					<stop  offset="1" style="stop-color:#3840F7"/>
				</linearGradient>
				<path style="fill:url(#SVGID_00000026142450895548235020000000442398170689911462_);" d="M1271.159,734.155
					c-15.142,354.493-62.899,1533.808-47.741,1969.895c2.215,63.74,52.453,115.279,116.123,119.004
					c262.147,15.341,934.53,49.167,1319.036,18.376c69.236-5.543,123.567-61.537,127.304-130.895
					c19.485-361.657,75.432-1459.765,60.902-1890.964c-2.318-68.788-55.604-124.966-124.155-131.121
					c-283.601-25.463-1011.985-86.049-1338.727-68.221C1322.565,623.575,1273.781,672.784,1271.159,734.155z"/>
				<path style="opacity:0.3;fill:#FFFFFF;" d="M1369.219,876.316c-13.128,307.352-54.535,1329.84-41.392,1707.935
					c1.921,55.264,45.477,99.948,100.68,103.179c227.286,13.301,810.255,42.629,1143.628,15.933
					c60.029-4.806,107.135-53.354,110.375-113.488c16.894-313.564,65.401-1265.643,52.803-1639.501
					c-2.01-59.64-48.209-108.348-107.645-113.685c-245.887-22.077-877.41-74.606-1160.701-59.149
					C1413.789,780.441,1371.492,823.106,1369.219,876.316z"/>
				<path style="opacity:0.5;fill:#3F67F9;" d="M1843.64,542.06L1843.64,542.06c0,13.282,10.35,24.235,23.613,24.93
					c65.478,3.429,249.931,13.132,332.365,17.915c16.253,0.943,29.01-13.667,25.928-29.653l-0.527-2.728
					c-2.104-10.909-11.15-19.119-22.213-20.132c-55.721-5.106-223.858-19.263-335.259-15.287
					C1854.165,517.582,1843.64,528.67,1843.64,542.06z"/>
			</g>
		</g>
		<g>
			<defs>
				<path id="SVGID_00000075882673371696488500000005449424078796943500_" d="M1145.95,696.609
					c-20.072,337.029-83.38,1458.244-63.286,1872.846c2.937,60.6,69.531,109.599,153.933,113.141
					c347.504,14.585,1238.82,46.745,1748.524,17.471c91.78-5.271,163.802-58.505,168.755-124.446
					c25.83-343.84,99.994-1387.849,80.732-1797.804c-3.073-65.399-73.708-118.81-164.581-124.662
					c-375.944-24.208-1341.495-81.81-1774.626-64.861C1214.094,591.477,1149.425,638.262,1145.95,696.609z"/>
			</defs>
			<clipPath id="SVGID_00000175306404515947921050000015996680589295533445_">
				<use xlink:href="#SVGID_00000075882673371696488500000005449424078796943500_"  style="overflow:visible;"/>
			</clipPath>
			<g style="clip-path:url(#SVGID_00000175306404515947921050000015996680589295533445_);">
				
					<linearGradient id="SVGID_00000050643870434973948730000003446335720071849400_" gradientUnits="userSpaceOnUse" x1="-2413.1545" y1="7133.1274" x2="-3126.1758" y2="7874.6694" gradientTransform="matrix(0.5896 -0.7263 0.7286 0.5914 -524.2655 -18.9522)">
					<stop  offset="0" style="stop-color:#F9B776"/>
					<stop  offset="1" style="stop-color:#F47960"/>
				</linearGradient>
				<path style="fill:url(#SVGID_00000050643870434973948730000003446335720071849400_);" d="M2424.753,1438.307
					c66.128,21.921,133.207,47.688,197.966,69.439c32.531,10.737,64.683,20.943,95.388,28.865
					c15.356,3.865,30.223,6.485,43.754,8.798c13.442,2.233,25.874,2.548,31.886,2.337c1.011-0.18-0.229,2.161-0.742,2.862
					c-0.281,0.448,12.702-11.159,16.715-14.698l12.891-16.076c17.433-23.893,34.464-53.16,50.534-83.335
					c32.831-60.527,63.384-126.366,98.485-190.94l0.271-0.495c6.716-12.357,22.199-16.902,34.584-10.152
					c8.167,4.451,12.943,12.746,13.326,21.392c1.61,38.834-1.447,76.13-5.667,113.966c-2.484,18.749-5.297,37.598-8.583,56.412
					c-3.968,18.681-7.909,37.444-12.781,56.303c-10.374,37.508-22.446,75.158-42.031,113.916
					c-5.577,9.84-10.989,19.623-17.023,29.504c-7.764,10.275-14.241,20.07-23.736,30.468c-5.281,5.329-10.723,10.574-16.284,15.693
					c-3.06,2.653-4.967,4.881-9.051,7.791c-4.431,3.009-8.997,5.891-13.648,8.609c-9.588,5.792-17.447,8.186-26.55,11.822
					c-8.13,2.556-16.031,4.491-23.905,6.193c-30.014,5.52-54.366,4.306-77.034,2.259c-22.632-2.063-43.636-6.187-63.702-10.872
					c-40.126-9.294-77.492-21.452-113.381-35.837c-72.079-28.626-138.455-62.258-202.617-105.796
					c-30.733-20.855-38.803-62.608-18.027-93.259c17.195-25.369,48.763-35.18,76.557-25.984L2424.753,1438.307z"/>
				
					<linearGradient id="SVGID_00000003089697918377260530000000060537310138939813_" gradientUnits="userSpaceOnUse" x1="-3821.5549" y1="-972.063" x2="-2881.5798" y2="-73.5583" gradientTransform="matrix(-1 0 0 1 732.8633 0)">
					<stop  offset="0" style="stop-color:#2B3582"/>
					<stop  offset="1" style="stop-color:#150E42"/>
				</linearGradient>
				<path style="fill:url(#SVGID_00000003089697918377260530000000060537310138939813_);" d="M2262.604,834.101
					c0,0-157.176,42.642-198.908,118.01c-33.483,60.47-194.154,38.556-233.976,162.433
					c-20.561,63.955-78.999,107.204-146.137,104.807c-167.22-5.975-433.654,30.814-527.328,305.313
					c-71.5,209.519,22.76,312.027,132.59,362.181c80.668,36.837,121.26,129.822,87.914,211.995
					c-31.987,78.814-25.507,178.185,102.208,280.062c286.194,228.292,711.321-276.831,711.321-276.831l252.733-975.006
					L2262.604,834.101z"/>
				
					<linearGradient id="SVGID_00000114752962144865425480000014001237202057148552_" gradientUnits="userSpaceOnUse" x1="-7184.54" y1="4514.6724" x2="-6932.4478" y2="1568.3408" gradientTransform="matrix(-1 0 0 1 -4817.7368 0)">
					<stop  offset="0" style="stop-color:#F9B776"/>
					<stop  offset="1" style="stop-color:#F47960"/>
				</linearGradient>
				<path style="fill:url(#SVGID_00000114752962144865425480000014001237202057148552_);" d="M2171.626,3433.63h114.324
					c18.323-232.818,46.606-519.313,46.606-519.313l-15.337-90.216l-107.426,73.639l-46.946,88.196
					c-16.143,30.326-23.207,64.662-20.349,98.897L2171.626,3433.63z"/>
				
					<linearGradient id="SVGID_00000011717122204020247600000004266152091816544646_" gradientUnits="userSpaceOnUse" x1="-6741.4409" y1="4553.0405" x2="-6489.2817" y2="1605.9292" gradientTransform="matrix(-1 0 0 1 -4817.7368 0)">
					<stop  offset="0" style="stop-color:#F9B776"/>
					<stop  offset="1" style="stop-color:#F47960"/>
				</linearGradient>
				<path style="fill:url(#SVGID_00000011717122204020247600000004266152091816544646_);" d="M1717.736,3433.63
					c102.792-214.199,288.612-566.681,288.612-566.681c-68.691-84.359-154.822,0-154.822,0
					c-125.468,95.966-158.035,200.153-186.848,296.199c-16.637,55.46-41.184,171.001-63.66,270.482H1717.736z"/>
				
					<linearGradient id="SVGID_00000148652200496906653090000012323715511572564375_" gradientUnits="userSpaceOnUse" x1="-1606.4456" y1="1549.6223" x2="-1481.5319" y2="2708.5518" gradientTransform="matrix(-1 0 0 1 732.8633 0)">
					<stop  offset="0" style="stop-color:#FDF53F"/>
					<stop  offset="0.6645" style="stop-color:#E57A58"/>
					<stop  offset="1" style="stop-color:#D93C65"/>
				</linearGradient>
				<path style="fill:url(#SVGID_00000148652200496906653090000012323715511572564375_);" d="M2077.412,1417.376
					c96.761-92.877,255.553-146.28,320.759-165.286c18.527-5.399,38.529-1.296,53.455,10.938
					c55.535,45.514,186.232,164.57,165.994,262.192c-14.997,72.342-151.61,433.308-151.61,433.308s-126.326,59.784-269.591-26.262
					C2274.031,1603.386,2077.412,1417.376,2077.412,1417.376z"/>
				
					<linearGradient id="SVGID_00000043422122322133318860000008961588442282384826_" gradientUnits="userSpaceOnUse" x1="3442.0461" y1="3633.0522" x2="4436.6582" y2="2306.9031" gradientTransform="matrix(1 0 0 1 -2115.1367 0)">
					<stop  offset="0" style="stop-color:#CB236D"/>
					<stop  offset="1" style="stop-color:#4C246D"/>
				</linearGradient>
				<path style="fill:url(#SVGID_00000043422122322133318860000008961588442282384826_);" d="M2024.337,2094.581
					c31.587-95.155,172.081-162.819,172.081-162.819c143.266,86.046,269.591,26.262,269.591,26.262s28.33,108.286,8.777,208.919
					c-19.553,100.633-142.23,747.374-142.23,747.374c-193.296,39.165-490.582-39.406-490.582-39.406
					C1965.096,2656.317,1992.752,2189.737,2024.337,2094.581z"/>
				
					<linearGradient id="SVGID_00000039846017047654626380000011578815700610413467_" gradientUnits="userSpaceOnUse" x1="-7191.3364" y1="1612.2499" x2="-7143.9814" y2="1265.8131" gradientTransform="matrix(-1 0 0 1 -4817.7368 0)">
					<stop  offset="0" style="stop-color:#F9B776"/>
					<stop  offset="1" style="stop-color:#F47960"/>
				</linearGradient>
				<path style="fill:url(#SVGID_00000039846017047654626380000011578815700610413467_);" d="M2286.508,1026.265l-63.102,283.439
					c-6.041,24.966,16.719,20.879,41.961,16.121c41.334-7.792,94.612-23.844,112.421-56.009c1.812-3.273,2.718-6.972,3.229-10.682
					l27.11-196.542c2.152-15.592-6.278-30.726-20.668-37.107l-52.312-23.196C2315.003,993.356,2291.69,1004.85,2286.508,1026.265z"
					/>
				
					<linearGradient id="SVGID_00000060009457210262027270000009189571430657102996_" gradientUnits="userSpaceOnUse" x1="-7069.4507" y1="-591.4556" x2="-6656.2656" y2="-1326.7861" gradientTransform="matrix(-0.9274 -0.374 -0.374 0.9274 -4381.2827 -808.2329)">
					<stop  offset="0" style="stop-color:#F9B776"/>
					<stop  offset="1" style="stop-color:#F47960"/>
				</linearGradient>
				<path style="fill:url(#SVGID_00000060009457210262027270000009189571430657102996_);" d="M2426.212,858.141
					c0,0,57.509,57.216,64.248,176.375c6.74,119.16-47.102,151.211-93.868,139.733c-46.767-11.477-112.488-39.103-156.324-132.001
					C2196.431,949.352,2350.103,787.116,2426.212,858.141z"/>
				
					<linearGradient id="SVGID_00000062890186554624123480000010231495130394806677_" gradientUnits="userSpaceOnUse" x1="-3640.759" y1="-1063.1686" x2="-2709.7153" y2="-173.2013" gradientTransform="matrix(-1 0 0 1 732.8633 0)">
					<stop  offset="0" style="stop-color:#2B3582"/>
					<stop  offset="1" style="stop-color:#150E42"/>
				</linearGradient>
				<path style="fill:url(#SVGID_00000062890186554624123480000010231495130394806677_);" d="M2308.836,1007.733
					c0,0,6.798-167.617,137.408-116.962l21.954,33.694c0,0,80.427-62.02,17.831-132.35c-62.598-70.329-167.081-75.219-242.88,16.759
					c-75.799,91.978-121.027,166.72-74.881,233.008c59.109,84.909,88.519-28.278,88.519-28.278s-18.723-6.263,3.734-26.546
					c22.456-20.283,38.498,21.592,38.498,21.592L2308.836,1007.733z"/>
				
					<linearGradient id="SVGID_00000178916341073914992740000010365013102796333237_" gradientUnits="userSpaceOnUse" x1="-6995.1841" y1="-539.8683" x2="-6582.0063" y2="-1275.1858" gradientTransform="matrix(-0.9274 -0.374 -0.374 0.9274 -4381.2827 -808.2329)">
					<stop  offset="0" style="stop-color:#F9B776"/>
					<stop  offset="1" style="stop-color:#F47960"/>
				</linearGradient>
				<path style="fill:url(#SVGID_00000178916341073914992740000010365013102796333237_);" d="M2299.567,1025.309
					c0,0,4-86.143-43.392-70.305s0.548,81.283,20.399,104.222L2299.567,1025.309z"/>
				
					<linearGradient id="SVGID_00000137132989980047251230000003040303880343523211_" gradientUnits="userSpaceOnUse" x1="5067.9849" y1="1860.0955" x2="5873.3247" y2="1860.0955" gradientTransform="matrix(1 0 0 1 -3652.3032 0)">
					<stop  offset="0" style="stop-color:#F9B776"/>
					<stop  offset="1" style="stop-color:#F47960"/>
				</linearGradient>
				<path style="fill:url(#SVGID_00000137132989980047251230000003040303880343523211_);" d="M2083.501,1416.63
					c0,0-334.521,686.838-455.668,746.881c0,0-123.003,12.851-198.279,35.619c-18.936,5.728-18.302,32.618,0.785,37.824
					c52.422,14.298,139.276,26.246,218.874-16.963c0,0-42.759,64.093-17.815,89.056c0,0,57.01-67.678,78.39-89.056
					c18.82-18.824,361.391-392.3,505.412-617.54c11.636-18.198,3.562-72.281-4.521-92.311
					C2192.076,1464.04,2150.799,1390.442,2083.501,1416.63z"/>
				
					<linearGradient id="SVGID_00000027594678263609782790000009462399318286574751_" gradientUnits="userSpaceOnUse" x1="-3258.5671" y1="8419.5078" x2="-3971.5144" y2="9160.9727" gradientTransform="matrix(-0.6303 0.7764 0.7764 0.6303 1382.9408 -2184.1118)">
					<stop  offset="0" style="stop-color:#F9B776"/>
					<stop  offset="1" style="stop-color:#F47960"/>
				</linearGradient>
				<path style="fill:url(#SVGID_00000027594678263609782790000009462399318286574751_);" d="M2986.911,1277.029
					c0,0-37.859-22.82-9.645-77.073c28.214-54.253,31.915-118.513,45.329-107.624c13.414,10.889,12.755,36.072,12.755,36.072
					s104.312-74.883,107.468-56.838c3.156,18.046,33.78,21.143,26.141,57.971
					C3161.319,1166.367,3026.927,1291.708,2986.911,1277.029z"/>
				<g>
					<g>
						<path style="fill:#FFFFFF;" d="M1438.633,2046.872c0.72,0,1.449-0.225,2.07-0.693c14.345-10.759,39.635-47.641,36.008-88.073
							c-2.079-23.193-14.904-56.02-64.183-80.724c-15.268-7.655-31.261-13.36-46.727-18.883
							c-27.553-9.836-53.576-19.124-76.225-38.555c-33.448-28.696-50.912-70.019-63.584-106.653
							c-20.078-58.045-17.685-155.451,5.22-212.699c68.863-172.097,337.262-201.108,497.623-218.442l2.007-0.216
							c110.969-12.001,133.419-68.517,161.841-140.065l3.803-9.545c29.663-74.151,131.529-92.731,132.555-92.906
							c1.88-0.328,3.136-2.12,2.812-4c-0.333-1.882-2.128-3.101-4-2.813c-4.342,0.761-106.703,19.458-137.784,97.154l-3.806,9.558
							c-28.642,72.099-49.338,124.194-156.167,135.741l-2.003,0.22c-161.908,17.5-432.891,46.791-503.297,222.748
							c-23.427,58.544-25.87,158.155-5.337,217.523c12.978,37.511,30.92,79.87,65.619,109.642
							c23.62,20.263,51.47,30.203,78.403,39.815c15.268,5.454,31.059,11.088,45.953,18.558
							c37.278,18.684,57.599,43.974,60.394,75.158c3.384,37.723-20.003,71.976-33.272,81.931c-1.526,1.143-1.836,3.307-0.689,4.838
							C1436.541,2046.395,1437.58,2046.872,1438.633,2046.872z"/>
					</g>
					<g>
						<path style="fill:#FFFFFF;" d="M2474.536,888.43c1.066,0,2.115-0.491,2.79-1.413c39.568-53.954-24.236-103.373-24.889-103.869
							c-1.512-1.143-3.685-0.85-4.838,0.662c-1.156,1.521-0.859,3.69,0.657,4.842c2.43,1.85,59.039,45.814,23.499,94.279
							c-1.129,1.539-0.796,3.699,0.743,4.829C2473.114,888.214,2473.829,888.43,2474.536,888.43z"/>
					</g>
				</g>
			</g>
		</g>
		<g>
			<g>
				<g>
					
						<linearGradient id="SVGID_00000142145631054123270670000011972020855830807427_" gradientUnits="userSpaceOnUse" x1="1103.6334" y1="741.8303" x2="100.4896" y2="2087.2249">
						<stop  offset="0" style="stop-color:#FDF53F"/>
						<stop  offset="0.6645" style="stop-color:#E57A58"/>
						<stop  offset="1" style="stop-color:#D93C65"/>
					</linearGradient>
					
						<circle style="fill:url(#SVGID_00000142145631054123270670000011972020855830807427_);" cx="1070.281" cy="786.562" r="238.465"/>
					<g>
						<path style="fill:#FFFFFF;" d="M880.182,692.972c-0.329,0-0.664-0.074-0.978-0.234c-1.073-0.542-1.503-1.85-0.961-2.921
							c36.814-72.935,110.399-118.242,192.038-118.242c13.025,0,26.073,1.175,38.782,3.49c1.182,0.215,1.966,1.347,1.75,2.53
							c-0.216,1.181-1.349,1.976-2.53,1.748c-12.452-2.269-25.238-3.418-38.002-3.418c-79.988,0-152.084,44.392-188.155,115.85
							C881.744,692.534,880.978,692.972,880.182,692.972z"/>
					</g>
					
						<linearGradient id="SVGID_00000058583478968341357250000009763603928080927931_" gradientUnits="userSpaceOnUse" x1="1313.0432" y1="290.564" x2="837.042" y2="1293.7072">
						<stop  offset="0" style="stop-color:#FDF53F"/>
						<stop  offset="0.6645" style="stop-color:#E57A58"/>
						<stop  offset="1" style="stop-color:#D93C65"/>
					</linearGradient>
					
						<circle style="fill:url(#SVGID_00000058583478968341357250000009763603928080927931_);" cx="1075.304" cy="791.585" r="195.12"/>
				</g>
				<g>
					<path style="fill:#FFFFFF;" d="M986.537,751.272L986.537,751.272c6.813-19.426,23.833-33.372,43.945-33.613
						c26.557-0.319,48.363,23.327,48.363,52.819c0-29.492,22.06-53.665,49.627-53.997c21.409-0.257,39.899,13.909,47.398,34.206
						l0.001,0c28.738,73.255-97.026,137.53-97.026,137.53S960.896,820.138,986.537,751.272z"/>
				</g>
			</g>
			<g>
				<g>
					
						<linearGradient id="SVGID_00000021803100621801710580000007503101876437487256_" gradientUnits="userSpaceOnUse" x1="889.8619" y1="1223.8323" x2="-43.7734" y2="2476.0032">
						<stop  offset="0" style="stop-color:#53D8FF"/>
						<stop  offset="1" style="stop-color:#3840F7"/>
					</linearGradient>
					
						<circle style="fill:url(#SVGID_00000021803100621801710580000007503101876437487256_);" cx="858.82" cy="1265.464" r="221.942"/>
					<g>
						<path style="fill:#FFFFFF;" d="M681.894,1178.359c-0.307,0-0.618-0.069-0.91-0.217c-0.998-0.504-1.399-1.722-0.895-2.718
							c34.264-67.881,102.749-110.048,178.732-110.048c12.122,0,24.266,1.093,36.094,3.248c1.1,0.2,1.83,1.253,1.629,2.355
							c-0.201,1.099-1.255,1.839-2.355,1.627c-11.589-2.112-23.489-3.181-35.369-3.181c-74.445,0-141.546,41.316-175.118,107.822
							C683.347,1177.952,682.634,1178.359,681.894,1178.359z"/>
					</g>
					
						<linearGradient id="SVGID_00000111883407932275591720000000739818621257840043_" gradientUnits="userSpaceOnUse" x1="1084.7615" y1="803.8345" x2="641.7427" y2="1737.4691">
						<stop  offset="0" style="stop-color:#53D8FF"/>
						<stop  offset="1" style="stop-color:#3840F7"/>
					</linearGradient>
					
						<circle style="fill:url(#SVGID_00000111883407932275591720000000739818621257840043_);" cx="863.496" cy="1270.139" r="181.6"/>
				</g>
				<g>
					<path style="fill:#FFFFFF;" d="M911.522,1195.939c0,27.175-22.03,56.512-49.205,56.512s-49.205-29.337-49.205-56.512
						c0-27.175,22.03-46.454,49.205-46.454S911.522,1168.764,911.522,1195.939z"/>
					<path style="fill:#FFFFFF;" d="M801.254,1357.078h120.117c12.644,0,23.839-8.172,27.692-20.215l6.464-20.202
						c4.732-14.792-2.962-30.806-17.548-36.139c-48.884-17.873-99.43-15.58-151.211,1.65c-14.506,4.827-22.555,20.342-18.553,35.097
						l4.977,18.347C776.629,1348.284,788.128,1357.078,801.254,1357.078z"/>
				</g>
			</g>
			<g>
				<g>
					
						<linearGradient id="SVGID_00000155860261389304014900000007677567930980233603_" gradientUnits="userSpaceOnUse" x1="1734.3506" y1="445.363" x2="1247.8987" y2="1345.6603">
						<stop  offset="0" style="stop-color:#A737D5"/>
						<stop  offset="1" style="stop-color:#EF497A"/>
					</linearGradient>
					
						<circle style="fill:url(#SVGID_00000155860261389304014900000007677567930980233603_);" cx="1583.751" cy="724.084" r="229.243"/>
					<g>
						<path style="fill:#FFFFFF;" d="M1401.004,634.113c-0.317,0-0.638-0.072-0.94-0.225c-1.031-0.521-1.445-1.779-0.924-2.808
							c35.391-70.114,106.13-113.669,184.612-113.669c12.521,0,25.064,1.129,37.282,3.355c1.136,0.206,1.89,1.295,1.683,2.432
							c-0.207,1.135-1.297,1.899-2.432,1.681c-11.97-2.181-24.262-3.286-36.532-3.286c-76.895,0-146.203,42.675-180.879,111.37
							C1402.505,633.692,1401.769,634.113,1401.004,634.113z"/>
					</g>
					
						<linearGradient id="SVGID_00000106106571467216365910000015332580253964886462_" gradientUnits="userSpaceOnUse" x1="1817.1254" y1="247.267" x2="1359.5319" y2="1211.6169">
						<stop  offset="0" style="stop-color:#B37CFF"/>
						<stop  offset="1" style="stop-color:#F895E7"/>
					</linearGradient>
					
						<circle style="fill:url(#SVGID_00000106106571467216365910000015332580253964886462_);" cx="1588.58" cy="728.912" r="187.574"/>
				</g>
				<g>
					<path style="fill:#FFFFFF;" d="M1550.431,668.461c0-4.293-3.48-7.774-7.774-7.774h-27.214c-4.293,0-7.774,3.48-7.774,7.774
						V792.6c0,4.293,3.48,7.774,7.774,7.774h27.214c4.293,0,7.774-3.48,7.774-7.774V668.461z"/>
					<path style="fill:#FFFFFF;" d="M1646.944,660.687h-28.095v-33.419c0-10.78-5.689-17.894-16.469-17.894h-0.691
						c-10.782,0-19.521,7.927-19.521,18.707l-9.303,33.27c-4.293,0-11.03,3.074-11.03,7.367v127.515
						c0,4.294,9.993,9.842,14.287,9.842h6.047h64.776c16.127,0,28.92-15.142,28.92-31.269v-84.662
						C1675.864,674.018,1663.071,660.687,1646.944,660.687z"/>
				</g>
			</g>
		</g>
		<g>
			<g>
				
					<linearGradient id="SVGID_00000101084728271158786100000012354040649861105553_" gradientUnits="userSpaceOnUse" x1="-6441.6064" y1="2937.2251" x2="-6335.6475" y2="2937.2251" gradientTransform="matrix(0.9987 0.0507 -0.0507 0.9987 7143.3555 595.7192)">
					<stop  offset="0" style="stop-color:#2B3582"/>
					<stop  offset="1" style="stop-color:#150E42"/>
				</linearGradient>
				<path style="fill:url(#SVGID_00000101084728271158786100000012354040649861105553_);" d="M577.826,3165.996
					c0,0-12.698,17.939-18.289,69.684c-0.521,4.822,3.099,9.135,7.943,9.381l91.967,4.664c3.701,0.188,6.526-3.306,5.519-6.872
					c-4.581-16.224-18.903-55.938-54.133-80.003L577.826,3165.996z"/>
				
					<linearGradient id="SVGID_00000118378030319257531260000017712191883648366480_" gradientUnits="userSpaceOnUse" x1="-6464.957" y1="2427.7463" x2="-6421.9829" y2="2427.7463" gradientTransform="matrix(0.9937 -0.112 0.112 0.9937 6720.2886 24.4975)">
					<stop  offset="0" style="stop-color:#F9B776"/>
					<stop  offset="1" style="stop-color:#F47960"/>
				</linearGradient>
				<path style="fill:url(#SVGID_00000118378030319257531260000017712191883648366480_);" d="M565.358,3137.863l10.068,42.814
					c0.869,3.693,4.142,6.361,7.935,6.37c5.07,0.012,12.391-0.402,19.328-2.365c6.307-1.784,10.287-8.03,9.552-14.543l-4.724-41.9
					L565.358,3137.863z"/>
				
					<linearGradient id="SVGID_00000084521085933240038980000007105333955828295344_" gradientUnits="userSpaceOnUse" x1="-6191.8276" y1="2692.6799" x2="-6025.5776" y2="2692.6799" gradientTransform="matrix(0.9994 0.0349 -0.0349 0.9994 7051.2871 734.0373)">
					<stop  offset="0" style="stop-color:#2B3582"/>
					<stop  offset="1" style="stop-color:#150E42"/>
				</linearGradient>
				<path style="fill:url(#SVGID_00000084521085933240038980000007105333955828295344_);" d="M787.853,3169.177
					c0,0-18.569,26.765-19.503,64.36c-0.22,8.855,6.945,16.165,15.797,16.474l142.932,4.985c6.692,0.233,9.709-8.273,4.367-12.309
					c-26.384-19.936-78.307-57.27-116.27-72.556L787.853,3169.177z"/>
				
					<linearGradient id="SVGID_00000052810859350102199330000009482494407425815964_" gradientUnits="userSpaceOnUse" x1="-6132.0098" y1="2908.6382" x2="-6089.2729" y2="2908.6382" gradientTransform="matrix(0.9907 0.1362 -0.1362 0.9907 7252.5708 1097.9357)">
					<stop  offset="0" style="stop-color:#F9B776"/>
					<stop  offset="1" style="stop-color:#F47960"/>
				</linearGradient>
				<path style="fill:url(#SVGID_00000052810859350102199330000009482494407425815964_);" d="M784.292,3123.545l3.661,54.946
					c0.41,6.146,5.704,10.968,11.842,10.458c3.732-0.311,8.215-1.272,13.172-3.498c4.711-2.115,7.617-6.973,7.423-12.133
					l-2.487-66.3L784.292,3123.545z"/>
				
					<linearGradient id="SVGID_00000060714884942063083380000008070103450678440847_" gradientUnits="userSpaceOnUse" x1="-6494.4878" y1="2054.468" x2="-6203.1157" y2="2054.468" gradientTransform="matrix(0.9937 -0.112 0.112 0.9937 6720.2886 24.4975)">
					<stop  offset="0" style="stop-color:#2B3582"/>
					<stop  offset="1" style="stop-color:#150E42"/>
				</linearGradient>
				<path style="fill:url(#SVGID_00000060714884942063083380000008070103450678440847_);" d="M499.738,2398.776
					c0,0-34.569,38.168-37.202,79.696c-2.634,41.528,99.667,700.144,99.667,700.144s39.103,2.058,57.537-12.162
					c0,0-24.954-432.108-18.305-533.358c0,0,143.705,434.32,178.687,511.779c0,0,37.485,0.329,48.616-8.051
					c0,0-89.523-573.909-131.873-672.961L499.738,2398.776z"/>
				<path style="fill:#666694;" d="M598.276,2620.692c-2.248,0-4.369-1.365-5.223-3.588l-22.573-58.661l-35.808-17.658
					c-2.772-1.368-3.912-4.725-2.543-7.497c1.368-2.769,4.725-3.912,7.497-2.543l37.77,18.626c1.261,0.622,2.242,1.696,2.747,3.01
					l23.358,60.702c1.111,2.886-0.327,6.125-3.213,7.233C599.626,2620.572,598.946,2620.692,598.276,2620.692z"/>
				
					<linearGradient id="SVGID_00000065760669219475772690000002468608555571239071_" gradientUnits="userSpaceOnUse" x1="-6011.8652" y1="853.6535" x2="-6098.8105" y2="1334.4111" gradientTransform="matrix(0.9937 -0.112 0.112 0.9937 6720.2886 24.4975)">
					<stop  offset="0" style="stop-color:#53D8FF"/>
					<stop  offset="1" style="stop-color:#3840F7"/>
				</linearGradient>
				<path style="fill:url(#SVGID_00000065760669219475772690000002468608555571239071_);" d="M835.411,1973.704
					c-163.096,4.805-201.558,43.003-201.558,43.003l91.473,113.834c0,0,158.417-21.037,262.297-121.55
					c-23.877-20.53-41.521-44.203-53.229-62.864C906.432,1961.625,873.455,1972.582,835.411,1973.704z"/>
				
					<linearGradient id="SVGID_00000153668622386501566480000010152157997452703660_" gradientUnits="userSpaceOnUse" x1="-5964.7632" y1="1182.1594" x2="-5805.9385" y2="1182.1594" gradientTransform="matrix(0.9937 -0.112 0.112 0.9937 6720.2886 24.4975)">
					<stop  offset="0" style="stop-color:#F9B776"/>
					<stop  offset="1" style="stop-color:#F47960"/>
				</linearGradient>
				<path style="fill:url(#SVGID_00000153668622386501566480000010152157997452703660_);" d="M1061.707,1707.992
					c-0.802-5.153-7.979-5.77-9.648-0.829l-15.659,46.321c-3.025,8.951-3.228,18.613-0.583,27.683l10.119,24.792
					c3.571,12.244,1.752,25.408-5.049,36.198c-16.274,25.821-51.745,73.625-106.493,103.97
					c11.708,18.662,29.352,42.335,53.229,62.864c38.115-36.879,68.899-84.445,81.807-145.615
					c9.045-3.934,14.311-13.462,12.834-23.213L1061.707,1707.992z"/>
				
					<linearGradient id="SVGID_00000069399143364771857900000013944249184730179732_" gradientUnits="userSpaceOnUse" x1="-6110.8784" y1="1139.4927" x2="-6197.8203" y2="1962.8877" gradientTransform="matrix(0.9937 -0.112 0.112 0.9937 6720.2886 24.4975)">
					<stop  offset="0" style="stop-color:#53D8FF"/>
					<stop  offset="1" style="stop-color:#3840F7"/>
				</linearGradient>
				<path style="fill:url(#SVGID_00000069399143364771857900000013944249184730179732_);" d="M896.612,2038.78
					c-63.794-54.881-175.266-70.356-239.281-74.66c-28.045-1.884-53.411,16.463-60.197,43.739
					c-19.674,79.071-74.192,285.16-85.248,320.77c-9.071,29.214-18.754,57.84-24.937,75.752c-3.695,10.7,1.904,22.375,12.588,26.116
					c55.647,19.49,153.862,37.564,193.629,44.451c8.747,1.515,16.464-5.794,15.469-14.616c-0.843-7.481,0.362-15.053,3.488-21.901
					l118.419-259.431c102.248,90.526,182.878,90.766,241.533,61.815c-13.863-30.614-24.18-61.687-31.002-93.215
					C949.002,2142.311,896.612,2038.78,896.612,2038.78z"/>
				
					<linearGradient id="SVGID_00000154393755739782000530000009951329636689262748_" gradientUnits="userSpaceOnUse" x1="933.7617" y1="2249.0354" x2="1209.8378" y2="2125.7876">
					<stop  offset="0" style="stop-color:#F9B776"/>
					<stop  offset="1" style="stop-color:#F47960"/>
				</linearGradient>
				<path style="fill:url(#SVGID_00000154393755739782000530000009951329636689262748_);" d="M1188.465,2113.855l-18.751-19.896
					c-48.687,42.193-91.83,55.758-128.64,53.642c6.822,31.529,17.139,62.602,31.002,93.215
					C1149.348,2202.677,1188.465,2113.855,1188.465,2113.855z"/>
				
					<linearGradient id="SVGID_00000034789648025060605850000006142033613036486785_" gradientUnits="userSpaceOnUse" x1="921.9283" y1="2222.5286" x2="1198.0052" y2="2099.2803">
					<stop  offset="0" style="stop-color:#F9B776"/>
					<stop  offset="1" style="stop-color:#F47960"/>
				</linearGradient>
				<path style="fill:url(#SVGID_00000034789648025060605850000006142033613036486785_);" d="M1177.015,2115.544l92.241-6.774
					l79.23-56.759c-12.994-6.24-79.877,17.05-79.877,17.05s-72.973-2.762-92.395-0.597c-16.131,1.797-11.212,24.73-9.082,32.45
					c0.435,1.575,0.754,2.516,0.754,2.516L1177.015,2115.544z"/>
				
					<linearGradient id="SVGID_00000044147218148350111200000001972843149598856886_" gradientUnits="userSpaceOnUse" x1="-5991.2124" y1="958.7716" x2="-6323.584" y2="1569.4719" gradientTransform="matrix(0.9937 -0.112 0.112 0.9937 6720.2886 24.4975)">
					<stop  offset="0" style="stop-color:#F9B776"/>
					<stop  offset="1" style="stop-color:#F47960"/>
				</linearGradient>
				<path style="fill:url(#SVGID_00000044147218148350111200000001972843149598856886_);" d="M730.924,1841.821l-35.123,123.704
					c0,0,60.02,32.259,104.398,23.541l12.195-109.046L730.924,1841.821z"/>
				<g>
					
						<linearGradient id="SVGID_00000030463145837621269920000010961104025102815874_" gradientUnits="userSpaceOnUse" x1="-4768.8433" y1="-306.2466" x2="-4915.7373" y2="-111.9172" gradientTransform="matrix(0.7472 -0.6646 0.6646 0.7472 4549.52 -1168.7673)">
						<stop  offset="0" style="stop-color:#F9B776"/>
						<stop  offset="1" style="stop-color:#F47960"/>
					</linearGradient>
					<path style="fill:url(#SVGID_00000030463145837621269920000010961104025102815874_);" d="M803.687,1751.986
						c1.287,1.447,49.057,120.247,49.057,120.247l-68.413,25.834l-62.005-105.872
						C722.326,1792.196,782.14,1727.759,803.687,1751.986z"/>
					
						<linearGradient id="SVGID_00000040534908902994172480000008160975396694856618_" gradientUnits="userSpaceOnUse" x1="-4881.0278" y1="-259.3696" x2="-4705.5576" y2="-259.3696" gradientTransform="matrix(0.7472 -0.6646 0.6646 0.7472 4549.52 -1168.7673)">
						<stop  offset="0" style="stop-color:#2B3582"/>
						<stop  offset="1" style="stop-color:#150E42"/>
					</linearGradient>
					<path style="fill:url(#SVGID_00000040534908902994172480000008160975396694856618_);" d="M750.757,1806.138l28.276,58.289
						c0.363,0.747,0.812,1.425,1.363,2.047c3.375,3.805,15.943,16.042,27.679,2.419c10.65-12.362,20.552-23.484,30.525-26.425
						c4.477-1.32,9.217,0.969,10.957,5.3c4.337,10.795,13.661,35.302,18.514,57.828c0.984,4.572-1.737,9.11-6.204,10.492
						c-13.462,4.163-42.097,12.15-66.641,13.178c-3.326,0.14-6.452-1.513-8.167-4.365c-8.364-13.906-33.939-56.078-42.884-66.727
						c-8.395-9.995-25.955-7.708-33.26-6.222c-2.396,0.487-4.862-0.024-6.869-1.419c-7.094-4.931-21.008-17.992-5.676-37.235
						c3.209-4.027,2.453-9.855-1.67-12.94c-8.208-6.142-17.541-17.623-6.906-34.366c10.809-17.019,27.68-16.407,38.263-13.844
						c4.279,1.036,8.567-1.207,10.377-5.22c1.03-2.285,3.067-4.156,6.95-4.258c5.234-0.139,9.105-4.957,8.426-10.148
						c-1.306-9.975,0.849-23.007,17.579-30.358c29.687-13.045,52.225,14.515,56.626,36.48c4.402,21.966-28.589,34.279-48.719,35.034
						c-15.306,0.573-24.878,16.888-28.588,24.675C749.533,1800.821,749.564,1803.68,750.757,1806.138z"/>
					
						<linearGradient id="SVGID_00000156587441725410609600000017373764214254365089_" gradientUnits="userSpaceOnUse" x1="-4983.9863" y1="-152.3548" x2="-4866.1646" y2="-273.2365" gradientTransform="matrix(0.7472 -0.6646 0.6646 0.7472 4549.52 -1168.7673)">
						<stop  offset="0" style="stop-color:#F9B776"/>
						<stop  offset="1" style="stop-color:#F47960"/>
					</linearGradient>
					<path style="fill:url(#SVGID_00000156587441725410609600000017373764214254365089_);" d="M754.683,1879.296
						c0,0-9.311-37.944-25.542-38.024c-16.23-0.081-30.337,14.841-11.975,34.657
						C740.006,1900.579,754.683,1879.296,754.683,1879.296z"/>
				</g>
			</g>
			<g>
				
					<linearGradient id="SVGID_00000120554594469502795330000009809656765838535072_" gradientUnits="userSpaceOnUse" x1="2468.1953" y1="1270.3774" x2="1715.7338" y2="2658.2488" gradientTransform="matrix(0.6483 -0.7614 0.7614 0.6483 -1437.0837 2528.0591)">
					<stop  offset="0" style="stop-color:#FDF53F"/>
					<stop  offset="1" style="stop-color:#D93C65"/>
				</linearGradient>
				<path style="fill:url(#SVGID_00000120554594469502795330000009809656765838535072_);" d="M1654.017,1895.917l-166.826,82.17
					c-12.974,6.391-21.973,18.757-24.064,33.068l-26.882,184.015c-5.266,36.036-49.566,50.392-74.968,24.292l-129.702-133.267
					c-10.091-10.366-24.63-15.104-38.885-12.667l-183.317,31.295c-35.898,6.131-63.244-31.567-46.273-63.791l86.668-164.538
					c6.738-12.796,6.75-28.088,0.029-40.896l-86.41-164.672c-16.921-32.248,10.48-69.903,46.368-63.719l183.267,31.577
					c14.253,2.457,28.801-2.258,38.905-12.606l129.908-133.068c25.444-26.06,69.722-11.635,74.929,24.41l26.601,184.055
					c2.071,14.314,11.049,26.692,24.013,33.102l166.7,82.434C1686.725,1833.251,1686.69,1879.822,1654.017,1895.917z"/>
				<path style="fill:#FFFFFF;" d="M1214.44,2031.613c-9.596-1.618-19.318-1.603-28.905,0.037l-119.715,20.432
					c-12.584,2.148-25.052-2.935-32.551-13.276c-7.493-10.327-8.447-23.758-2.506-35.049l56.599-107.459
					c13.259-25.172,13.283-55.246,0.065-80.444l-56.438-107.548c-5.93-11.297-4.947-24.728,2.558-35.052
					c7.526-10.315,20-15.38,32.573-13.218l61.155,10.537l-1.601,9.303l-61.156-10.536c-9.155-1.58-17.863,2.023-23.336,9.472
					c-5.457,7.506-6.144,16.887-1.83,25.109l56.436,107.546c14.667,27.955,14.639,61.312-0.069,89.235l-56.594,107.459
					c-4.326,8.211-3.657,17.594,1.792,25.108c5.446,7.513,14.158,11.063,23.312,9.501l119.716-20.431
					c10.632-1.815,21.421-1.829,32.057-0.042L1214.44,2031.613z"/>
				<path style="fill:#FFFFFF;" d="M1395.962,2141.984c-3.91,4.591-9.084,8.11-15.108,10.062
					c-12.146,3.936-25.214,0.696-34.118-8.45l-64.807-66.584l6.772-6.588l64.807,66.584c6.47,6.653,15.603,8.917,24.433,6.054
					c8.834-2.862,14.907-10.051,16.239-19.242l17.561-120.161c4.497-30.858,24.497-58.369,52.505-72.156l108.949-53.664
					c8.321-4.111,13.289-12.107,13.311-21.375c0.007-9.282-4.957-17.281-13.278-21.391l-108.876-53.844
					c-28.294-13.995-47.875-40.994-52.377-72.219l-17.389-120.21c-1.329-9.192-7.384-16.391-16.21-19.266
					c-8.831-2.876-17.965-0.624-24.444,6.017l-84.848,86.918c-8.775,8.984-19.07,16.066-30.612,21.041l-3.735-8.667
					c10.399-4.489,19.685-10.872,27.588-18.976l84.846-86.911c8.915-9.133,21.99-12.355,34.125-8.401
					c12.137,3.954,20.814,14.26,22.632,26.89l17.385,120.211c4.065,28.155,21.72,52.499,47.221,65.107l108.877,53.842
					c11.44,5.654,18.543,17.097,18.536,29.865c-0.017,12.763-7.137,24.196-18.579,29.841l-108.951,53.662
					c-25.257,12.434-43.283,37.223-47.327,65.055l-17.564,120.164C1402.595,2131.55,1399.931,2137.322,1395.962,2141.984z"/>
				
					<rect x="1139.872" y="1659.961" transform="matrix(0.1699 -0.9855 0.9855 0.1699 -703.8356 2521.1121)" style="fill:#FFFFFF;" width="9.442" height="36.771"/>
			</g>
		</g>
		<g>
			
				<linearGradient id="SVGID_00000180337826654832437250000004774679528087386547_" gradientUnits="userSpaceOnUse" x1="2970.6272" y1="2326.5793" x2="2980.7747" y2="1763.3728">
				<stop  offset="0" style="stop-color:#F9B776"/>
				<stop  offset="1" style="stop-color:#F47960"/>
			</linearGradient>
			<path style="fill:url(#SVGID_00000180337826654832437250000004774679528087386547_);" d="M2929.486,1820.279
				c0,0-149.657,191.611,21.091,386.495l64.194-5.981c0,0-123.572-198.416-68.532-356.581l90.932,6.639l50.285-32.776
				L2929.486,1820.279z"/>
			<g>
				
					<linearGradient id="SVGID_00000181080326460490187870000009155753947980115078_" gradientUnits="userSpaceOnUse" x1="2398.4702" y1="2015.4561" x2="3113.8962" y2="1421.8038">
					<stop  offset="0" style="stop-color:#A737D5"/>
					<stop  offset="1" style="stop-color:#EF497A"/>
				</linearGradient>
				<path style="fill:url(#SVGID_00000181080326460490187870000009155753947980115078_);" d="M2532.366,1415.951l668.838-34.533
					c13.116-0.677,24.167,7.241,24.553,17.591l15.107,405.014c0.389,10.419-10.152,19.229-23.368,19.507
					c-121.094,2.544-658.718,13.917-682.391,15.755c-23.394,1.817-25.153-323.999-25.23-404.405
					C2509.866,1424.938,2519.782,1416.6,2532.366,1415.951z"/>
				<path style="fill:#FFFFFF;" d="M2545.837,1824.607l-0.462-1.7c-10.078-37.027-16.711-189.479-16.902-388.385
					c0-2.331,2.062-4.259,4.696-4.396l668.837-34.531c1.61-0.056,2.74,0.487,3.401,0.974c1.083,0.78,1.716,1.916,1.763,3.192
					l15.104,405.012c0.097,2.39-2.012,4.434-4.699,4.549l-0.14,0.003c-96.34,2.025-581.399,12.265-669.839,15.223L2545.837,1824.607
					z M3202.313,1400.041c-0.028,0-0.059,0-0.087,0.003l-668.825,34.531c-0.334,0.016-0.512,0.15-0.54,0.184
					c0.253,195.376,6.636,345.798,16.371,385.28c92.996-3.033,572.341-13.154,668.095-15.164l0.081-0.003l-14.687-404.946
					C3202.715,1400.091,3202.578,1400.044,3202.313,1400.041z"/>
				<path style="fill:#FFFFFF;" d="M2969.565,1462.8c0.456,10.241,4.235,18.391,8.441,18.203l185.909-8.281
					c4.206-0.187,7.245-8.641,6.789-18.882c-0.456-10.241-4.235-18.391-8.441-18.203l-185.909,8.281
					C2972.148,1444.106,2969.109,1452.559,2969.565,1462.8z"/>
				<path style="fill:#FFFFFF;" d="M2970.372,1513.238c0.228,5.12,3.822,9.119,8.028,8.932l185.909-8.281
					c4.205-0.187,7.43-4.49,7.202-9.61s-3.822-9.119-8.028-8.932l-185.909,8.281
					C2973.368,1503.815,2970.144,1508.118,2970.372,1513.238z"/>
				<path style="fill:#FFFFFF;" d="M2970.372,1551.856c0.228,5.12,3.822,9.119,8.028,8.932l185.909-8.281
					c4.205-0.187,7.43-4.49,7.202-9.61c-0.228-5.12-3.822-9.119-8.028-8.932l-185.909,8.281
					C2973.368,1542.433,2970.144,1546.736,2970.372,1551.856z"/>
				<path style="fill:#FFFFFF;" d="M2715.666,1776.557c-4.134,0-6.761-0.006-7.482-0.009c-4.506-0.016-8.29-3.401-8.811-7.878
					l-16.194-139.56c-0.274-2.359,0.406-4.73,1.888-6.583c1.479-1.85,3.632-3.036,5.981-3.295c0.134-0.016,13.41-1.585,24.399-8.858
					c3.679-2.434,7.919-13.663,11.663-23.569c5.775-15.292,12.967-34.328,26.172-49.41c21.401-24.446,17.847-61.208,17.37-65.32
					c-1.048-9.02,5.922-22.278,16.817-26.512c6.658-2.59,19.991-3.928,34.521,16.184c18.147,25.123,10.225,58.949,4.983,81.333
					c-1.629,6.955-3.167,13.523-3.37,17.588c-0.022,0.477,0.028,0.68,0.028,0.68c3.625,2.73,24.833-0.555,37.51-2.521
					c6.618-1.026,13.382-2.072,19.916-2.83c23.045-2.671,50.131-1.676,55.201,30.016c2.097,13.095-3.485,22.88-9.129,29.148
					c10.172,8.712,15.438,18.222,15.688,28.375c0.228,9.195-3.844,16.774-8.003,22.078c8.896,8.293,12.671,19.541,10.247,31.651
					c-1.679,8.384-6.212,15.934-12.231,21.304c4.577,5.204,5.17,10.755,5.089,13.744c-0.43,15.467-19.089,30.911-44.365,36.727
					C2862.958,1776.079,2746.754,1776.557,2715.666,1776.557z M2701.818,1635.243l14.331,123.501
					c31.158-0.022,145.136-0.555,173.411-7.061c20.106-4.627,30.427-15.233,30.555-19.869c0.05-1.782-3.298-3.956-8.328-5.413
					c-4.115-1.189-6.799-5.139-6.39-9.404c0.409-4.262,3.797-7.632,8.062-8.016c6.122-0.555,12.596-7.523,14.137-15.217
					c1.114-5.566,0.175-13.401-10.643-19.108c-2.73-1.441-4.521-4.193-4.727-7.273c-0.209-3.08,1.192-6.05,3.704-7.844
					c0.05-0.041,9.345-7.108,9.083-15.641c-0.259-8.284-9.376-15.85-16.98-20.736c-2.615-1.682-4.166-4.605-4.087-7.713
					s1.769-5.95,4.465-7.498c0.443-0.265,12.144-7.373,10.262-19.126c-1.42-8.864-3.039-18.92-35.563-15.139
					c-6.312,0.733-12.846,1.747-19.242,2.739c-23.779,3.679-42.562,6.602-52.449-2.309c-2.758-2.481-5.966-6.986-5.601-14.334
					c0.281-5.672,1.919-12.668,3.816-20.765c4.774-20.387,11.311-48.306-2.081-66.846c-5.198-7.192-10.322-11.083-13.398-10.094
					c-3.229,1.014-5.769,6.299-5.8,8.143c0.555,4.718,4.78,48.683-21.676,78.902c-11.083,12.658-17.367,29.295-22.911,43.975
					c-5.594,14.811-10.016,26.515-18.493,32.125C2717.076,1630.65,2708.196,1633.642,2701.818,1635.243z"/>
			</g>
			
				<linearGradient id="SVGID_00000023964852879106563720000016524676753281698716_" gradientUnits="userSpaceOnUse" x1="3011.4519" y1="2967.6484" x2="3238.1201" y2="2967.6484">
				<stop  offset="0" style="stop-color:#F9B776"/>
				<stop  offset="1" style="stop-color:#F47960"/>
			</linearGradient>
			<path style="fill:url(#SVGID_00000023964852879106563720000016524676753281698716_);" d="M3011.452,2758.4
				c0,0,121.254,264.277,184.872,373.739c0,0,12.635,68.876,0,90.535l-10.768,4.786l50.256-1.496c0,0,4.464-92.646,0.978-97.821
				c-3.487-5.175-10.46-4.836-10.46-4.836s-21.549-170.724-83.956-207.159l-60.48-208.312L3011.452,2758.4z"/>
			
				<linearGradient id="SVGID_00000141430443276167475870000013845741414438406553_" gradientUnits="userSpaceOnUse" x1="3323.0137" y1="2460.7483" x2="3210.7605" y2="3190.3906">
				<stop  offset="0" style="stop-color:#53D8FF"/>
				<stop  offset="1" style="stop-color:#3840F7"/>
			</linearGradient>
			<path style="fill:url(#SVGID_00000141430443276167475870000013845741414438406553_);" d="M3164.093,3240.435
				c-0.075,1.212,39.243,0.658,60.601,0.268c7.886-0.144,14.609-5.687,16.29-13.393l16.129-84.738
				c1.533-8.053-3.581-15.875-11.572-17.701l-9.002-2.058c0,0-12.843,17.618-8.8,34.205c4.042,16.587,7.64,59.554-2.576,64.561
				s-39.606,5.881-39.606,5.881S3164.764,3229.522,3164.093,3240.435z"/>
			
				<linearGradient id="SVGID_00000167380567849531140010000012743267246687386752_" gradientUnits="userSpaceOnUse" x1="3085.4978" y1="2424.2085" x2="2973.2444" y2="3153.8533">
				<stop  offset="0" style="stop-color:#53D8FF"/>
				<stop  offset="1" style="stop-color:#3840F7"/>
			</linearGradient>
			<path style="fill:url(#SVGID_00000167380567849531140010000012743267246687386752_);" d="M2896.524,3241.973
				c-3.977,2.266-2.337,8.337,2.24,8.291c35.741-0.36,115.831-1.49,122.948-4.45c9.188-3.821-3.348-36.837-16.542-48.012
				l-72.85,23.776L2896.524,3241.973z"/>
			
				<linearGradient id="SVGID_00000028301468318851166320000018207759166758750131_" gradientUnits="userSpaceOnUse" x1="2873.9106" y1="2984.5027" x2="3005.1697" y2="2984.5027">
				<stop  offset="0" style="stop-color:#F9B776"/>
				<stop  offset="1" style="stop-color:#F47960"/>
			</linearGradient>
			<path style="fill:url(#SVGID_00000028301468318851166320000018207759166758750131_);" d="M2873.911,2741.545
				c0,0,78.357,379.065,100.523,453.009l-52.437,32.906c0,0,26.278-4.469,45.763-5.881s37.409-23.776,37.409-23.776l-6.282-10.019
				c0,0-19.65-377.001-14.866-419.811L2873.911,2741.545z"/>
			
				<linearGradient id="SVGID_00000101813881870221590790000006327701693345244290_" gradientUnits="userSpaceOnUse" x1="2925.7585" y1="2338.7737" x2="2570.5847" y2="1775.5697">
				<stop  offset="0" style="stop-color:#F9B776"/>
				<stop  offset="1" style="stop-color:#F47960"/>
			</linearGradient>
			<path style="fill:url(#SVGID_00000101813881870221590790000006327701693345244290_);" d="M2679.4,1857.373
				c0,0-10.808,197.187,168.718,297.949l-43.222,98.576c0,0-162.537-98.31-156.526-366.443c0.173-7.695-2.603-15.167-7.628-20.997
				l-34.545-40.075c-13.161-15.269-18.08-35.982-13.188-55.537l4.547-18.176c1.522-6.085,8.453-9.013,13.877-5.863l3.613,2.098
				c11.5,6.68,20.61,16.805,26.04,28.945l16.962,37.917c6.336,14.163,20.945,22.763,36.403,21.428l10.488-0.906L2679.4,1857.373z"/>
			
				<linearGradient id="SVGID_00000080920930857351802390000018126157348332528565_" gradientUnits="userSpaceOnUse" x1="2872.7429" y1="2139.4028" x2="3354.4949" y2="3093.5522">
				<stop  offset="0" style="stop-color:#FDF53F"/>
				<stop  offset="1" style="stop-color:#D93C65"/>
			</linearGradient>
			<path style="fill:url(#SVGID_00000080920930857351802390000018126157348332528565_);" d="M2841.869,2140.546
				c30.034,8.329,131.787,35.096,195.309,34.002l-39.001,220.09l3.104,35.897l-127.161-0.57c0,0-35.797-83.134-64.039-124.582
				c-8.157-11.971-2.086-26.249,2.537-39.977l-6.352-4.229c-6.464-4.303-9.267-12.387-6.854-19.768l30.966-94.742
				C2831.985,2141.893,2837.014,2139.199,2841.869,2140.546z"/>
			
				<linearGradient id="SVGID_00000096742694782307152130000002241715153042920338_" gradientUnits="userSpaceOnUse" x1="3198.2424" y1="2227.7205" x2="2832.9197" y2="2816.2974">
				<stop  offset="0" style="stop-color:#CB236D"/>
				<stop  offset="1" style="stop-color:#4C246D"/>
			</linearGradient>
			<path style="fill:url(#SVGID_00000096742694782307152130000002241715153042920338_);" d="M2863.931,2411.182l2.501,21.747
				c0,0-35.935,107.619,17.968,358.975c0,0,116.743,33.073,212.693-46.067c0,0-27.066-237.242-34.459-248.292
				c-36.823-55.043-61.353-67.009-61.353-67.009l-1.106-23.759C3000.175,2406.777,2897.55,2425.331,2863.931,2411.182z"/>
			
				<linearGradient id="SVGID_00000021809296370527187430000003467059553238429097_" gradientUnits="userSpaceOnUse" x1="2913.7024" y1="2125.8694" x2="2994.0259" y2="2125.8694">
				<stop  offset="0" style="stop-color:#F9B776"/>
				<stop  offset="1" style="stop-color:#F47960"/>
			</linearGradient>
			<path style="fill:url(#SVGID_00000021809296370527187430000003467059553238429097_);" d="M2913.708,2158.284
				c-0.446-0.589,26.547-81.498,26.547-81.498l38.666,3.508l15.105,91.786C2994.026,2172.081,2933.428,2184.312,2913.708,2158.284z"
				/>
			
				<linearGradient id="SVGID_00000047771686546321096680000008145907078517725367_" gradientUnits="userSpaceOnUse" x1="3041.3613" y1="2022.0681" x2="3626.0115" y2="2061.8242">
				<stop  offset="0" style="stop-color:#F9B776"/>
				<stop  offset="1" style="stop-color:#F47960"/>
			</linearGradient>
			<path style="fill:url(#SVGID_00000047771686546321096680000008145907078517725367_);" d="M2969.664,1949.193
				c-2.578,1.605-82.624,34.686-65.426,117.787c1.016,4.911,4.293,9.073,8.873,11.116c11.746,5.239,37.034,14.21,67.28,11.137
				c41.933-4.261,69.411-77.435,68.242-98.729C3047.465,1969.211,2995.217,1933.281,2969.664,1949.193z"/>
			
				<linearGradient id="SVGID_00000060742867601593603630000008938362453542701224_" gradientUnits="userSpaceOnUse" x1="3137.4573" y1="1986.8264" x2="2931.6609" y2="2398.4182">
				<stop  offset="0" style="stop-color:#CB236D"/>
				<stop  offset="1" style="stop-color:#4C246D"/>
			</linearGradient>
			<path style="fill:url(#SVGID_00000060742867601593603630000008938362453542701224_);" d="M2994.026,1916.885
				c-2.105,0.276-46.258,15.654-24.362,47.649c21.896,31.994,30.11,50.829,19.753,64.878c-9.435,12.8-30.337,5.505-28.513,32.134
				c0.365,5.331-1.94,10.506-6.365,13.501c-19.696,13.332-67.749,54.369-20.14,112.892c3.87,4.757,4.667,11.323,1.681,16.679
				c-13.944,25.011-43.234,98.279,62.806,138.922c104.785,40.162,142.618-28.334,153.188-55.712
				c2.286-5.922,8.116-9.547,14.457-9.247c11.514,0.544,27.83-1.372,27.08-16.759c-0.456-9.346-6.287-17.721-13.179-24.436
				c-6.821-6.646-5.473-18.283,2.807-22.987c6.255-3.554,11.79-9.102,14.126-17.759c6.35-23.531-6.327-93.89-73.769-105.814
				c-5.625-0.995-11.516-6.269-12.335-11.923c-0.012-0.084-0.025-0.168-0.039-0.252c-0.904-5.468,0.946-11.059,5.415-14.337
				c10.769-7.9,24.579-23.804,13.362-49.309c-9.948-22.621-29.029-30.251-43.201-32.683c-8.321-1.428-13.792-9.297-12.038-17.556
				C3079.541,1942.261,3075.375,1906.22,2994.026,1916.885z"/>
		</g>
	</g>
</g>
</svg>
