<?xml version="1.0" encoding="utf-8"?>
<!-- Generator: Adobe Illustrator 27.5.0, SVG Export Plug-In . SVG Version: 6.00 Build 0)  -->
<svg version="1.1" xmlns="http://www.w3.org/2000/svg" xmlns:xlink="http://www.w3.org/1999/xlink" x="0px" y="0px"
	 viewBox="0 0 3710 3710" style="enable-background:new 0 0 3710 3710;" xml:space="preserve">
<g id="Background">
	<g>
		<g>
			<rect style="fill:#FFFFFF;" width="3710" height="3710"/>
		</g>
	</g>
</g>
<g id="Illustration">
	<g>
		<linearGradient id="SVGID_1_" gradientUnits="userSpaceOnUse" x1="3397.9343" y1="3564.3169" x2="1393.0166" y2="1400.2786">
			<stop  offset="0" style="stop-color:#B37CFF"/>
			<stop  offset="1" style="stop-color:#F895E7"/>
		</linearGradient>
		<path style="opacity:0.3;fill:url(#SVGID_1_);" d="M3118.536,2331.113c-275.49,643.926-1002.696,920.508-1572.473,873.35
			c-155.572-12.876-468.587-38.783-712.992-269.908C363.709,2490.693,435.996,1562.9,885.31,1016.666
			c57.862-70.344,458.377-541.638,1082.505-535.33c456.952,4.619,777.683,262.745,816.682,294.903
			c49.267,40.624,157.93,137.158,255.861,290.305C3270.463,1426.383,3290.69,1928.723,3118.536,2331.113z"/>
		<g>
			
				<linearGradient id="SVGID_00000000181759506278894780000014731609183755238039_" gradientUnits="userSpaceOnUse" x1="8404.8496" y1="-274.8" x2="9460.1494" y2="-274.8" gradientTransform="matrix(0.9241 0.3823 -0.3823 0.9241 -7621.8052 -1929.6399)">
				<stop  offset="0" style="stop-color:#A737D5"/>
				<stop  offset="1" style="stop-color:#EF497A"/>
			</linearGradient>
			<path style="fill:url(#SVGID_00000000181759506278894780000014731609183755238039_);" d="M484.215,468.963
				c-2.613-11.125,13.036-18.52,22.619-10.749c97.313,78.911,331.126,315.213,272.855,728.168
				c-73.109,518.114,51.88,707.169,207.461,822.489c0,0-213.664-54.231-348.092-246.068
				C309.008,1291.798,530.683,666.772,484.215,468.963z"/>
			<path style="fill:#FFFFFF;" d="M558.271,630.79c12.174,57.679,23.024,115.534,31.409,173.65
				c8.737,58.067,15.431,116.337,20.013,174.702c4.322,58.376,7.374,116.813,7.548,175.275c0.478,58.459-1.953,116.869-4.63,175.508
				c-2.297,58.617-4.997,117.657-0.706,177.115c4.219,59.337,16.71,119.192,41.495,175.302
				c6.196,13.984,12.711,27.925,20.112,41.396c7.116,13.595,14.93,26.921,23.018,40.121c16.331,26.337,34.714,51.782,55.2,75.934
				c41.121,48.221,90.714,90.997,145.348,127.2c5.75,3.81,13.989,2.874,18.402-2.092c4.333-4.875,3.365-11.823-2.116-15.68
				l-0.039-0.027c-13-9.13-25.862-18.377-38.203-28.088c-6.262-4.771-12.265-9.772-18.375-14.673
				c-5.887-5.095-12.006-9.994-17.704-15.241c-23.199-20.648-44.691-42.678-64.189-65.971c-39.22-46.37-70.617-98.04-94.405-151.607
				c-11.547-26.908-20.777-54.503-27.517-82.616c-6.715-28.121-10.939-56.73-13.275-85.569
				c-4.678-57.711-2.565-116.167-0.756-174.794c1.721-58.643,2.984-117.583,1.437-176.477c-0.682-29.445-1.976-58.875-3.88-88.271
				c-0.854-14.702-2.037-29.387-3.19-44.072c-1.316-14.675-2.726-29.342-4.273-43.996c-6.317-58.608-14.702-117.022-25.212-175.125
				c-10.833-58.059-23.446-115.851-38.617-173.125c-0.434-1.638-2.322-2.661-4.217-2.286
				C559.108,627.645,557.939,629.202,558.271,630.79z"/>
		</g>
		<g>
			<g>
				
					<linearGradient id="SVGID_00000172427057175736731890000011203192649263270295_" gradientUnits="userSpaceOnUse" x1="3496.3403" y1="3174.6587" x2="4508.4316" y2="3174.6587" gradientTransform="matrix(0.6312 -0.7758 0.7758 0.6312 -4170.9189 2253.7097)">
					<stop  offset="0" style="stop-color:#CE1567"/>
					<stop  offset="1" style="stop-color:#7A1DBC"/>
				</linearGradient>
				<path style="fill:url(#SVGID_00000172427057175736731890000011203192649263270295_);" d="M736.299,1709.113
					c-11.932,12.66-32.915,9.019-40.092-6.827c-39.606-87.436-129.228-344.776,18.788-641.245
					c124.993-250.355,168.978-397.985,184.302-466.388c3.24-14.464,23.063-16.385,29.046-2.823
					C994.353,741.453,1168.652,1250.389,736.299,1709.113z"/>
				<path style="fill:#FFFFFF;" d="M714.626,1699.887c-0.424,0.076-0.861,0.112-1.309,0.105c-3.75-0.057-6.744-3.145-6.687-6.895
					c0.065-4.252,8.34-429.249,166.409-785.201c1.522-3.425,5.534-4.971,8.965-3.451c3.428,1.524,4.973,5.536,3.451,8.966
					c-156.92,353.361-165.179,775.672-165.244,779.895C720.162,1696.609,717.761,1699.325,714.626,1699.887z"/>
			</g>
		</g>
		<g>
			
				<linearGradient id="SVGID_00000039813282451278384440000016669599955381320580_" gradientUnits="userSpaceOnUse" x1="2863.1255" y1="1104.5027" x2="831.2635" y2="2651.5767">
				<stop  offset="0" style="stop-color:#53D8FF"/>
				<stop  offset="1" style="stop-color:#3840F7"/>
			</linearGradient>
			<path style="fill:url(#SVGID_00000039813282451278384440000016669599955381320580_);" d="M674.637,1101.958l2296.627-38.81
				c92.463-1.563,166.678,77.742,161.183,172.238l-79.051,1359.441c-4.327,74.401-64.17,132.683-136.977,133.402l-2207.615,21.832
				c-54.529,0.539-99.58-43.426-101.656-99.206L554.33,1232.024C551.716,1161.808,606.003,1103.118,674.637,1101.958z"/>
			
				<linearGradient id="SVGID_00000142862160774936149270000006201912332352113303_" gradientUnits="userSpaceOnUse" x1="808.9879" y1="3099.8193" x2="3125.2532" y2="334.6615">
				<stop  offset="0" style="stop-color:#53D8FF"/>
				<stop  offset="1" style="stop-color:#3840F7"/>
			</linearGradient>
			<path style="fill:url(#SVGID_00000142862160774936149270000006201912332352113303_);" d="M709.841,1136.59l2236.687-36.924
				c90.05-1.487,162.328,73.964,156.976,163.867l-76.989,1293.377c-4.213,70.786-62.495,126.235-133.401,126.919l-2149.998,20.772
				c-53.105,0.513-96.98-41.316-99.003-94.385l-51.44-1349.882C590.128,1193.533,642.999,1137.694,709.841,1136.59z"/>
			<path style="opacity:0.5;fill:#FFFFFF;" d="M751.67,1181.17l2129.856-35.161c85.749-1.415,154.574,70.432,149.479,156.041
				l-73.311,1231.602c-4.012,67.405-59.51,120.205-127.03,120.858l-2047.307,19.779c-50.569,0.488-92.349-39.343-94.274-89.877
				l-48.984-1285.407C637.675,1235.393,688.021,1182.221,751.67,1181.17z"/>
			
				<linearGradient id="SVGID_00000171699080992324137430000001064074686860249988_" gradientUnits="userSpaceOnUse" x1="1657.4362" y1="1968.6914" x2="2247.9429" y2="-136.4042">
				<stop  offset="0" style="stop-color:#53D8FF"/>
				<stop  offset="1" style="stop-color:#3840F7"/>
			</linearGradient>
			<path style="fill:url(#SVGID_00000171699080992324137430000001064074686860249988_);" d="M2951.694,1098.596l-2246.059,37.079
				c-67.123,1.108-120.215,57.18-117.659,124.263l3.626,95.156h2512.253l5.472-91.944
				C3114.702,1172.87,3042.121,1097.103,2951.694,1098.596z"/>
			<g style="opacity:0.85;">
				<path style="fill:#FFFFFF;" d="M776.263,1181.67c0,11.157-9.044,20.201-20.201,20.201c-11.157,0-20.202-9.044-20.202-20.201
					c0-11.157,9.045-20.202,20.202-20.202C767.219,1161.468,776.263,1170.513,776.263,1181.67z"/>
				<path style="fill:#FFFFFF;" d="M776.263,1240.864c0,11.157-9.044,20.201-20.201,20.201c-11.157,0-20.202-9.044-20.202-20.201
					c0-11.157,9.045-20.201,20.202-20.201C767.219,1220.662,776.263,1229.706,776.263,1240.864z"/>
				<path style="fill:#FFFFFF;" d="M776.263,1300.057c0,11.157-9.044,20.202-20.201,20.202c-11.157,0-20.202-9.045-20.202-20.202
					c0-11.157,9.045-20.201,20.202-20.201C767.219,1279.856,776.263,1288.9,776.263,1300.057z"/>
			</g>
		</g>
		<g style="opacity:0.8;">
			<polygon style="fill:#FFFFFF;" points="1545.769,2540.351 1365.332,2549.77 1365.332,2273.474 1545.769,2267.005 			"/>
			<polygon style="fill:#FFFFFF;" points="1838.084,2525.092 1663.934,2534.183 1663.934,2173.401 1838.084,2168.095 			"/>
			<polygon style="fill:#FFFFFF;" points="2120.354,2510.358 1952.168,2519.137 1952.168,2047.887 2120.354,2043.966 			"/>
			<polygon style="fill:#FFFFFF;" points="2393.088,2496.121 2230.565,2504.605 2230.565,1888.877 2393.088,1886.635 			"/>
			<path style="fill:#FFFFFF;" d="M2326.823,1517.31c-13.227-7.626-30.55-3.907-38.599,8.426
				c-8.66,13.179-17.605,26.078-26.877,38.691c-173.08,235.261-457.531,374.64-857.587,412.297
				c-13.039,1.223-23.347,2.165-30.973,3.153c-4.99,0.657-12.096,1.6-19.017,4.376c-6.966,2.779-13.65,7.486-17.557,15.723
				c-6.778,14.31,0.8,30.454,16.852,36.103c3.999,1.411,8.189,2.025,12.237,1.931c4.615-0.094,9.18-1.131,13.276-2.873
				c5.838-0.894,18.406-2.117,30.55-3.294c73.241-7.155,242.227-23.584,423.451-91.037
				c203.111-75.596,361.739-191.814,474.663-345.689c10.026-13.602,19.674-27.535,28.948-41.753
				C2344.238,1541.08,2340.048,1524.936,2326.823,1517.31z"/>
			<path style="fill:#FFFFFF;" d="M2339.254,1677.916c-14.649,0.01-26.993-10.634-27.959-24.51l-7.996-114.847l-117.886,72.678
				c-13.11,8.067-30.884,4.762-39.69-7.423c-8.815-12.206-5.283-28.655,7.879-36.717l199.338-122.105l14.23,205.071
				c0.998,14.404-10.662,26.848-26.073,27.796C2340.48,1677.897,2339.863,1677.916,2339.254,1677.916z"/>
		</g>
		<g>
			<g>
				<g>
					
						<linearGradient id="SVGID_00000062882994173994263370000009207246675764450216_" gradientUnits="userSpaceOnUse" x1="2526.1282" y1="3146.8562" x2="2583.1296" y2="2788.2988">
						<stop  offset="0" style="stop-color:#A737D5"/>
						<stop  offset="1" style="stop-color:#EF497A"/>
					</linearGradient>
					
						<rect x="2533.529" y="2874.75" style="fill:url(#SVGID_00000062882994173994263370000009207246675764450216_);" width="26.373" height="285.207"/>
					
						<linearGradient id="SVGID_00000057140309036934721630000017093577885002786717_" gradientUnits="userSpaceOnUse" x1="2548.9856" y1="3150.4893" x2="2605.988" y2="2791.927">
						<stop  offset="0" style="stop-color:#A737D5"/>
						<stop  offset="1" style="stop-color:#EF497A"/>
					</linearGradient>
					<path style="fill:url(#SVGID_00000057140309036934721630000017093577885002786717_);" d="M2662.209,3165.456h-230.988l0,0
						c0-9.481,7.687-17.168,17.168-17.168h196.654C2654.524,3148.289,2662.209,3155.975,2662.209,3165.456L2662.209,3165.456z"/>
					
						<linearGradient id="SVGID_00000119104366689846377560000016804000087033528462_" gradientUnits="userSpaceOnUse" x1="2504.9448" y1="3143.4888" x2="2561.9465" y2="2784.9314">
						<stop  offset="0" style="stop-color:#A737D5"/>
						<stop  offset="1" style="stop-color:#EF497A"/>
					</linearGradient>
					<path style="fill:url(#SVGID_00000119104366689846377560000016804000087033528462_);" d="M2696.491,2864.852
						c0,15.599-12.762,28.361-28.362,28.361h-233.7c-15.599,0-28.362-12.762-28.362-28.361v-25.644
						c0-15.599,12.762-28.362,28.362-28.362h233.7c15.599,0,28.362,12.762,28.362,28.362V2864.852z"/>
				</g>
				<g>
					
						<linearGradient id="SVGID_00000021803232141484171940000011645039570741071754_" gradientUnits="userSpaceOnUse" x1="2258.9038" y1="2918.5623" x2="2446.4248" y2="2918.5623">
						<stop  offset="0" style="stop-color:#F9B776"/>
						<stop  offset="1" style="stop-color:#F47960"/>
					</linearGradient>
					<path style="fill:url(#SVGID_00000021803232141484171940000011645039570741071754_);" d="M2352.018,2684.583
						c0,0-39.189,6.075-83.25,35.53c-6.934,4.635-10.738,12.716-9.693,20.991c5.276,41.792,26.969,177.057,98.501,309.172
						c3.772,6.966,4.856,15.076,3.192,22.821l-12.428,57.835l-23.047,21.61h59.363l39.525-106.963l-16.901-5.344
						c-13.104-4.144-22.095-16.197-22.333-29.939l-1.983-114.741c1.692-51.12-31.345-86.391-31.345-86.391l94.805-4.612
						L2352.018,2684.583z"/>
					
						<linearGradient id="SVGID_00000078038263118692382970000013607857651961079980_" gradientUnits="userSpaceOnUse" x1="2373.6406" y1="3040.7507" x2="2346.0593" y2="3463.6633">
						<stop  offset="0" style="stop-color:#CB236D"/>
						<stop  offset="1" style="stop-color:#4C246D"/>
					</linearGradient>
					<path style="fill:url(#SVGID_00000078038263118692382970000013607857651961079980_);" d="M2302.113,3162.976
						c-5.406,7.075,58.187,16.412,90.316,0.936c0,0,44.538-77.489,44.538-117.386c0,0-3.535-8.135-29.686-6.291
						c0,0-14.954,91.751-30.745,102.029c-15.79,10.278-44.178,1.04-44.178,1.04S2310.09,3152.536,2302.113,3162.976z"/>
					
						<linearGradient id="SVGID_00000036253902868990310790000012387865704702196611_" gradientUnits="userSpaceOnUse" x1="2038.7235" y1="2931.3716" x2="2434.4297" y2="2931.3716">
						<stop  offset="0" style="stop-color:#F9B776"/>
						<stop  offset="1" style="stop-color:#F47960"/>
					</linearGradient>
					<path style="fill:url(#SVGID_00000036253902868990310790000012387865704702196611_);" d="M2434.43,2810.845
						c-0.505-0.873-102.072-12.212-102.072-12.212s3.324,30.882-7.064,73.393c-10.388,42.511-159.512,226.695-159.512,226.695
						l15.636,49.567c-48.345,16.841-95.9,19.533-142.694,8.584l96.902-58.151c0,0,90.689-309.053,146.239-364.187l101.81-35.223
						L2434.43,2810.845z"/>
					
						<linearGradient id="SVGID_00000102505126855566027380000003129978097787697040_" gradientUnits="userSpaceOnUse" x1="2282.8879" y1="2724.9456" x2="2726.1921" y2="2724.9456">
						<stop  offset="0" style="stop-color:#CB236D"/>
						<stop  offset="1" style="stop-color:#4C246D"/>
					</linearGradient>
					<path style="fill:url(#SVGID_00000102505126855566027380000003129978097787697040_);" d="M2662.209,2631.019
						c0,0,58.518,87.038,63.32,126.74c4.802,39.703-16.029,55.836-77.429,58.496c-61.4,2.66-225.314,2.617-225.314,2.617
						l-139.898-119.56c0,0,101.951-36.379,128.459-46.666C2437.853,2642.36,2662.209,2631.019,2662.209,2631.019z"/>
					
						<linearGradient id="SVGID_00000084517363632575773680000012670125452075428542_" gradientUnits="userSpaceOnUse" x1="2107.4841" y1="3023.3928" x2="2079.9028" y2="3446.3059">
						<stop  offset="0" style="stop-color:#CB236D"/>
						<stop  offset="1" style="stop-color:#4C246D"/>
					</linearGradient>
					<path style="fill:url(#SVGID_00000084517363632575773680000012670125452075428542_);" d="M2175.509,3131.596
						c0,0,16.834,16.305,5.462,34.446c0,0-133.353,23.637-169.559,12.912c0,0,7.518-17.159,48.287-36.69l-3.008,2.309
						c-3.807,2.923-1.574,9.01,3.217,8.737C2086.774,3151.778,2142.372,3146.857,2175.509,3131.596z"/>
				</g>
				<g>
					
						<linearGradient id="SVGID_00000119830701267582346560000004971567031781385122_" gradientUnits="userSpaceOnUse" x1="571.3632" y1="2053.8542" x2="91.2173" y2="2629.1379" gradientTransform="matrix(-1 0 0 1 2878.8965 0)">
						<stop  offset="0" style="stop-color:#2B3582"/>
						<stop  offset="1" style="stop-color:#150E42"/>
					</linearGradient>
					<path style="fill:url(#SVGID_00000119830701267582346560000004971567031781385122_);" d="M2396.729,2218.618
						c0,8.115,73.041,308.396,73.041,308.396l208.101,61.206c40.13,11.803,83.219-4.485,105.506-39.883h0.001
						c55.378-87.955,28.924-204.152-59.072-259.464l-29.472-18.525c-62.833-39.495-117.075-91.228-159.5-152.119l-11.1-15.931
						L2396.729,2218.618z"/>
					<path style="fill:#FFFFFF;" d="M2751.19,2508.751c-0.287,0-0.569-0.146-0.728-0.411c-0.24-0.403-0.111-0.924,0.29-1.166
						c24.613-14.788,26.972-48.377,26.845-62.13c-0.254-27.288-7.505-54.253-20.971-77.984
						c-24.213-42.671-66.118-71.693-106.641-99.761l-8.392-5.822c-41.426-28.816-87.181-63.805-105.809-114.49
						c-0.161-0.441,0.065-0.929,0.504-1.091c0.444-0.159,0.927,0.065,1.091,0.504c18.458,50.222,63.971,85.015,105.182,113.684
						l8.391,5.819c40.681,28.176,82.746,57.313,107.15,100.318c13.609,23.983,20.938,51.232,21.194,78.807
						c0.131,14.047-2.305,48.362-27.667,63.602C2751.49,2508.712,2751.339,2508.751,2751.19,2508.751z"/>
					<path style="fill:#FFFFFF;" d="M2734.313,2464.084c-0.055,0-0.109-0.005-0.166-0.017c-0.459-0.09-0.76-0.536-0.668-0.997
						c5.474-27.845,4.656-52.706-2.427-73.893c-12.821-38.341-46.871-66.252-75.102-86.285c-5.683-4.032-11.548-8.07-17.222-11.974
						c-26.191-18.025-53.277-36.663-72.941-62.075c-0.287-0.37-0.219-0.904,0.153-1.191c0.368-0.287,0.902-0.222,1.19,0.153
						c19.502,25.201,46.477,43.763,72.562,61.714c5.678,3.908,11.549,7.949,17.24,11.987c28.442,20.184,62.753,48.325,75.732,87.134
						c7.177,21.467,8.012,46.621,2.481,74.759C2735.064,2463.804,2734.709,2464.084,2734.313,2464.084z"/>
					
						<linearGradient id="SVGID_00000005259069934338120170000011900613791091080120_" gradientUnits="userSpaceOnUse" x1="2478.1172" y1="2357.8833" x2="2688.3804" y2="2815.5144">
						<stop  offset="0" style="stop-color:#FDF53F"/>
						<stop  offset="0.6645" style="stop-color:#E57A58"/>
						<stop  offset="1" style="stop-color:#D93C65"/>
					</linearGradient>
					<path style="fill:url(#SVGID_00000005259069934338120170000011900613791091080120_);" d="M2503.955,2619.497
						c0,0-68.144-64.887-101.688-107.864c-18.132-23.232-23.826-53.815-15.44-82.067c15.314-51.594,42.53-105.032,45.012-113.35
						c3.804-12.748,80.211-12.218,80.211-12.218s150.355,97.581,209.43,262.877l-66.345,20.654c0,0-39.258-65.862-78.046-107.736
						c0,0,67.118,88.666,69.482,124.964L2503.955,2619.497z"/>
					
						<linearGradient id="SVGID_00000083787951420324707390000009557488444150459289_" gradientUnits="userSpaceOnUse" x1="2482.9451" y1="2414.2219" x2="2456.2336" y2="2242.8254">
						<stop  offset="0" style="stop-color:#F9B776"/>
						<stop  offset="1" style="stop-color:#F47960"/>
					</linearGradient>
					<path style="fill:url(#SVGID_00000083787951420324707390000009557488444150459289_);" d="M2411.304,2227.464
						c0.798,2.651,32.035,86.268,33.595,87.639c1.56,1.373,43.736,3.641,63.587-9.927l-49.243-96.32L2411.304,2227.464z"/>
					
						<linearGradient id="SVGID_00000139287102966583636990000009677918154718340505_" gradientUnits="userSpaceOnUse" x1="2596.8125" y1="2608.1787" x2="2968.5308" y2="2608.1787">
						<stop  offset="0" style="stop-color:#F9B776"/>
						<stop  offset="1" style="stop-color:#F47960"/>
					</linearGradient>
					<path style="fill:url(#SVGID_00000139287102966583636990000009677918154718340505_);" d="M2365.129,2624.314l50.067-48.258
						l69.261,29.259c0,0,68.941,10.681,108.399,0c39.458-10.682,39.458-10.682,39.458-10.682l89.167-27.759l14.004,39.577
						c3.556,10.048-0.017,21.204-8.706,27.378c-7.714,5.482-16.757,11.506-22.52,14.027c-11.742,5.137-289.463-3.554-289.463-3.554
						L2365.129,2624.314z"/>
					
						<linearGradient id="SVGID_00000151517324889428034390000005547937894639338153_" gradientUnits="userSpaceOnUse" x1="812.7158" y1="1636.4576" x2="992.7278" y2="1758.7299" gradientTransform="matrix(0.9984 -0.0567 0.0567 0.9984 1458.3737 548.8018)">
						<stop  offset="0" style="stop-color:#F9B776"/>
						<stop  offset="1" style="stop-color:#F47960"/>
					</linearGradient>
					<path style="fill:url(#SVGID_00000151517324889428034390000005547937894639338153_);" d="M2419.411,2089.169
						c0,0-36.123,17.729-58.25,72.639c-22.128,54.908-1.934,78.534,21.864,80.583c23.798,2.05,59.068-0.471,94.447-37.138
						C2512.849,2168.585,2466.469,2067.913,2419.411,2089.169z"/>
					
						<linearGradient id="SVGID_00000178903075111639709600000003663061420632487102_" gradientUnits="userSpaceOnUse" x1="1073.1227" y1="1491.9436" x2="584.9298" y2="2076.8689" gradientTransform="matrix(-0.9984 0.0567 0.0567 0.9984 3336.3628 442.2276)">
						<stop  offset="0" style="stop-color:#2B3582"/>
						<stop  offset="1" style="stop-color:#150E42"/>
					</linearGradient>
					<path style="fill:url(#SVGID_00000178903075111639709600000003663061420632487102_);" d="M2450.75,2178.126
						c0,0,23.479-79.829-45.944-76.815l-15.676,12.335c0,0-27.916-41.935,12.684-65.014c40.6-23.08,103.982-8.182,124.957,47.091
						c20.973,55.273,12.632,92.207-15.417,120.814c-28.047,28.608-41.97-1.233-41.97-1.233s14.677-26.101,7.355-39.203
						c-7.323-13.103-21.522,4.019-21.522,4.019L2450.75,2178.126z"/>
					
						<linearGradient id="SVGID_00000036237326701525055730000006715532053426648729_" gradientUnits="userSpaceOnUse" x1="830.5992" y1="1746.4552" x2="1029.1981" y2="1881.3524" gradientTransform="matrix(0.914 0.4056 -0.4056 0.914 2348.6414 150.2314)">
						<stop  offset="0" style="stop-color:#F9B776"/>
						<stop  offset="1" style="stop-color:#F47960"/>
					</linearGradient>
					<path style="fill:url(#SVGID_00000036237326701525055730000006715532053426648729_);" d="M2450.997,2192.086
						c0,0,32.323-34.38,44.15-9.727c11.827,24.653-32.146,30.742-48.719,31.68L2450.997,2192.086z"/>
				</g>
				<g>
					
						<linearGradient id="SVGID_00000017492801103504429420000005670032755268393614_" gradientUnits="userSpaceOnUse" x1="2512.3904" y1="2752.3462" x2="2278.3909" y2="2816.4792" gradientTransform="matrix(0.9988 -0.0494 0.0494 0.9988 -41.469 -55.0328)">
						<stop  offset="0" style="stop-color:#2B3582"/>
						<stop  offset="1" style="stop-color:#150E42"/>
					</linearGradient>
					<path style="fill:url(#SVGID_00000017492801103504429420000005670032755268393614_);" d="M2554.598,2647.065
						c-0.222,0.011-0.445,0.017-0.668,0.015l-290.428-0.317c-7.18-0.006-12.993-5.832-12.986-13.012
						c0.007-7.182,5.854-13.115,13.015-12.986l290.428,0.317c7.18,0.006,12.993,5.833,12.986,13.012
						C2566.937,2641.05,2561.467,2646.725,2554.598,2647.065z"/>
					
						<linearGradient id="SVGID_00000142866830744150162510000014600252541477034406_" gradientUnits="userSpaceOnUse" x1="2287.1653" y1="2418.7327" x2="2121.1321" y2="2594.2197">
						<stop  offset="0" style="stop-color:#2B3582"/>
						<stop  offset="1" style="stop-color:#150E42"/>
					</linearGradient>
					<path style="fill:url(#SVGID_00000142866830744150162510000014600252541477034406_);" d="M2002.42,2383.374h241.87
						c17.843,0,34.083,10.297,41.694,26.435l111.816,237.101h-300.58c-11.499,0-21.83-7.026-26.056-17.719l-86.709-219.401
						C1979.446,2397.112,1988.788,2383.374,2002.42,2383.374z"/>
					
						<linearGradient id="SVGID_00000032606410209657663010000001429971532519999132_" gradientUnits="userSpaceOnUse" x1="2186.7908" y1="2462.4277" x2="2111.4556" y2="2575.874">
						<stop  offset="0" style="stop-color:#53D8FF"/>
						<stop  offset="1" style="stop-color:#3840F7"/>
					</linearGradient>
					<path style="fill:url(#SVGID_00000032606410209657663010000001429971532519999132_);" d="M2172.82,2504.943
						c5.242,16.283,1.37,32.098-8.648,35.323c-10.018,3.224-22.388-7.363-27.629-23.647c-5.242-16.284-1.369-32.099,8.649-35.324
						C2155.209,2478.071,2167.579,2488.658,2172.82,2504.943z"/>
				</g>
			</g>
			<g>
				<g>
					
						<linearGradient id="SVGID_00000033335231545201874310000010546997841610169278_" gradientUnits="userSpaceOnUse" x1="-9526.1416" y1="3436.0005" x2="-9523.6904" y2="3695.8792" gradientTransform="matrix(-1 0 0 1 -6719.2798 0)">
						<stop  offset="0" style="stop-color:#2B3582"/>
						<stop  offset="1" style="stop-color:#150E42"/>
					</linearGradient>
					<path style="fill:url(#SVGID_00000033335231545201874310000010546997841610169278_);" d="M2885.708,3129.507
						c0,0,3.048,16.925,4.252,37.018c0.513,8.562-5.832,16.001-14.369,16.829c-29.727,2.883-97.393,8.207-140.6,1.972
						c-6.052-0.874-8.456-8.308-3.982-12.476c17.816-16.598,60.84-48.885,131.656-55.943L2885.708,3129.507z"/>
					
						<linearGradient id="SVGID_00000070088281671949888240000015630128866920869251_" gradientUnits="userSpaceOnUse" x1="-9588.7852" y1="3145.7813" x2="-9602.2695" y2="3040.3599" gradientTransform="matrix(-1 0 0 1 -6719.2798 0)">
						<stop  offset="0" style="stop-color:#F9B776"/>
						<stop  offset="1" style="stop-color:#F47960"/>
					</linearGradient>
					<path style="fill:url(#SVGID_00000070088281671949888240000015630128866920869251_);" d="M2900.487,3091.355l-15.03,36.839
						c-2.06,5.048-7.181,8.187-12.604,7.619c-3.68-0.385-8.038-1.091-12.278-2.378c-8.482-2.574-13.266-11.565-10.727-20.058
						l11.344-37.944L2900.487,3091.355z"/>
					
						<linearGradient id="SVGID_00000134953269360840942540000008828870409282148502_" gradientUnits="userSpaceOnUse" x1="-9877.2539" y1="3439.3105" x2="-9874.8018" y2="3699.187" gradientTransform="matrix(-1 0 0 1 -6719.2798 0)">
						<stop  offset="0" style="stop-color:#2B3582"/>
						<stop  offset="1" style="stop-color:#150E42"/>
					</linearGradient>
					<path style="fill:url(#SVGID_00000134953269360840942540000008828870409282148502_);" d="M3157.448,3158.848
						c0,0-30.097,25.182-41.823,57.483c-3.226,8.884,3.592,18.243,13.043,18.243h61.935c9.065,0,16.015-8.155,14.436-17.081
						C3201.093,3195.188,3189.717,3158.942,3157.448,3158.848z"/>
					
						<linearGradient id="SVGID_00000026856932231670079750000013488188606237572776_" gradientUnits="userSpaceOnUse" x1="-9883.501" y1="3181.9128" x2="-9896.6416" y2="3079.1821" gradientTransform="matrix(-1 0 0 1 -6719.2798 0)">
						<stop  offset="0" style="stop-color:#F9B776"/>
						<stop  offset="1" style="stop-color:#F47960"/>
					</linearGradient>
					<path style="fill:url(#SVGID_00000026856932231670079750000013488188606237572776_);" d="M3194.731,3126.075
						c0,0-6.079,26.908-10.752,44.69c-0.848,3.228-4.292,4.999-7.435,3.875c-9.374-3.351-17-4.833-22.545-4.089
						c-2.563,0.344-4.8-1.788-4.834-4.374l-0.582-44.693L3194.731,3126.075z"/>
					
						<linearGradient id="SVGID_00000078724192181863060590000012072534210764315325_" gradientUnits="userSpaceOnUse" x1="-9975.3271" y1="2791.553" x2="-9570.8799" y2="2791.553" gradientTransform="matrix(-1 0 0 1 -6719.2798 0)">
						<stop  offset="0" style="stop-color:#2B3582"/>
						<stop  offset="1" style="stop-color:#150E42"/>
					</linearGradient>
					<path style="fill:url(#SVGID_00000078724192181863060590000012072534210764315325_);" d="M3034.665,2520.596L2851.6,3079.078
						c0,0,35.113,22.996,51.841,22.038l217.439-448.831c0,0,38.05,276.554,19.612,475.099l62.28,4.751
						c0,0,101.269-507.382,24.565-681.164L3034.665,2520.596z"/>
					
						<linearGradient id="SVGID_00000041979848931065194790000006202268684431768464_" gradientUnits="userSpaceOnUse" x1="-9891.4365" y1="2729.5015" x2="-9876.7266" y2="2700.0813" gradientTransform="matrix(-1 0 0 1 -6719.2798 0)">
						<stop  offset="0" style="stop-color:#53D8FF"/>
						<stop  offset="1" style="stop-color:#3840F7"/>
					</linearGradient>
					<path style="fill:url(#SVGID_00000041979848931065194790000006202268684431768464_);" d="M3119.703,2647.46
						c0.072,0,0.148-0.005,0.223-0.014c0.971-0.123,1.66-1.009,1.537-1.98l-7.104-56.388c-0.121-0.97-0.999-1.646-1.981-1.537
						c-0.971,0.123-1.66,1.009-1.537,1.98l7.104,56.387C3118.059,2646.805,3118.822,2647.46,3119.703,2647.46z"/>
				</g>
				
					<linearGradient id="SVGID_00000159429047776802287740000010868864655533389991_" gradientUnits="userSpaceOnUse" x1="-9649.3691" y1="2111.5293" x2="-9901.8906" y2="2861.7393" gradientTransform="matrix(-1 0 0 1 -6719.2798 0)">
					<stop  offset="0" style="stop-color:#A737D5"/>
					<stop  offset="1" style="stop-color:#EF497A"/>
				</linearGradient>
				<path style="fill:url(#SVGID_00000159429047776802287740000010868864655533389991_);" d="M3000.343,2029.161
					c0,0,148.317,13.17,127.336,118.849c0,0,81.986,154.288,120.316,336.038c1.248,5.914-2.715,11.683-8.672,12.703l-246.997,42.29
					c-6.814,1.167-13.385-3.083-15.116-9.775l-59.016-228.084l-22.997,106.044l-73.072-19.04l61.514-311.609
					C2883.639,2076.578,2892.221,2031.115,3000.343,2029.161z"/>
				
					<linearGradient id="SVGID_00000131356066453645098460000012589974225818221489_" gradientUnits="userSpaceOnUse" x1="-5066.6172" y1="-5920.397" x2="-6169.6733" y2="-3945.6587" gradientTransform="matrix(-1 0 0 1 -6719.2798 0)">
					<stop  offset="0" style="stop-color:#CB236D"/>
					<stop  offset="1" style="stop-color:#4C246D"/>
				</linearGradient>
				<path style="fill:url(#SVGID_00000131356066453645098460000012589974225818221489_);" d="M2916.939,2290.98
					c0.129,0,0.26-0.012,0.393-0.041c0.991-0.217,1.621-1.196,1.406-2.188l-20.589-94.538c-0.218-0.991-1.183-1.616-2.189-1.406
					c-0.991,0.217-1.622,1.196-1.406,2.189l20.589,94.538C2915.332,2290.393,2916.092,2290.98,2916.939,2290.98z"/>
				
					<linearGradient id="SVGID_00000071551796694147722830000013260778710702104228_" gradientUnits="userSpaceOnUse" x1="-9784.1885" y1="2507.1914" x2="-9600.0244" y2="2507.1914" gradientTransform="matrix(-1 0 0 1 -6719.2798 0)">
					<stop  offset="0" style="stop-color:#F9B776"/>
					<stop  offset="1" style="stop-color:#F47960"/>
				</linearGradient>
				<path style="fill:url(#SVGID_00000071551796694147722830000013260778710702104228_);" d="M2931.847,2572.3
					c7.781-4.278,16.889-5.462,25.505-3.318l17.184,4.278c3.654,0.909,7.272-1.606,7.692-5.347l17.784-158.287
					c22.236,10.559,54.316,9.298,64.895,8.525l-40.931,186.608h-143.233L2931.847,2572.3z"/>
				
					<linearGradient id="SVGID_00000154387078504452580210000013752122177321190330_" gradientUnits="userSpaceOnUse" x1="-9614.4766" y1="2276.3311" x2="-9270.5596" y2="2276.3311" gradientTransform="matrix(-1 0 0 1 -6719.2798 0)">
					<stop  offset="0" style="stop-color:#F9B776"/>
					<stop  offset="1" style="stop-color:#F47960"/>
				</linearGradient>
				<path style="fill:url(#SVGID_00000154387078504452580210000013752122177321190330_);" d="M2551.28,2228.956l4.329-14.388
					c2.492-8.28,8.613-14.978,16.635-18.204l78.3-31.488c0,0,1.182-10.042-16.544-16.866c-17.726-6.824-13.582-26.676-13.582-26.676
					s24.218,11.048,59.67,28.568c20.276,10.021,31.652,27.711,37.684,41.028l177.426,216.296l-20.831,14.313
					c-27.392,18.821-65.066,9.575-80.633-19.788l-96.118-184.313C2649.358,2231.935,2600.527,2234.707,2551.28,2228.956z"/>
				<g>
					
						<linearGradient id="SVGID_00000152226239678917551510000004685121476061314202_" gradientUnits="userSpaceOnUse" x1="-9738.293" y1="2083.4399" x2="-9618.6016" y2="1960.6396" gradientTransform="matrix(-1 0 0 1 -6719.2798 0)">
						<stop  offset="0" style="stop-color:#F9B776"/>
						<stop  offset="1" style="stop-color:#F47960"/>
					</linearGradient>
					<path style="fill:url(#SVGID_00000152226239678917551510000004685121476061314202_);" d="M2952.294,1928.258l45.618,127.674
						c0,0-40.395,31.58-69.873,20.902l-22.988-73.185C2905.052,2003.648,2922.609,1914.201,2952.294,1928.258z"/>
					<g>
						
							<linearGradient id="SVGID_00000183943558496902022540000001557470089612097714_" gradientUnits="userSpaceOnUse" x1="-9564.71" y1="1883.2688" x2="-9713.9355" y2="2080.6816" gradientTransform="matrix(-1 0 0 1 -6719.2798 0)">
							<stop  offset="0" style="stop-color:#F9B776"/>
							<stop  offset="1" style="stop-color:#F47960"/>
						</linearGradient>
						<path style="fill:url(#SVGID_00000183943558496902022540000001557470089612097714_);" d="M2816.146,1882.406
							c0,1.967,43.943,124.396,43.943,124.396l69.372-26.577l-24.409-122.225
							C2905.052,1858.001,2816.146,1849.469,2816.146,1882.406z"/>
						
							<linearGradient id="SVGID_00000024696601151587517360000005591613425258500008_" gradientUnits="userSpaceOnUse" x1="-9678.6758" y1="1930.8894" x2="-9500.4238" y2="1930.8894" gradientTransform="matrix(-1 0 0 1 -6719.2798 0)">
							<stop  offset="0" style="stop-color:#2B3582"/>
							<stop  offset="1" style="stop-color:#150E42"/>
						</linearGradient>
						<path style="fill:url(#SVGID_00000024696601151587517360000005591613425258500008_);" d="M2892.883,1887.778l17.888,63.336
							c0.229,0.812,0.347,1.63,0.348,2.474c0.007,5.166-1.272,22.941-19.378,20.523c-16.429-2.194-31.455-3.952-41.009,0.549
							c-4.29,2.02-6.343,6.957-4.74,11.42c3.996,11.122,13.462,36.019,24.987,56.395c2.339,4.135,7.469,5.742,11.792,3.775
							c13.029-5.928,40.158-19.199,59.482-34.987c2.618-2.139,3.876-5.504,3.253-8.827c-3.04-16.202-12.096-65.479-12.496-79.601
							c-0.375-13.255,14.499-23.374,21.047-27.178c2.147-1.247,3.674-3.301,4.255-5.714c2.055-8.532,3.8-27.84-20.829-32.096
							c-5.155-0.891-8.516-5.825-7.469-10.95c2.084-10.203,1.417-25.219-17.959-30.749c-19.695-5.621-32.087,6.234-38.39,15.324
							c-2.548,3.676-7.317,4.868-11.4,3.043c-2.325-1.039-5.134-1.085-8.152,1.46c-4.066,3.429-10.258,2.385-13.247-2.015
							c-5.743-8.453-16.175-16.89-33.838-11.176c-31.342,10.141-29.844,46.276-18.355,65.92
							c11.488,19.644,44.844,6.718,60.634-6.299c12.005-9.897,30.285-3.977,38.358-0.57
							C2890.223,1882.915,2892.128,1885.106,2892.883,1887.778z"/>
						
							<linearGradient id="SVGID_00000172416375025833026320000007716351813884643495_" gradientUnits="userSpaceOnUse" x1="-9783.2666" y1="2039.6038" x2="-9663.5762" y2="1916.8046" gradientTransform="matrix(-1 0 0 1 -6719.2798 0)">
							<stop  offset="0" style="stop-color:#F9B776"/>
							<stop  offset="1" style="stop-color:#F47960"/>
						</linearGradient>
						<path style="fill:url(#SVGID_00000172416375025833026320000007716351813884643495_);" d="M2939.293,1945.96
							c0,0-18.549-35.089-6.283-46.107c12.266-11.019,33.047-9.216,32.488,18.223
							C2964.803,1952.206,2939.293,1945.96,2939.293,1945.96z"/>
					</g>
				</g>
				
					<linearGradient id="SVGID_00000083770828187410883450000003762887153187395205_" gradientUnits="userSpaceOnUse" x1="-5162.125" y1="-5973.7437" x2="-6265.1792" y2="-3999.0088" gradientTransform="matrix(-1 0 0 1 -6719.2798 0)">
					<stop  offset="0" style="stop-color:#CB236D"/>
					<stop  offset="1" style="stop-color:#4C246D"/>
				</linearGradient>
				<path style="fill:url(#SVGID_00000083770828187410883450000003762887153187395205_);" d="M3050.515,2420.524
					c10.123,0,17.348-0.769,18.129-0.855l1.316-0.147l54.007-251.798c0.214-0.993-0.419-1.972-1.412-2.184
					c-1.004-0.221-1.97,0.42-2.184,1.412l-53.446,249.185c-8.037,0.707-50.958,3.556-73.615-12.496l46.784-218.763l-9.765-18.401
					c-0.475-0.898-1.589-1.239-2.487-0.764c-0.898,0.478-1.239,1.589-0.763,2.487l9.14,17.22l-46.999,219.77l0.938,0.706
					C3006.531,2418.196,3032.902,2420.524,3050.515,2420.524z"/>
			</g>
			<g>
				
					<linearGradient id="SVGID_00000020392377833918916540000010061242979242242443_" gradientUnits="userSpaceOnUse" x1="-9566.5801" y1="2601.9407" x2="-9816.1914" y2="2763.7515" gradientTransform="matrix(-1 0 0 1 -6719.2798 0)">
					<stop  offset="0" style="stop-color:#53D8FF"/>
					<stop  offset="1" style="stop-color:#3840F7"/>
				</linearGradient>
				<path style="fill:url(#SVGID_00000020392377833918916540000010061242979242242443_);" d="M2742.174,2641.187l285.832,0v-29.498
					h-285.832C2748.292,2611.689,2748.292,2641.187,2742.174,2641.187z"/>
				
					<linearGradient id="SVGID_00000034783164572216442550000005641567323023638958_" gradientUnits="userSpaceOnUse" x1="-1811.5658" y1="2789.2283" x2="-1812.7911" y2="2715.7043" gradientTransform="matrix(-1 0 0 1 1080.7203 0)">
					<stop  offset="0" style="stop-color:#FDF53F"/>
					<stop  offset="0.6645" style="stop-color:#E57A58"/>
					<stop  offset="1" style="stop-color:#D93C65"/>
				</linearGradient>
				<path style="fill:url(#SVGID_00000034783164572216442550000005641567323023638958_);" d="M3027.006,2641.187c0.55,0,1-0.45,1-1
					v-27.497c0-0.55-0.45-1-1-1h-292.548c-0.55,0-1-0.45-1-1v-4.67c0-0.55,0.45-1,1-1h309.914c6.818,0,12.344,5.527,12.344,12.344
					v18.853c0,6.428-5.21,11.639-11.639,11.639h-310.619c-0.55,0-1-0.45-1-1v-4.669c0-0.55,0.45-1,1-1H3027.006z"/>
			</g>
			<g>
				<g>
					
						<linearGradient id="SVGID_00000060720498043050238790000013713056822067063985_" gradientUnits="userSpaceOnUse" x1="1822.9705" y1="2941.9614" x2="2039.1436" y2="2941.9614">
						<stop  offset="0" style="stop-color:#9CFFFB"/>
						<stop  offset="1" style="stop-color:#9BFFFA"/>
					</linearGradient>
					<path style="fill:url(#SVGID_00000060720498043050238790000013713056822067063985_);" d="M1832.378,3202.603
						c-1.241,0-2.501-0.271-3.714-0.839c-4.774-2.242-6.979-8.283-4.925-13.493l197.349-500.738
						c2.052-5.209,7.584-7.614,12.362-5.376c4.774,2.242,6.979,8.283,4.926,13.493l-197.348,500.737
						C1839.496,3200.274,1836.025,3202.603,1832.378,3202.603z"/>
					
						<linearGradient id="SVGID_00000063622241201443560270000003484371932805262238_" gradientUnits="userSpaceOnUse" x1="1847.9344" y1="2941.9604" x2="2064.1077" y2="2941.9604">
						<stop  offset="0" style="stop-color:#9CFFFB"/>
						<stop  offset="1" style="stop-color:#9BFFFA"/>
					</linearGradient>
					<path style="fill:url(#SVGID_00000063622241201443560270000003484371932805262238_);" d="M2054.7,3202.603
						c-3.646,0-7.117-2.326-8.648-6.215l-197.349-500.737c-2.053-5.211,0.152-11.252,4.926-13.493
						c4.771-2.242,10.307,0.164,12.363,5.376l197.348,500.738c2.054,5.21-0.151,11.251-4.925,13.493
						C2057.203,3202.332,2055.941,3202.603,2054.7,3202.603z"/>
					
						<linearGradient id="SVGID_00000165939034453618258900000017299192165760629139_" gradientUnits="userSpaceOnUse" x1="2761.4014" y1="2930.9819" x2="2977.5745" y2="2930.9819">
						<stop  offset="0" style="stop-color:#9CFFFB"/>
						<stop  offset="1" style="stop-color:#9BFFFA"/>
					</linearGradient>
					<path style="fill:url(#SVGID_00000165939034453618258900000017299192165760629139_);" d="M2770.809,3191.623
						c-1.24,0-2.501-0.271-3.714-0.839c-4.773-2.242-6.979-8.282-4.925-13.493l197.348-500.738
						c2.054-5.209,7.583-7.614,12.363-5.376c4.773,2.242,6.979,8.283,4.925,13.493l-197.348,500.737
						C2777.926,3189.294,2774.455,3191.623,2770.809,3191.623z"/>
					
						<linearGradient id="SVGID_00000005949081608227666000000010606848008518337952_" gradientUnits="userSpaceOnUse" x1="2786.3635" y1="2930.981" x2="3002.5371" y2="2930.981">
						<stop  offset="0" style="stop-color:#9CFFFB"/>
						<stop  offset="1" style="stop-color:#9BFFFA"/>
					</linearGradient>
					<path style="fill:url(#SVGID_00000005949081608227666000000010606848008518337952_);" d="M2993.129,3191.623
						c-3.646,0-7.117-2.326-8.649-6.215l-197.348-500.737c-2.054-5.211,0.152-11.252,4.925-13.493
						c4.771-2.242,10.307,0.164,12.363,5.376l197.348,500.738c2.054,5.211-0.151,11.251-4.925,13.493
						C2995.632,3191.353,2994.37,3191.623,2993.129,3191.623z"/>
				</g>
				
					<linearGradient id="SVGID_00000147206769342793853450000014020939826195851694_" gradientUnits="userSpaceOnUse" x1="1735.8656" y1="2675.2039" x2="3069.7461" y2="2675.2039">
					<stop  offset="0" style="stop-color:#9CFFFB"/>
					<stop  offset="1" style="stop-color:#9BFFFA"/>
				</linearGradient>
				<path style="fill:url(#SVGID_00000147206769342793853450000014020939826195851694_);" d="M3069.511,2661.07
					c0.732-3.293-0.265-6.698-2.719-9.284c-2.454-2.587-6.108-4.086-9.964-4.086H1750.731c-5.07,0-9.791,2.248-12.523,5.964
					c-2.732,3.716-3.098,8.386-0.972,12.39l14.154,26.645c3.241,6.102,10.263,10.008,17.991,10.008h1278.486
					c7.188,0,13.367-4.434,14.732-10.573L3069.511,2661.07z"/>
			</g>
		</g>
		<g>
			<g>
				<g style="opacity:0.3;">
					
						<linearGradient id="SVGID_00000160183734586986702190000004276812963329808541_" gradientUnits="userSpaceOnUse" x1="1931.328" y1="-2288.7859" x2="2260.376" y2="-2288.7859" gradientTransform="matrix(0.5626 0.8268 -0.8268 0.5626 -65.993 1016.5013)">
						<stop  offset="0" style="stop-color:#B37CFF"/>
						<stop  offset="1" style="stop-color:#F895E7"/>
					</linearGradient>
					<path style="fill:url(#SVGID_00000160183734586986702190000004276812963329808541_);" d="M2809.441,1404.476
						c-1.64-2.411-1.228-5.721,1.048-7.644c4.976-4.208,10.21-8.261,15.554-12.049c2.6-1.843,6.201-1.23,8.043,1.37
						c0.022,0.032,0.042,0.062,0.063,0.093c1.763,2.592,1.135,6.13-1.435,7.95c-5.078,3.598-10.048,7.449-14.776,11.445
						c-2.432,2.057-6.073,1.753-8.131-0.681C2809.676,1404.805,2809.554,1404.642,2809.441,1404.476z M2851.202,1376.511
						c-0.127-0.186-0.244-0.383-0.351-0.588c-1.471-2.826-0.372-6.311,2.455-7.781c5.806-3.02,11.799-5.822,17.811-8.326
						c2.941-1.226,6.306,0.158,7.546,3.106c1.225,2.942-0.168,6.319-3.107,7.544c-5.715,2.381-11.407,5.043-16.925,7.914
						C2856.009,1379.742,2852.824,1378.895,2851.202,1376.511z M2898.082,1358.436c-0.361-0.531-0.64-1.132-0.811-1.789
						c-0.803-3.083,1.043-6.235,4.126-7.039c6.319-1.65,12.789-3.045,19.23-4.146c3.141-0.535,6.119,1.578,6.659,4.715
						c0.536,3.14-1.575,6.122-4.715,6.659c-6.117,1.045-12.259,2.37-18.261,3.936
						C2901.885,1361.405,2899.415,1360.396,2898.082,1358.436z M2947.836,1351.296c-0.597-0.878-0.959-1.93-0.993-3.07
						c-0.095-3.184,2.41-5.843,5.594-5.938c6.533-0.193,13.153-0.107,19.675,0.257c3.178,0.18,5.613,2.901,5.438,6.082
						c-0.177,3.18-2.901,5.615-6.082,5.439c-6.194-0.346-12.481-0.429-18.689-0.243
						C2950.735,1353.883,2948.908,1352.872,2947.836,1351.296z M2997.933,1355.431c-0.837-1.231-1.201-2.782-0.891-4.358
						c0.614-3.127,3.647-5.163,6.772-4.548c6.397,1.257,12.831,2.806,19.12,4.605c3.064,0.874,4.839,4.067,3.962,7.132
						c-0.876,3.063-4.069,4.836-7.134,3.961c-5.978-1.711-12.093-3.183-18.172-4.378
						C3000.039,1357.541,2998.757,1356.642,2997.933,1355.431z M3045.863,1370.544c-1.084-1.594-1.347-3.694-0.508-5.586
						c1.291-2.913,4.698-4.228,7.611-2.939c5.97,2.645,11.903,5.579,17.628,8.722c2.794,1.534,3.814,5.041,2.281,7.834
						c-1.531,2.792-5.04,3.813-7.833,2.281c-5.442-2.986-11.076-5.775-16.749-8.288
						C3047.271,1372.116,3046.448,1371.403,3045.863,1370.544z M3176.143,1537.595c-0.449-0.66-0.767-1.424-0.912-2.262
						c-1.054-6.108-2.389-12.252-3.97-18.261c-0.81-3.081,1.031-6.236,4.111-7.045c3.081-0.812,6.236,1.029,7.047,4.111
						c1.665,6.328,3.072,12.799,4.183,19.231c0.542,3.141-1.564,6.125-4.704,6.667
						C3179.596,1540.434,3177.377,1539.408,3176.143,1537.595z M3089.225,1395.886c-1.346-1.979-1.364-4.672,0.148-6.697
						c1.907-2.554,5.521-3.078,8.074-1.172c5.233,3.906,10.36,8.088,15.239,12.429c2.37,2.128,2.595,5.764,0.475,8.145
						c-2.118,2.38-5.765,2.592-8.146,0.474c-4.632-4.123-9.5-8.094-14.47-11.803
						C3090.018,1396.867,3089.576,1396.401,3089.225,1395.886z M3162.064,1489.351c-0.214-0.315-0.402-0.655-0.555-1.02
						c-2.396-5.721-5.073-11.413-7.951-16.92c-1.475-2.825-0.382-6.31,2.441-7.786c2.824-1.474,6.321-0.392,7.786,2.441
						c3.027,5.795,5.844,11.785,8.366,17.804c1.231,2.939-0.153,6.32-3.091,7.551
						C3166.488,1492.5,3163.575,1491.572,3162.064,1489.351z M3125.839,1430.279c-1.638-2.407-1.229-5.712,1.04-7.638
						c2.43-2.062,6.07-1.764,8.133,0.664c4.221,4.974,8.285,10.197,12.074,15.526c0.025,0.032,0.048,0.067,0.071,0.1
						c1.761,2.588,1.136,6.12-1.426,7.944c-2.597,1.848-6.199,1.241-8.045-1.356c-3.601-5.061-7.461-10.021-11.473-14.746
						C3126.08,1430.613,3125.954,1430.448,3125.839,1430.279z"/>
					
						<linearGradient id="SVGID_00000071541884421289815890000001227274655265983651_" gradientUnits="userSpaceOnUse" x1="2276.3713" y1="-2375.4507" x2="2295.5884" y2="-2375.4507" gradientTransform="matrix(0.5626 0.8268 -0.8268 0.5626 -65.993 1016.5013)">
						<stop  offset="0" style="stop-color:#B37CFF"/>
						<stop  offset="1" style="stop-color:#F895E7"/>
					</linearGradient>
					<path style="fill:url(#SVGID_00000071541884421289815890000001227274655265983651_);" d="M3179.395,1577.974
						c-0.639-0.939-1.009-2.076-0.997-3.299c0.031-2.974-0.001-5.998-0.091-8.99c-0.098-3.184,2.406-5.846,5.59-5.942
						c3.185-0.098,5.85,2.405,5.941,5.592c0.097,3.146,0.129,6.327,0.098,9.457c-0.032,3.185-2.642,5.743-5.826,5.71
						C3182.146,1580.483,3180.422,1579.484,3179.395,1577.974z"/>
				</g>
				<g style="opacity:0.3;">
					
						<linearGradient id="SVGID_00000003102306553998419190000001223012193159592620_" gradientUnits="userSpaceOnUse" x1="2376.1169" y1="-2228.605" x2="2389.304" y2="-2228.605" gradientTransform="matrix(0.5626 0.8268 -0.8268 0.5626 -65.993 1016.5013)">
						<stop  offset="0" style="stop-color:#B37CFF"/>
						<stop  offset="1" style="stop-color:#F895E7"/>
					</linearGradient>
					<path style="fill:url(#SVGID_00000003102306553998419190000001223012193159592620_);" d="M3109.066,1739.188
						c-1.566-2.302-1.276-5.464,0.814-7.437c2.163-2.04,4.321-4.161,6.41-6.302c2.226-2.281,5.878-2.325,8.158-0.1
						c2.289,2.235,2.324,5.879,0.1,8.159c-2.201,2.254-4.472,4.487-6.75,6.637c-2.318,2.186-5.969,2.08-8.156-0.237
						C3109.429,1739.681,3109.237,1739.439,3109.066,1739.188z"/>
					
						<linearGradient id="SVGID_00000017509829155573118150000007866264908543941820_" gradientUnits="userSpaceOnUse" x1="2053.1951" y1="-2078.6067" x2="2392.1221" y2="-2078.6067" gradientTransform="matrix(0.5626 0.8268 -0.8268 0.5626 -65.993 1016.5013)">
						<stop  offset="0" style="stop-color:#B37CFF"/>
						<stop  offset="1" style="stop-color:#F895E7"/>
					</linearGradient>
					<path style="fill:url(#SVGID_00000017509829155573118150000007866264908543941820_);" d="M2769.107,1702.464
						c-1.493-2.195-2.955-4.423-4.385-6.684c-1.702-2.693-0.9-6.257,1.793-7.96c2.693-1.703,6.275-0.894,7.96,1.792
						c3.3,5.219,6.804,10.292,10.458,15.134c1.917,2.549,1.414,6.16-1.129,8.08c-2.544,1.921-6.163,1.414-8.081-1.129
						C2773.463,1708.702,2771.237,1705.595,2769.107,1702.464z M2750.242,1668.983c-0.181-0.266-0.343-0.553-0.482-0.856
						c-2.673-5.855-5.127-11.89-7.294-17.934c-1.075-2.998,0.485-6.302,3.482-7.377c3-1.075,6.313,0.485,7.378,3.484
						c2.058,5.741,4.391,11.472,6.929,17.038c1.323,2.898,0.046,6.32-2.852,7.642
						C2754.808,1672.164,2751.795,1671.265,2750.242,1668.983z M2795.649,1734.602c-1.53-2.249-1.296-5.337,0.701-7.326
						c2.258-2.25,5.911-2.242,8.16,0.015c4.301,4.318,8.846,8.51,13.513,12.46c2.428,2.063,2.733,5.7,0.675,8.131
						c-2.06,2.432-5.701,2.734-8.132,0.675c-4.913-4.16-9.7-8.576-14.23-13.122
						C2796.077,1735.174,2795.848,1734.895,2795.649,1734.602z M2734.783,1621.991c-0.412-0.605-0.713-1.3-0.873-2.061
						c-1.32-6.294-2.386-12.72-3.17-19.1c-0.388-3.162,1.86-6.04,5.022-6.428c3.164-0.389,6.042,1.857,6.429,5.022
						c0.744,6.057,1.757,12.16,3.01,18.137c0.655,3.118-1.344,6.177-4.462,6.83
						C2738.383,1624.886,2736.059,1623.866,2734.783,1621.991z M2834.199,1765.539c-1.255-1.844-1.374-4.334-0.102-6.339
						c1.707-2.691,5.272-3.488,7.963-1.781c5.143,3.264,10.5,6.354,15.92,9.184c2.824,1.475,3.92,4.96,2.443,7.785
						c-1.475,2.823-4.959,3.917-7.783,2.442c-5.707-2.979-11.346-6.232-16.762-9.669
						C2835.192,1766.727,2834.628,1766.17,2834.199,1765.539z M2878.604,1787.268c-1.003-1.474-1.311-3.393-0.663-5.199
						c1.078-2.999,4.382-4.556,7.381-3.478c5.751,2.066,11.655,3.914,17.549,5.493c3.079,0.82,4.906,3.982,4.082,7.064
						c-0.825,3.078-3.987,4.904-7.066,4.081c-6.203-1.661-12.416-3.606-18.467-5.781
						C2880.229,1789.02,2879.266,1788.241,2878.604,1787.268z M2926.69,1798.8c-0.763-1.122-1.136-2.514-0.952-3.967
						c0.398-3.16,3.285-5.4,6.446-5c6.068,0.766,12.233,1.286,18.327,1.541c3.182,0.134,5.655,2.819,5.521,6.007
						c-0.135,3.183-2.823,5.655-6.007,5.521c-6.412-0.271-12.902-0.815-19.286-1.622
						C2929.03,1801.064,2927.589,1800.121,2926.69,1798.8z M2976.144,1799.569c-0.529-0.777-0.875-1.693-0.97-2.695
						c-0.302-3.172,2.024-5.987,5.196-6.288c6.086-0.578,12.213-1.424,18.216-2.512c3.135-0.568,6.139,1.516,6.707,4.645
						c0.569,3.136-1.512,6.138-4.647,6.707c-6.323,1.147-12.777,2.038-19.182,2.647
						C2979.292,1802.277,2977.289,1801.253,2976.144,1799.569z M3024.578,1789.46c-0.297-0.437-0.538-0.923-0.711-1.45
						c-0.994-3.027,0.656-6.287,3.682-7.279c5.793-1.902,11.581-4.075,17.206-6.463c2.933-1.245,6.322,0.133,7.564,3.057
						c1.246,2.933-0.123,6.32-3.057,7.565c-5.921,2.514-12.015,4.803-18.114,6.803
						C3028.648,1792.513,3025.988,1791.532,3024.578,1789.46z M3069.578,1768.971c-0.066-0.098-0.13-0.199-0.191-0.302
						c-1.628-2.738-0.729-6.279,2.01-7.906c3.866-2.299,7.705-4.744,11.417-7.269c1.343-0.914,2.674-1.843,3.99-2.78
						c2.595-1.849,6.199-1.245,8.046,1.35c1.923,2.591,1.245,6.196-1.348,8.045c-1.386,0.988-2.784,1.962-4.198,2.924
						c-3.903,2.656-7.945,5.229-12.01,7.646C3074.658,1772.247,3071.28,1771.472,3069.578,1768.971z"/>
					
						<linearGradient id="SVGID_00000130623536807582649300000011993865209996293008_" gradientUnits="userSpaceOnUse" x1="2019.4119" y1="-2007.171" x2="2038.3839" y2="-2007.171" gradientTransform="matrix(0.5626 0.8268 -0.8268 0.5626 -65.993 1016.5013)">
						<stop  offset="0" style="stop-color:#B37CFF"/>
						<stop  offset="1" style="stop-color:#F895E7"/>
					</linearGradient>
					<path style="fill:url(#SVGID_00000130623536807582649300000011993865209996293008_);" d="M2730.056,1572.61
						c-0.646-0.948-1.015-2.096-0.997-3.328c0.047-3.123,0.162-6.304,0.34-9.455c0.179-3.182,2.904-5.615,6.084-5.435
						c3.181,0.181,5.615,2.901,5.435,6.085c-0.169,2.993-0.277,6.015-0.323,8.98c-0.047,3.184-2.668,5.729-5.854,5.681
						C2732.788,1575.107,2731.077,1574.11,2730.056,1572.61z"/>
				</g>
				<g>
					
						<linearGradient id="SVGID_00000059268876798390435180000016887182064079949966_" gradientUnits="userSpaceOnUse" x1="2462.4087" y1="-2159.0381" x2="2331.8315" y2="-1662.8466" gradientTransform="matrix(0.6479 0.7617 -0.7617 0.6479 -152.9985 1034.5686)">
						<stop  offset="0" style="stop-color:#A737D5"/>
						<stop  offset="1" style="stop-color:#EF497A"/>
					</linearGradient>
					<path style="fill:url(#SVGID_00000059268876798390435180000016887182064079949966_);" d="M2789.758,1541.403
						c-0.328,1.102,0.08,2.292,1.016,2.961l26.691,19.093c-0.901,15.299,0.631,30.852,4.784,46.068l-22.168,24.17
						c-0.778,0.848-0.931,2.096-0.384,3.107l18.751,34.611c0.548,1.011,1.678,1.563,2.812,1.376l32.354-5.369
						c10.478,11.788,22.67,21.566,35.978,29.167l1.417,32.787c0.05,1.149,0.823,2.14,1.925,2.468l37.733,11.214
						c1.103,0.328,2.292-0.08,2.961-1.016l19.093-26.691c15.299,0.901,30.853-0.632,46.068-4.784l24.17,22.168
						c0.847,0.777,2.095,0.932,3.106,0.384l34.611-18.752c1.011-0.548,1.564-1.677,1.375-2.812l-5.369-32.354
						c11.789-10.478,21.567-22.669,29.167-35.977l32.788-1.417c1.148-0.05,2.14-0.823,2.468-1.925l11.214-37.733
						c0.328-1.103-0.08-2.292-1.016-2.961l-26.692-19.093c0.902-15.299-0.631-30.853-4.784-46.068l22.168-24.17
						c0.777-0.848,0.932-2.095,0.384-3.107l-18.752-34.611c-0.548-1.012-1.677-1.564-2.812-1.375l-32.354,5.369
						c-10.478-11.789-22.669-21.567-35.978-29.167l-1.416-32.786c-0.049-1.149-0.823-2.141-1.926-2.469l-37.733-11.214
						c-1.103-0.328-2.292,0.08-2.961,1.016l-19.093,26.691c-15.299-0.901-30.853,0.632-46.068,4.784l-24.17-22.168
						c-0.847-0.777-2.095-0.932-3.107-0.383l-34.611,18.751c-1.011,0.548-1.564,1.677-1.376,2.812l5.369,32.354
						c-11.788,10.478-21.566,22.669-29.167,35.977l-32.787,1.417c-1.149,0.05-2.14,0.823-2.469,1.926L2789.758,1541.403z"/>
					<path style="opacity:0.56;fill:#FFFFFF;" d="M2928.309,1594.013c-10.85-15.946-8.668-37.916,5.939-51.357
						c16.057-14.773,41.136-13.728,55.91,2.327c7.159,7.777,10.856,17.878,10.416,28.435c-0.439,10.56-4.964,20.317-12.743,27.472
						c-16.057,14.774-41.136,13.728-55.909-2.327C2930.59,1597.117,2929.385,1595.594,2928.309,1594.013z M2986.161,1554.758
						c-0.838-1.232-1.77-2.409-2.797-3.525c-11.326-12.31-30.557-13.109-42.866-1.785c-12.31,11.327-13.118,30.557-1.785,42.868
						c11.325,12.31,30.557,13.109,42.866,1.785c5.964-5.488,9.434-12.968,9.771-21.065
						C2991.624,1566.455,2989.8,1560.106,2986.161,1554.758z"/>
					<path style="opacity:0.56;fill:#FFFFFF;" d="M2881.515,1626.832c-1.864-2.739-3.6-5.587-5.2-8.539l0,0
						c-0.504-0.929-0.992-1.867-1.466-2.812c-2.334-4.66-4.294-9.499-5.85-14.442c-0.021-0.067-0.043-0.135-0.064-0.202
						c-0.059-0.191-0.118-0.383-0.176-0.575c-0.115-0.373-0.225-0.748-0.335-1.121c-0.288-0.984,0.11-2.006,0.914-2.554
						c0.196-0.133,0.416-0.238,0.655-0.308c1.223-0.358,2.501,0.348,2.861,1.568c1.839,6.295,4.369,12.433,7.52,18.245
						c15.639,28.878,44.504,46.11,75.06,48.281c16.995,1.21,34.514-2.242,50.573-10.943c2.817-1.525,5.535-3.182,8.147-4.96
						c17.579-11.964,30.402-29.464,36.541-50.123c7.052-23.729,4.442-48.785-7.35-70.549
						c-24.358-44.948-80.704-61.681-125.633-37.338c-2.77,1.501-5.454,3.136-8.042,4.898c-11.213,7.632-20.632,17.634-27.544,29.319
						c-0.179,0.302-0.415,0.548-0.688,0.732c-0.715,0.487-1.678,0.549-2.473,0.078c-1.095-0.653-1.463-2.063-0.811-3.162
						c7.257-12.268,17.145-22.769,28.917-30.782c2.716-1.849,5.533-3.566,8.44-5.142c47.172-25.558,106.343-7.958,131.892,39.196
						c12.38,22.85,15.119,49.152,7.716,74.063c-6.444,21.688-19.906,40.059-38.36,52.62c-2.742,1.866-5.596,3.605-8.551,5.207
						c-22.852,12.38-49.154,15.121-74.065,7.717C2912.45,1658.76,2894.076,1645.291,2881.515,1626.832z"/>
				</g>
			</g>
			<g>
				<g style="opacity:0.3;">
					
						<linearGradient id="SVGID_00000062912257673513937810000010146853364215163061_" gradientUnits="userSpaceOnUse" x1="1735.5945" y1="-2014.7346" x2="1744.9734" y2="-2014.7346" gradientTransform="matrix(0.5626 0.8268 -0.8268 0.5626 -65.993 1016.5013)">
						<stop  offset="0" style="stop-color:#B37CFF"/>
						<stop  offset="1" style="stop-color:#F895E7"/>
					</linearGradient>
					<path style="fill:url(#SVGID_00000062912257673513937810000010146853364215163061_);" d="M2572.997,1327.236
						c-0.867-1.274-0.834-3.014,0.195-4.266c1.92-2.337,3.937-4.649,5.996-6.868c1.338-1.442,3.59-1.527,5.036-0.19
						c1.45,1.334,1.527,3.593,0.189,5.036c-1.962,2.115-3.884,4.318-5.717,6.548c-1.247,1.52-3.493,1.739-5.015,0.491
						C2573.411,1327.765,2573.184,1327.511,2572.997,1327.236z"/>
					
						<linearGradient id="SVGID_00000158010438017755049860000001039314355391191708_" gradientUnits="userSpaceOnUse" x1="1731.798" y1="-2120.0989" x2="1915.6191" y2="-2120.0989" gradientTransform="matrix(0.5626 0.8268 -0.8268 0.5626 -65.993 1016.5013)">
						<stop  offset="0" style="stop-color:#B37CFF"/>
						<stop  offset="1" style="stop-color:#F895E7"/>
					</linearGradient>
					<path style="fill:url(#SVGID_00000158010438017755049860000001039314355391191708_);" d="M2592.268,1307.745
						c-1.016-1.493-0.756-3.543,0.655-4.728c3.986-3.352,8.191-6.537,12.495-9.466c0.906-0.617,1.822-1.225,2.747-1.827
						c1.653-1.072,3.856-0.475,4.932,1.044c1.073,1.65,0.604,3.857-1.044,4.93c-0.884,0.575-1.76,1.156-2.626,1.745
						c-4.105,2.793-8.115,5.832-11.918,9.027c-1.507,1.268-3.753,1.072-5.021-0.432
						C2592.41,1307.941,2592.336,1307.844,2592.268,1307.745z M2623.29,1287.584c-0.095-0.139-0.183-0.288-0.259-0.442
						c-0.863-1.77-0.13-3.903,1.638-4.768c5.672-2.773,11.567-5.219,17.518-7.267c1.862-0.642,3.889,0.359,4.529,2.209
						c0.64,1.862-0.347,3.887-2.209,4.529c-5.678,1.954-11.3,4.288-16.71,6.932
						C2626.185,1289.564,2624.271,1289.025,2623.29,1287.584z M2658.273,1275.548c-0.254-0.374-0.44-0.803-0.541-1.271
						c-0.405-1.926,0.831-3.814,2.756-4.22c6.169-1.294,12.489-2.219,18.78-2.74c1.964-0.164,3.681,1.29,3.845,3.257
						c0.163,1.96-1.295,3.682-3.255,3.845c-5.999,0.499-12.022,1.377-17.906,2.613
						C2660.497,1277.337,2659.061,1276.706,2658.273,1275.548z M2695.147,1272.48c-0.415-0.61-0.643-1.353-0.614-2.145
						c0.081-1.966,1.74-3.497,3.706-3.417c6.312,0.257,12.659,0.909,18.873,1.937c1.941,0.323,3.251,2.161,2.931,4.098
						c-0.32,1.941-2.154,3.254-4.098,2.934c-5.921-0.982-11.979-1.603-17.996-1.848
						C2696.777,1273.991,2695.761,1273.382,2695.147,1272.48z M2731.651,1278.512c-0.58-0.852-0.787-1.948-0.473-3.014
						c0.555-1.886,2.536-2.965,4.425-2.411c6.05,1.784,12.049,3.957,17.826,6.461c1.81,0.78,2.637,2.88,1.854,4.686
						c-0.783,1.806-2.882,2.636-4.685,1.854c-5.514-2.388-11.235-4.462-17.009-6.162
						C2732.767,1279.682,2732.098,1279.169,2731.651,1278.512z M2765.58,1293.218c-0.751-1.103-0.846-2.587-0.125-3.815
						c0.997-1.695,3.181-2.259,4.877-1.262c5.435,3.2,10.722,6.77,15.71,10.611c1.559,1.209,1.848,3.44,0.648,4.999
						c-1.199,1.559-3.438,1.849-4.996,0.649c-4.757-3.664-9.795-7.066-14.977-10.117
						C2766.248,1294.008,2765.867,1293.64,2765.58,1293.218z M2794.876,1315.768c-0.939-1.381-0.803-3.277,0.414-4.507
						c1.384-1.399,3.641-1.411,5.04-0.027c4.469,4.422,8.718,9.182,12.633,14.149c1.194,1.569,0.949,3.79-0.597,5.006
						c-1.545,1.218-3.785,0.951-5.004-0.593c-3.731-4.741-7.784-9.281-12.045-13.496
						C2795.149,1316.133,2795.003,1315.955,2794.876,1315.768z M2826.371,1361.251c-0.115-0.17-0.219-0.354-0.307-0.549
						c-2.126-4.74-4.55-9.446-7.204-13.989c-0.398-0.69-0.797-1.364-1.204-2.03c-1.02-1.684-0.486-3.874,1.198-4.895
						c1.684-1.026,3.93-0.509,4.896,1.195c0.431,0.713,0.857,1.427,1.274,2.151c2.771,4.748,5.312,9.681,7.541,14.652
						c0.806,1.797,0.004,3.903-1.792,4.709C2829.174,1363.212,2827.325,1362.654,2826.371,1361.251z"/>
				</g>
				<g style="opacity:0.3;">
					
						<linearGradient id="SVGID_00000134962189713687241070000013252854150656900021_" gradientUnits="userSpaceOnUse" x1="1813.8322" y1="-1943.8802" x2="2023.6344" y2="-1943.8802" gradientTransform="matrix(0.5626 0.8268 -0.8268 0.5626 -65.993 1016.5013)">
						<stop  offset="0" style="stop-color:#B37CFF"/>
						<stop  offset="1" style="stop-color:#F895E7"/>
					</linearGradient>
					<path style="fill:url(#SVGID_00000134962189713687241070000013252854150656900021_);" d="M2566.067,1509.007
						c-1.094-1.608-0.694-3.804,0.905-4.923c1.611-1.128,3.834-0.736,4.961,0.877c3.396,4.855,7.117,9.543,11.06,13.935
						c1.293,1.467,1.196,3.717-0.271,5.033c-1.466,1.316-3.718,1.192-5.033-0.271c-4.133-4.608-8.036-9.522-11.595-14.61
						C2566.086,1509.034,2566.076,1509.02,2566.067,1509.007z M2556.534,1493.469c-0.073-0.107-0.138-0.216-0.2-0.331
						c-2.923-5.471-5.542-11.176-7.787-16.956c-0.71-1.836,0.197-3.898,2.031-4.61c1.837-0.715,3.9,0.208,4.613,2.029
						c2.141,5.515,4.641,10.958,7.428,16.181c0.927,1.734,0.271,3.894-1.464,4.82
						C2559.532,1495.469,2557.544,1494.953,2556.534,1493.469z M2590.377,1536.075c-0.889-1.306-0.826-3.095,0.26-4.344
						c1.29-1.482,3.54-1.639,5.025-0.347c4.473,3.89,9.218,7.541,14.109,10.85c1.628,1.112,2.056,3.319,0.951,4.948
						c-1.101,1.629-3.319,2.057-4.949,0.954c-5.126-3.469-10.101-7.298-14.787-11.378
						C2590.748,1536.553,2590.546,1536.323,2590.377,1536.075z M2543.379,1459.526c-0.228-0.335-0.402-0.715-0.509-1.131
						c-1.523-6.018-2.688-12.19-3.463-18.345c-0.247-1.953,1.137-3.735,3.09-3.982c1.947-0.243,3.73,1.14,3.979,3.09
						c0.74,5.869,1.852,11.752,3.302,17.49c0.481,1.907-0.674,3.846-2.581,4.328
						C2545.708,1461.352,2544.198,1460.728,2543.379,1459.526z M2620.508,1556.462c-0.71-1.043-0.843-2.432-0.228-3.631
						c0.898-1.754,3.046-2.445,4.796-1.549c5.261,2.698,10.743,5.1,16.297,7.139c1.851,0.679,2.795,2.728,2.115,4.575
						c-0.679,1.847-2.728,2.795-4.575,2.116c-5.822-2.142-11.571-4.659-17.088-7.485
						C2621.277,1557.345,2620.832,1556.938,2620.508,1556.462z M2654.65,1569.026c-0.543-0.798-0.761-1.812-0.524-2.823
						c0.452-1.915,2.371-3.103,4.286-2.651c5.77,1.36,11.672,2.382,17.539,3.038c1.958,0.219,3.366,1.984,3.146,3.937
						c-0.218,1.956-1.979,3.363-3.934,3.144c-6.153-0.687-12.34-1.757-18.386-3.182
						C2655.875,1570.276,2655.134,1569.737,2654.65,1569.026z M2690.823,1573.05c-0.382-0.561-0.609-1.235-0.614-1.966
						c-0.021-1.968,1.559-3.58,3.527-3.6c5.926-0.057,11.9-0.481,17.754-1.26c1.947-0.256,3.742,1.114,4,3.064
						c0.259,1.951-1.111,3.742-3.064,4.002c-6.138,0.814-12.405,1.26-18.62,1.323
						C2692.567,1574.624,2691.471,1574.002,2690.823,1573.05z"/>
					
						<linearGradient id="SVGID_00000037658041148898472090000008278962636647078299_" gradientUnits="userSpaceOnUse" x1="1790.7689" y1="-1930.7588" x2="1805.1173" y2="-1930.7588" gradientTransform="matrix(0.5626 0.8268 -0.8268 0.5626 -65.993 1016.5013)">
						<stop  offset="0" style="stop-color:#B37CFF"/>
						<stop  offset="1" style="stop-color:#F895E7"/>
					</linearGradient>
					<path style="fill:url(#SVGID_00000037658041148898472090000008278962636647078299_);" d="M2538.815,1423.245
						c-0.387-0.568-0.613-1.254-0.615-1.993c-0.009-3.05,0.074-6.113,0.243-9.107c0.112-1.964,1.794-3.468,3.759-3.358
						c1.96,0.116,3.464,1.795,3.358,3.76c-0.162,2.854-0.24,5.778-0.233,8.688c0.005,1.968-1.588,3.567-3.554,3.572
						C2540.544,1424.809,2539.458,1424.191,2538.815,1423.245z"/>
				</g>
				<g>
					
						<linearGradient id="SVGID_00000011019344504772892600000010495890435972420540_" gradientUnits="userSpaceOnUse" x1="2149.1492" y1="-2051.78" x2="2123.0339" y2="-1744.9252" gradientTransform="matrix(0.6479 0.7617 -0.7617 0.6479 -152.9985 1034.5686)">
						<stop  offset="0" style="stop-color:#A737D5"/>
						<stop  offset="1" style="stop-color:#EF497A"/>
					</linearGradient>
					<path style="fill:url(#SVGID_00000011019344504772892600000010495890435972420540_);" d="M2578.538,1399.8
						c-0.219,0.737,0.053,1.534,0.68,1.981l17.861,12.776c-0.603,10.237,0.423,20.645,3.201,30.826l-14.833,16.173
						c-0.521,0.567-0.623,1.402-0.257,2.079l12.547,23.16c0.367,0.677,1.123,1.046,1.882,0.921l21.65-3.593
						c7.011,7.888,15.169,14.431,24.074,19.518l0.948,21.939c0.033,0.769,0.551,1.432,1.289,1.652l25.249,7.504
						c0.738,0.219,1.534-0.054,1.981-0.68l12.776-17.86c10.238,0.603,20.645-0.423,30.827-3.201l16.173,14.834
						c0.567,0.52,1.402,0.623,2.079,0.257l23.16-12.548c0.677-0.367,1.047-1.123,0.92-1.882l-3.593-21.65
						c7.889-7.011,14.431-15.169,19.517-24.074l21.94-0.948c0.769-0.033,1.432-0.551,1.651-1.288l7.504-25.25
						c0.219-0.738-0.054-1.533-0.68-1.981l-17.861-12.776c0.604-10.237-0.422-20.645-3.201-30.826l14.834-16.174
						c0.52-0.567,0.624-1.402,0.257-2.079l-12.548-23.16c-0.367-0.677-1.122-1.046-1.882-0.92l-21.649,3.593
						c-7.011-7.888-15.169-14.432-24.075-19.518l-0.948-21.939c-0.033-0.769-0.551-1.433-1.289-1.652l-25.249-7.504
						c-0.738-0.219-1.534,0.054-1.981,0.68l-12.776,17.86c-10.237-0.603-20.645,0.423-30.826,3.202l-16.173-14.834
						c-0.567-0.52-1.402-0.623-2.079-0.256l-23.16,12.547c-0.677,0.367-1.047,1.122-0.921,1.882l3.593,21.65
						c-7.888,7.011-14.431,15.169-19.517,24.074l-21.939,0.948c-0.769,0.033-1.432,0.551-1.652,1.288L2578.538,1399.8z"/>
					<path style="opacity:0.56;fill:#FFFFFF;" d="M2670.833,1435.24c-3.234-4.752-4.854-10.393-4.611-16.24
						c0.3-7.193,3.383-13.838,8.682-18.713c10.932-10.061,28.015-9.351,38.081,1.584c10.057,10.969,9.35,28.024-1.586,38.085
						c-5.298,4.876-12.178,7.396-19.369,7.095c-7.194-0.298-13.841-3.381-18.715-8.682
						C2672.406,1437.379,2671.576,1436.332,2670.833,1435.24z M2709.551,1408.978c-0.539-0.793-1.142-1.554-1.809-2.281
						c-7.404-8.043-19.969-8.565-28.014-1.163c-3.895,3.585-6.166,8.474-6.385,13.763c-0.22,5.293,1.638,10.349,5.218,14.251l0,0
						c3.586,3.896,8.476,6.165,13.765,6.386c5.293,0.22,10.353-1.634,14.251-5.221
						C2713.894,1427.979,2714.988,1416.968,2709.551,1408.978z"/>
					<path style="opacity:0.56;fill:#FFFFFF;" d="M2638.233,1458.041c-1.269-1.864-2.452-3.807-3.55-5.83
						c-2.178-4.017-3.949-8.26-5.268-12.622c-0.058-0.196-0.115-0.393-0.173-0.589c-0.445-1.52,0.169-3.097,1.411-3.944
						c0.302-0.206,0.642-0.368,1.01-0.475c1.889-0.552,3.86,0.539,4.417,2.422c1.192,4.084,2.831,8.057,4.867,11.811l0.001,0.001
						c0.111,0.206,0.226,0.412,0.339,0.615c4.899,8.84,11.817,16.124,20.126,21.407c4.51,2.867,9.435,5.144,14.675,6.753
						c0.042,0.013,0.085,0.026,0.128,0.039c0.132,0.039,0.26,0.08,0.391,0.117c15.362,4.564,31.582,2.875,45.672-4.759
						c1.824-0.987,3.583-2.059,5.274-3.21c11.38-7.745,19.681-19.076,23.657-32.45c4.564-15.362,2.873-31.581-4.761-45.669
						c-7.634-14.078-20.299-24.364-35.658-28.932c-15.362-4.564-31.582-2.875-45.672,4.759c-1.793,0.97-3.531,2.03-5.205,3.169
						c-7.26,4.942-13.357,11.416-17.831,18.98c-0.276,0.466-0.64,0.846-1.061,1.131c-1.105,0.752-2.592,0.849-3.819,0.122
						c-1.691-1.007-2.256-3.186-1.252-4.883c5.007-8.464,11.829-15.708,19.948-21.237c1.876-1.276,3.818-2.461,5.823-3.547
						c15.766-8.542,33.912-10.432,51.1-5.323c17.184,5.109,31.359,16.588,39.893,32.366c8.542,15.764,10.434,33.909,5.323,51.097
						c-4.445,14.963-13.733,27.638-26.465,36.303c-1.89,1.286-3.859,2.487-5.898,3.592
						C2695.155,1495.788,2657.355,1486.145,2638.233,1458.041z"/>
				</g>
			</g>
		</g>
		
			<linearGradient id="SVGID_00000139984774151927226950000018392723324106932896_" gradientUnits="userSpaceOnUse" x1="-2336.8057" y1="1283.9275" x2="-1553.8602" y2="1934.752" gradientTransform="matrix(-1 0 0 1 -959.9994 0)">
			<stop  offset="0" style="stop-color:#FDF53F"/>
			<stop  offset="0.6645" style="stop-color:#E57A58"/>
			<stop  offset="1" style="stop-color:#D93C65"/>
		</linearGradient>
		<path style="fill:url(#SVGID_00000139984774151927226950000018392723324106932896_);" d="M899.548,1381.119
			c0-129.399,161.328-234.299,360.336-234.299c199.008,0,360.336,104.9,360.336,234.299c0,129.4-161.328,234.299-360.336,234.299
			c-25.108,0-49.614-1.672-73.272-4.852c-30.701-4.126-57.387,21.579-54.697,52.44c2.505,28.743,10.849,53.981,18.01,71.146
			c3.445,8.256-5.456,16.294-13.287,11.97c-72.341-39.951-98.913-114.915-108.659-166.409
			c-2.509-13.255-10.352-24.846-21.694-32.152C940.377,1505.102,899.548,1446.212,899.548,1381.119z"/>
		<g>
			
				<linearGradient id="SVGID_00000010285374444103454410000012437457522493708688_" gradientUnits="userSpaceOnUse" x1="16880.4785" y1="3026.3435" x2="16352.1533" y2="3601.0134" gradientTransform="matrix(1 0.0095 -0.0095 1 -15669.0811 -63.4747)">
				<stop  offset="0" style="stop-color:#2B3582"/>
				<stop  offset="1" style="stop-color:#150E42"/>
			</linearGradient>
			<path style="fill:url(#SVGID_00000010285374444103454410000012437457522493708688_);" d="M1015.236,3164.449
				c0,0-5.768,30.924-8.742,61.562c-1.164,11.973,7.976,22.466,19.991,23.082c40.817,2.09,128.132,6.231,159.488,5.13
				c4.714-0.165,7.84-4.959,6.139-9.358l0,0c-1.427-3.686-4.216-6.682-7.792-8.367l-143.646-67.687L1015.236,3164.449z"/>
			
				<linearGradient id="SVGID_00000037672992189240404770000000321706620569809841_" gradientUnits="userSpaceOnUse" x1="16708.9922" y1="3069.0195" x2="16755.9219" y2="3069.0195" gradientTransform="matrix(1 0.0095 -0.0095 1 -15669.0811 -63.4747)">
				<stop  offset="0" style="stop-color:#F9B776"/>
				<stop  offset="1" style="stop-color:#F47960"/>
			</linearGradient>
			<path style="fill:url(#SVGID_00000037672992189240404770000000321706620569809841_);" d="M1010.927,3146.206l4.042,37.093
				c0,0,25.162,12.007,42.548-1.076l-10.073-41.39L1010.927,3146.206z"/>
			
				<linearGradient id="SVGID_00000017484220948049733740000011189626347869047685_" gradientUnits="userSpaceOnUse" x1="16922.1074" y1="2376.4099" x2="16472.5234" y2="2985.7634" gradientTransform="matrix(1 0.0095 -0.0095 1 -15669.0811 -63.4747)">
				<stop  offset="0" style="stop-color:#FF928E"/>
				<stop  offset="1" style="stop-color:#FE7062"/>
			</linearGradient>
			<path style="fill:url(#SVGID_00000017484220948049733740000011189626347869047685_);" d="M1020.877,2449.658
				c-1.991,9.658-14.799,482.747,33.756,695.273c0.792,3.468-0.996,7.017-4.301,8.331c-7.787,3.095-23.04,7.541-41.271,7.978
				c-5.646,0.136-10.672-3.581-12.212-9.014c-13.988-49.335-80.915-296.488-87.706-532.041c-7.589-263.207,0.086-8.958,0.086-8.958
				l7.474-162.582L1020.877,2449.658z"/>
			
				<linearGradient id="SVGID_00000048494978694295507630000013784433691312593031_" gradientUnits="userSpaceOnUse" x1="16761.957" y1="2917.3618" x2="16233.6104" y2="3492.0552" gradientTransform="matrix(1 0.0095 -0.0095 1 -15669.0811 -63.4747)">
				<stop  offset="0" style="stop-color:#2B3582"/>
				<stop  offset="1" style="stop-color:#150E42"/>
			</linearGradient>
			<path style="fill:url(#SVGID_00000048494978694295507630000013784433691312593031_);" d="M849.113,3179.026
				c0,0-8.859,15.554-17.688,57.027c-1.594,7.49,3.581,14.722,11.194,15.545c13.471,1.454,34.211,3.357,50.84,3.402
				c7.665,0.02,13.71-6.596,12.86-14.215c-1.697-15.185-7.197-40.125-24.737-59.689L849.113,3179.026z"/>
			
				<linearGradient id="SVGID_00000106837817232227414110000011631460310270471085_" gradientUnits="userSpaceOnUse" x1="16539.8574" y1="3066.606" x2="16580.373" y2="3066.606" gradientTransform="matrix(1 0.0095 -0.0095 1 -15669.0811 -63.4747)">
				<stop  offset="0" style="stop-color:#F9B776"/>
				<stop  offset="1" style="stop-color:#F47960"/>
			</linearGradient>
			<path style="fill:url(#SVGID_00000106837817232227414110000011631460310270471085_);" d="M841.918,3131.296l9.737,56.13
				c0,0,10.085,7.651,30.229,2.366l-4.328-60.333L841.918,3131.296z"/>
			
				<linearGradient id="SVGID_00000125601592519112126940000011288900267566813085_" gradientUnits="userSpaceOnUse" x1="16841.9785" y1="2317.2925" x2="16392.4004" y2="2926.6392" gradientTransform="matrix(1 0.0095 -0.0095 1 -15669.0811 -63.4747)">
				<stop  offset="0" style="stop-color:#FF928E"/>
				<stop  offset="1" style="stop-color:#FE7062"/>
			</linearGradient>
			<path style="fill:url(#SVGID_00000125601592519112126940000011288900267566813085_);" d="M820.548,2462.268
				c-43.747,249.253,3.087,617.11,19.378,689.177c0.997,4.413,4.518,7.819,8.973,8.601c7.566,1.328,20.033,2.472,32.367-0.983
				c4.25-1.189,7.264-4.984,7.478-9.393c2.833-58.111,2.138-415.028,42.027-555.7c2.021-7.129,6.445-13.321,12.526-17.557
				l75.318-52.469l6.556-85.913L820.548,2462.268z"/>
			<g>
				
					<linearGradient id="SVGID_00000124148351528507317820000012960967709651040190_" gradientUnits="userSpaceOnUse" x1="-4086.8379" y1="1975.2101" x2="-4364.6426" y2="3044.7566" gradientTransform="matrix(-1 0 0 1 -3125.4695 0)">
					<stop  offset="0" style="stop-color:#CB236D"/>
					<stop  offset="1" style="stop-color:#4C246D"/>
				</linearGradient>
				<path style="fill:url(#SVGID_00000124148351528507317820000012960967709651040190_);" d="M1088.648,1991.749
					c-123.947-3.231-261.06,30.063-261.06,30.063c-39.009,215.259-10.891,464.245-10.891,464.245
					c95.732,26.083,204.38-13.439,204.38-13.439c16.811-89.969,93.655-342.889,93.655-342.889
					c60.641-6.939,110.704-23.938,152.015-46.649c-30.996-36.63-45.331-83-51.487-110.389
					C1171.298,1985.892,1126.877,1992.745,1088.648,1991.749z"/>
				
					<linearGradient id="SVGID_00000092437937839643124290000006094175463321571979_" gradientUnits="userSpaceOnUse" x1="16902.1582" y1="1844.6801" x2="17141.9219" y2="1844.6801" gradientTransform="matrix(1 0.0095 -0.0095 1 -15669.0811 -63.4747)">
					<stop  offset="0" style="stop-color:#F9B776"/>
					<stop  offset="1" style="stop-color:#F47960"/>
				</linearGradient>
				<path style="fill:url(#SVGID_00000092437937839643124290000006094175463321571979_);" d="M1456.564,1812.646
					c-12.037-14.825-27.516-8.014-27.516-8.014c-18.978,76.885-115.227,138.454-213.789,168.057
					c6.156,27.388,20.491,73.758,51.487,110.389C1430.71,1992.935,1456.564,1812.646,1456.564,1812.646z"/>
			</g>
			<g>
				
					<linearGradient id="SVGID_00000142878135679785621480000011153366379587078302_" gradientUnits="userSpaceOnUse" x1="-6641.7783" y1="1803.5634" x2="-6480.894" y2="2169.6113" gradientTransform="matrix(-1 -0.0095 -0.0095 1 -5222.355 36.7017)">
					<stop  offset="0" style="stop-color:#F9B776"/>
					<stop  offset="1" style="stop-color:#F47960"/>
				</linearGradient>
				<path style="fill:url(#SVGID_00000142878135679785621480000011153366379587078302_);" d="M1453.573,1816.358
					c1.236,4.063-13.579,10.091-22.11-6.56c-0.227-7.943-4.732-42.006,0.074-48.43c25.599-34.21,75.004-76.93,75.004-76.93
					c8.202,8.25,1.304,16.21,1.304,16.21l-24.004,24.533c4.886,9.03,10.878,16.672,13.616,27.565
					c2.073,8.25,0.673,17.031-3.555,24.48c-4.244,7.476-10.029,17.192-15.483,24.786
					C1468.097,1816.388,1453.573,1816.358,1453.573,1816.358z"/>
				
					<linearGradient id="SVGID_00000083069417120380344440000012340534450293763741_" gradientUnits="userSpaceOnUse" x1="17140.7734" y1="1682.5889" x2="17207.9043" y2="1579.3743" gradientTransform="matrix(1 0.0095 -0.0095 1 -15669.0811 -63.4747)">
					<stop  offset="0" style="stop-color:#F9B776"/>
					<stop  offset="1" style="stop-color:#F47960"/>
				</linearGradient>
				<path style="fill:url(#SVGID_00000083069417120380344440000012340534450293763741_);" d="M1473.294,1741.147l-21.834,18.154
					l-6.975,18.215l19.107,21.607c0,0,6.839-36.209,11.74-44.014C1480.232,1747.305,1477.766,1743.485,1473.294,1741.147z"/>
			</g>
			
				<linearGradient id="SVGID_00000181788969694769619720000015284793922979433656_" gradientUnits="userSpaceOnUse" x1="-3871.7439" y1="2031.0785" x2="-4149.5483" y2="3100.6243" gradientTransform="matrix(-1 0 0 1 -3125.4695 0)">
				<stop  offset="0" style="stop-color:#CB236D"/>
				<stop  offset="1" style="stop-color:#4C246D"/>
			</linearGradient>
			<path style="fill:url(#SVGID_00000181788969694769619720000015284793922979433656_);" d="M873.991,2142.301l-46.403-120.489
				c0,0-116.543,77.57-136.537,177.141c21.864,1.82,61.622,7.891,100.403,27.939
				C800.466,2179.871,873.991,2142.301,873.991,2142.301z"/>
			
				<linearGradient id="SVGID_00000039825047948718642530000013827974885882685581_" gradientUnits="userSpaceOnUse" x1="16377.5059" y1="2184.2668" x2="16680.9199" y2="2184.2668" gradientTransform="matrix(1 0.0095 -0.0095 1 -15669.0811 -63.4747)">
				<stop  offset="0" style="stop-color:#F9B776"/>
				<stop  offset="1" style="stop-color:#F47960"/>
			</linearGradient>
			<path style="fill:url(#SVGID_00000039825047948718642530000013827974885882685581_);" d="M974.103,2256.216
				c0,0-130.706,72.232-173.974,9.077c-8.982-13.114-11.037-26.081-8.675-38.403c-38.781-20.048-78.54-26.119-100.403-27.939
				c-6.028,30.017-3.298,62.03,14.064,94.523c75.497,141.291,285.886-5.041,285.886-5.041L974.103,2256.216z"/>
			
				<linearGradient id="SVGID_00000183929537001242746180000014438194743484662184_" gradientUnits="userSpaceOnUse" x1="16610.4961" y1="1859.9045" x2="16730.4609" y2="1859.9045" gradientTransform="matrix(1 0.0095 -0.0095 1 -15669.0811 -63.4747)">
				<stop  offset="0" style="stop-color:#F9B776"/>
				<stop  offset="1" style="stop-color:#F47960"/>
			</linearGradient>
			<path style="fill:url(#SVGID_00000183929537001242746180000014438194743484662184_);" d="M964.04,1889.909l-40.533,113.694
				c-0.671,1.883,0.085,3.983,1.827,4.968c10.695,6.047,49.268,23.6,96.233-5.552c4.893-3.037,8.252-8.034,9.044-13.737
				l13.715-98.606L964.04,1889.909z"/>
			<g>
				
					<linearGradient id="SVGID_00000137812054826937421340000007619323539846677422_" gradientUnits="userSpaceOnUse" x1="6956.2734" y1="9677.3574" x2="6911.4443" y2="9529.5" gradientTransform="matrix(0.7523 -0.6588 0.6588 0.7523 -10535.6777 -818.1582)">
					<stop  offset="0" style="stop-color:#F9B776"/>
					<stop  offset="1" style="stop-color:#F47960"/>
				</linearGradient>
				<path style="fill:url(#SVGID_00000137812054826937421340000007619323539846677422_);" d="M1050.872,1785.096
					c0,0,42.537,81.947,36.671,114.83c-5.866,32.882-59.525,30.005-106.146,2.809l-31.916-88.351L1050.872,1785.096z"/>
				
					<linearGradient id="SVGID_00000014609660524119178380000013600381274013127606_" gradientUnits="userSpaceOnUse" x1="6915.8315" y1="9419.7383" x2="6953.3306" y2="9633.6201" gradientTransform="matrix(0.7523 -0.6588 0.6588 0.7523 -10535.6777 -818.1582)">
					<stop  offset="0" style="stop-color:#2B3582"/>
					<stop  offset="1" style="stop-color:#150E42"/>
				</linearGradient>
				<path style="fill:url(#SVGID_00000014609660524119178380000013600381274013127606_);" d="M983.882,1859.519
					c1.913-0.826,2.638-3.151,1.514-4.905c-3.42-5.335-9.822-16.212-11.807-25.701c0,0-7.738-5.061,19.929-11.405
					c27.668-6.344,68.932-16.208,77.809-39.621c8.654-22.829-12.962-80.651-48.763-35.085c-1.362,1.734-3.998,1.748-5.325-0.014
					c-5.724-7.6-20.816-23.407-42.068-14.115c-19.886,8.697-22.255,23.185-22.053,30.502c0.06,2.152-1.88,3.807-3.991,3.383
					c-9.993-2.005-34.002-3.874-45.452,20.665c-9.43,20.212-3.536,31.761,1.878,37.433c1.754,1.838,0.949,4.829-1.487,5.549
					c-6.6,1.952-15.148,7.45-14.446,22.874c0.973,21.322,24.818,19.672,31.611,18.765c1.113-0.148,2.23,0.244,2.974,1.085
					c5.755,6.492,31.702,34.074,60.035,37.639c2.453,0.309,4.38-2.098,3.598-4.444l-11.935-35.799
					c-0.554-1.662,0.257-3.473,1.865-4.168L983.882,1859.519z"/>
				
					<linearGradient id="SVGID_00000071522943143562858370000003082637673020720034_" gradientUnits="userSpaceOnUse" x1="6910.4478" y1="9676.667" x2="6870.1143" y2="9543.6377" gradientTransform="matrix(0.7523 -0.6588 0.6588 0.7523 -10535.6777 -818.1582)">
					<stop  offset="0" style="stop-color:#F9B776"/>
					<stop  offset="1" style="stop-color:#F47960"/>
				</linearGradient>
				<path style="fill:url(#SVGID_00000071522943143562858370000003082637673020720034_);" d="M988.768,1864.631
					c0,0-30.638-21.453-33.062-3.656c-2.422,17.797,27.525,26.075,42.46,19.573L988.768,1864.631z"/>
			</g>
			<g>
				<g>
					
						<linearGradient id="SVGID_00000150813563451009660390000012519623629681385866_" gradientUnits="userSpaceOnUse" x1="16473.2402" y1="2083.5886" x2="16640.6621" y2="2781.1873" gradientTransform="matrix(1 0 0 1 -15400.792 0)">
						<stop  offset="0" style="stop-color:#2B3582"/>
						<stop  offset="1" style="stop-color:#150E42"/>
					</linearGradient>
					<path style="fill:url(#SVGID_00000150813563451009660390000012519623629681385866_);" d="M947.39,2370.371l71.201-248.65
						c0.808-2.823,3.216-4.881,6.132-5.221c12.901-1.505,50.281-5.731,93.441-9.382c51.986-4.398,112.359-7.96,148.435-4.93
						c5.129,0.431,8.228,5.856,5.947,10.47c-20.515,41.505-104.902,210.337-147.16,265.645c-1.4,1.833-3.565,2.904-5.871,2.882
						l-165.198-1.537C949.509,2379.604,946.067,2374.992,947.39,2370.371z"/>
					
						<linearGradient id="SVGID_00000061438213712197663200000011640363120781666945_" gradientUnits="userSpaceOnUse" x1="16358.5156" y1="2268.1404" x2="16453.375" y2="2268.1404" gradientTransform="matrix(1 0 0 1 -15400.792 0)">
						<stop  offset="0" style="stop-color:#F9B776"/>
						<stop  offset="1" style="stop-color:#F47960"/>
					</linearGradient>
					<path style="fill:url(#SVGID_00000061438213712197663200000011640363120781666945_);" d="M964.593,2310.297
						c0,0-9.919-40.784-5.918-55.253c4.001-14.469,11.753-33.073,37.59-28.939c25.839,4.134,56.317,15.019,56.317,15.019
						s-1.54,18.847-21.177,12.766l12.178,9.423c0,0-1.741,15.09-18.328,7.028l11.326,12.496c0,0-7.124,12.394-19.327,4.445
						C1005.051,2279.332,999.201,2315.208,964.593,2310.297z"/>
				</g>
				
					<linearGradient id="SVGID_00000096017149439650724420000009309013090770166187_" gradientUnits="userSpaceOnUse" x1="-4265.3916" y1="2157.9924" x2="-4240.3701" y2="2262.248" gradientTransform="matrix(-1 0 0 1 -3125.4695 0)">
					<stop  offset="0" style="stop-color:#53D8FF"/>
					<stop  offset="1" style="stop-color:#3840F7"/>
				</linearGradient>
				<path style="fill:url(#SVGID_00000096017149439650724420000009309013090770166187_);" d="M1113.417,2181.346
					c0,11.543,9.357,20.9,20.901,20.9c11.543,0,20.9-9.357,20.9-20.9c0-11.544-9.357-20.901-20.9-20.901
					C1122.774,2160.445,1113.417,2169.802,1113.417,2181.346z"/>
				<path style="fill:#FFFFFF;" d="M1025.61,2194.817l-3.257-0.962l14.498-49.174c2.247-7.623,8.399-13.352,16.051-14.947
					c45.846-9.568,170.637-11.586,171.892-11.606l0.053,3.396c-1.252,0.018-125.721,2.033-171.252,11.533
					c-6.426,1.342-11.594,6.164-13.488,12.586L1025.61,2194.817z"/>
			</g>
		</g>
	</g>
</g>
</svg>
