<?xml version="1.0" encoding="utf-8"?>
<!-- Generator: Adobe Illustrator 27.5.0, SVG Export Plug-In . SVG Version: 6.00 Build 0)  -->
<svg version="1.1" xmlns="http://www.w3.org/2000/svg" xmlns:xlink="http://www.w3.org/1999/xlink" x="0px" y="0px"
	 viewBox="0 0 500 500" style="enable-background:new 0 0 500 500;" xml:space="preserve">
<g id="BACKGROUND">
	<rect style="fill:#FFFFFF;" width="500" height="500"/>
</g>
<g id="OBJECTS">
	<g>
		<g>
			<g>
				<path style="fill:#F8EDFC;" d="M432.311,410c10.308,0,19.784-5.702,24.574-14.83c27.363-52.142,17.869-128.803-19.049-149.372
					c-46.161-25.718,19.124-100.895-42.204-139.142c-61.328-38.248-110.786,48.799-193.876,1.319
					c-83.09-47.48-156.948,35.61-141.121,69.242c15.827,33.632,27.697,74.517-18.464,120.678
					c-31.764,31.764-5.455,76.635,14.047,101.538C61.459,406.126,69.512,410,78.015,410H432.311z"/>
				<path style="opacity:0.33;fill:#EDBBF9;" d="M437.836,245.798c-46.161-25.718,19.124-100.895-42.204-139.142
					c-20.083-12.525-38.894-11.613-58.029-6.389c21.833-0.32,54.949,5.19,56.27,41.321c1.978,54.074-75.176,89.684-17.805,128.592
					c56.781,38.507,23.771,118.988-42.76,139.821h99.003c10.308,0,19.784-5.702,24.574-14.83
					C484.247,343.029,474.754,266.367,437.836,245.798z"/>
			</g>
			<g>
				<g>
					<g>
						<g>
							<path style="fill:#9B33B5;" d="M119.147,165.786L119.147,165.786c-2.914-5.172-1.656-11.553-1.427-17.486
								c0.23-5.933-1.604-13.08-7.273-14.844c-2.857-0.889-6.532-0.373-8.291-2.793c-2.569-3.534,2.16-8.606,0.573-12.677
								c-1.1-2.823-4.607-3.698-6.901-5.678c-2.969-2.562-3.72-6.885-3.478-10.799c0.242-3.914,1.279-7.781,1.1-11.699
								c-0.179-3.917-1.962-8.141-5.59-9.629c7.141,1.349,14.379,2.73,20.913,5.911c6.534,3.182,12.39,8.437,14.667,15.339
								c1.546,4.688,1.748,10.47,5.834,13.239c2.538,1.719,5.823,1.667,8.88,1.9c3.057,0.232,6.471,1.069,8.001,3.725
								c1.665,2.891,0.356,6.595,1.135,9.838c1.022,4.254,5.269,6.768,8.126,10.081c4.751,5.51,5.602,13.764,3.039,20.573
								c-2.499,6.641-8.543,14.422-16.243,14.102C134.454,174.567,123.346,173.239,119.147,165.786z"/>
						</g>
						<g>
							<path style="fill:#781291;" d="M134.141,148.857c-0.578-7.074-0.222-14.193,1.062-21.175
								c0.044-0.237-0.323-0.317-0.366-0.079c-1.242,6.753-1.62,13.639-1.128,20.486c-0.499-1.083-0.988-2.169-1.468-3.254
								c-5.5-12.432-10.178-25.336-17.709-36.746c-0.13-0.197-0.263-0.392-0.395-0.588c0-0.009,0-0.018-0.002-0.028
								c-0.564-3.204-1.127-6.407-1.691-9.611c-0.042-0.237-0.399-0.123-0.358,0.112c0.515,2.927,1.03,5.854,1.545,8.782
								c-0.001-0.001-0.001-0.002-0.002-0.003c-0.01-0.054-0.04-0.106-0.095-0.136c-3.896-5.628-8.523-10.745-14.066-14.798
								c-0.193-0.141-0.445,0.137-0.25,0.28c5.419,3.963,9.88,8.879,13.689,14.3c-2.669-0.911-5.338-1.823-8.007-2.734
								c-0.228-0.078-0.305,0.289-0.079,0.366c2.816,0.962,5.632,1.923,8.449,2.885c3.839,5.557,7.009,11.624,9.828,17.73
								c2.443,5.293,4.665,10.696,6.961,16.063c-5.446-6.253-11.811-11.652-18.87-16.006c-0.205-0.127-0.374,0.208-0.17,0.334
								c7.242,4.468,13.75,10.046,19.28,16.513c0.045,0.052,0.096,0.064,0.144,0.053c3.003,6.987,6.159,13.899,10.125,20.413
								c3.963,6.508,8.745,12.533,14.663,17.371c0.186,0.152,0.438-0.126,0.25-0.279c-9.723-7.947-16.118-18.884-21.363-30.14
								C134.134,148.939,134.144,148.902,134.141,148.857z"/>
						</g>
					</g>
				</g>
				<g>
					<g>
						<g>
							<path style="fill:#CB6DE2;" d="M144.82,146.651L144.82,146.651c1.992-4.192,6.635-6.262,10.529-8.788
								c3.894-2.526,7.634-6.917,6.208-11.334c-0.719-2.226-2.704-4.341-1.95-6.556c1.1-3.233,6.471-2.497,8.357-5.344
								c1.308-1.975,0.287-4.609,0.519-6.966c0.3-3.051,2.723-5.478,5.333-7.087c2.61-1.608,5.548-2.688,7.969-4.567
								c2.422-1.879,4.317-4.921,3.634-7.909c2.355,5.17,4.733,10.417,5.644,16.024c0.911,5.608,0.191,11.717-3.193,16.28
								c-2.299,3.099-5.902,5.833-5.83,9.691c0.045,2.396,1.558,4.471,2.786,6.529c1.229,2.058,2.232,4.616,1.224,6.79
								c-1.097,2.366-4.053,3.198-5.774,5.157c-2.258,2.569-1.95,6.415-2.78,9.733c-1.38,5.518-6.27,9.779-11.775,11.209
								c-5.369,1.395-13.062,1.039-16.326-4.026C146.104,160.386,141.949,152.691,144.82,146.651z"/>
						</g>
						<g>
							<path style="fill:#9B33B5;" d="M162.389,148.605c4.26-3.556,8.968-6.535,14.007-8.86c0.171-0.079,0.057-0.349-0.114-0.27
								c-4.874,2.249-9.443,5.108-13.596,8.507c0.468-0.807,0.941-1.608,1.418-2.404c5.465-9.114,11.602-17.916,15.499-27.866
								c0.067-0.172,0.132-0.345,0.198-0.518c0.006-0.004,0.011-0.009,0.017-0.014c1.793-1.803,3.586-3.606,5.379-5.41
								c0.133-0.133-0.102-0.31-0.233-0.178c-1.638,1.647-3.277,3.295-4.915,4.943c0-0.001,0.001-0.002,0.001-0.003
								c0.03-0.031,0.049-0.073,0.044-0.122c1.841-5.024,3.026-10.285,3.118-15.652c0.003-0.187-0.288-0.223-0.291-0.034
								c-0.091,5.247-1.222,10.312-2.97,15.187c-0.62-2.116-1.24-4.232-1.86-6.347c-0.053-0.181-0.322-0.065-0.27,0.114
								c0.654,2.232,1.308,4.465,1.963,6.697c-1.821,4.956-4.269,9.715-6.9,14.266c-2.281,3.946-4.732,7.799-7.127,11.683
								c1.542-6.296,2.124-12.795,1.726-19.266c-0.012-0.188-0.302-0.145-0.29,0.042c0.408,6.64-0.225,13.31-1.866,19.756
								c-0.013,0.052,0.003,0.09,0.031,0.116c-3.111,5.066-6.106,10.196-8.481,15.665c-2.373,5.463-4.068,11.233-4.493,17.193
								c-0.013,0.187,0.278,0.223,0.291,0.034c0.698-9.792,4.804-18.804,9.633-27.226
								C162.334,148.637,162.362,148.627,162.389,148.605z"/>
						</g>
					</g>
				</g>
				<g>
					<g>
						<g>
							<path style="fill:#DE4ED1;" d="M115.469,173.869"/>
						</g>
						<g>
							<path style="fill:#CB6DE2;" d="M103.173,174.33L103.173,174.33c-13.829-6.941-25.257-18.945-32.201-33.145
								c14.744-2.281,30.245-0.071,44.104,6.288c10.939,5.019,21.746,12.84,29.285,22.634c9.398,12.21-15.344,11.16-21.203,10.383
								C116.267,179.577,109.48,177.496,103.173,174.33z"/>
						</g>
						<path style="fill:#9B33B5;" d="M150.548,177.376c-6.297-1.591-12.532-3.445-18.691-5.544c-1.835-2.754-3.22-5.719-4.159-8.942
							c-0.058-0.2-0.339-0.074-0.281,0.125c0.909,3.119,2.236,5.986,3.972,8.662c-4.473-1.535-8.903-3.21-13.288-5.007
							c-1.905-3.63-3.961-7.158-6.171-10.587c-0.111-0.173-0.35,0.028-0.239,0.201c2.133,3.308,4.119,6.71,5.966,10.208
							c-5.445-2.244-10.814-4.697-16.103-7.338c-2.112-3.688-4.223-7.376-6.335-11.064c-0.102-0.179-0.341,0.023-0.239,0.201
							c2.026,3.538,4.052,7.076,6.078,10.614c-8.218-4.126-16.239-8.714-24.008-13.768c-0.166-0.108-0.351,0.151-0.183,0.26
							c7.827,5.091,15.906,9.709,24.186,13.86c-3.499,0.996-7.047,1.535-10.674,1.633c-0.196,0.005-0.155,0.328,0.039,0.323
							c3.761-0.102,7.44-0.681,11.063-1.742c5.259,2.624,10.597,5.063,16.01,7.296c-4.404,1.773-8.971,2.836-13.674,3.198
							c-0.196,0.015-0.155,0.338,0.04,0.323c4.844-0.373,9.54-1.482,14.067-3.343c0.023,0.016,0.049,0.024,0.075,0.026
							c4.42,1.812,8.885,3.498,13.394,5.043c-2.552,1.858-5.246,3.413-8.1,4.683c-0.181,0.081-0.063,0.381,0.118,0.301
							c2.951-1.313,5.724-2.924,8.355-4.86c6.176,2.106,12.428,3.965,18.743,5.561C150.7,177.747,150.738,177.424,150.548,177.376z"
							/>
					</g>
				</g>
				<g>
					<g>
						<g>
							<path style="fill:#DE4ED1;" d="M144.307,129.901"/>
						</g>
						<g>
							<path style="fill:#EDBBF9;" d="M140.072,120.561L140.072,120.561c0.992-12.858,6.647-25.461,15.412-35.298
								c6.411,10.655,9.596,23.311,9.062,36.008c-0.421,10.022-3.046,20.827-8.223,29.733c-6.455,11.102-13.45-8.317-14.7-13.082
								C140.154,132.317,139.619,126.425,140.072,120.561z"/>
						</g>
						<path style="fill:#9B33B5;" d="M152.667,158.07c-0.759-5.36-1.296-10.755-1.619-16.169c1.545-2.285,3.396-4.288,5.587-6.03
							c0.136-0.108-0.05-0.285-0.185-0.177c-2.12,1.685-3.912,3.613-5.429,5.797c-0.227-3.935-0.332-7.881-0.329-11.831
							c2.2-2.615,4.273-5.314,6.221-8.101c0.098-0.14-0.132-0.261-0.23-0.121c-1.879,2.689-3.877,5.294-5.993,7.823
							c0.014-4.909,0.212-9.824,0.581-14.738c2.179-2.793,4.358-5.585,6.537-8.378c0.106-0.135-0.125-0.256-0.23-0.121
							c-2.09,2.679-4.181,5.358-6.271,8.037c0.591-7.642,1.599-15.277,3.048-22.865c0.031-0.162-0.227-0.223-0.258-0.059
							c-1.458,7.644-2.473,15.334-3.063,23.031c-1.872-2.385-3.407-4.953-4.628-7.72c-0.066-0.15-0.302-0.015-0.237,0.133
							c1.265,2.869,2.873,5.524,4.834,7.985c-0.365,4.885-0.563,9.772-0.578,14.653c-2.758-2.838-5.018-6.026-6.781-9.54
							c-0.074-0.146-0.31-0.013-0.237,0.133c1.816,3.619,4.153,6.893,7.017,9.797c-0.005,0.023-0.003,0.045,0.003,0.066
							c-0.003,3.981,0.105,7.958,0.335,11.924c-2.238-1.383-4.288-2.97-6.168-4.771c-0.119-0.114-0.314,0.072-0.195,0.186
							c1.944,1.863,4.062,3.493,6.385,4.912c0.323,5.429,0.862,10.839,1.623,16.214C152.429,158.304,152.69,158.231,152.667,158.07z
							"/>
					</g>
				</g>
			</g>
			<g>
				<g>
					<path style="fill:#CB6DE2;" d="M308.878,118.837h-74.52c-4.108,0-7.438,3.33-7.438,7.438v34.777
						c0,4.108,3.33,7.438,7.438,7.438h74.755c3.797,0,7.409-1.636,9.913-4.49l14.286-16.28c1.678-1.913,1.72-4.761,0.099-6.722
						l-14.368-17.377C316.536,120.591,312.809,118.837,308.878,118.837z"/>
				</g>
				<g>
					<g>
						<path style="fill:#9B33B5;" d="M281.654,135.423c0-2.591,1.332-4.032,3.817-4.032c2.484,0,3.815,1.441,3.815,4.032v8.281
							c0,2.591-1.331,4.032-3.815,4.032c-2.484,0-3.817-1.441-3.817-4.032V135.423z M284.173,143.885
							c0,1.115,0.469,1.583,1.297,1.583c0.792,0,1.296-0.468,1.296-1.583v-8.64c0-1.117-0.504-1.584-1.296-1.584
							c-0.828,0-1.297,0.468-1.297,1.584V143.885z M295.406,131.572h2.341l-9.937,25.201h-2.339L295.406,131.572z M294.146,144.64
							c0-2.591,1.332-4.032,3.817-4.032c2.484,0,3.817,1.441,3.817,4.032v8.281c0,2.591-1.332,4.032-3.817,4.032
							c-2.484,0-3.817-1.441-3.817-4.032V144.64z M296.667,153.101c0,1.115,0.468,1.583,1.296,1.583
							c0.792,0,1.296-0.467,1.296-1.583v-8.64c0-1.117-0.504-1.584-1.296-1.584c-0.828,0-1.296,0.468-1.296,1.584V153.101z"/>
					</g>
					<g>
						<path style="fill:#9B33B5;" d="M249.934,149.47v2.508c0,1.931,0.85,2.626,2.2,2.626c1.352,0,2.2-0.695,2.2-2.626v-5.943
							c0-1.93-0.849-2.663-2.2-2.663c-1.35,0-2.2,0.734-2.2,2.663v0.811h-4.013l0.772-15.672h11.193v3.861h-7.372l-0.347,6.444
							c0.772-1.273,2.007-1.967,3.705-1.967c3.126,0,4.708,2.2,4.708,6.176v6.02c0,4.325-2.161,6.795-6.33,6.795
							c-4.169,0-6.33-2.47-6.33-6.795v-2.238H249.934z"/>
						<path style="fill:#9B33B5;" d="M261.058,137.66c0-4.323,2.279-6.793,6.446-6.793c4.169,0,6.446,2.47,6.446,6.793v14.048
							c0,4.325-2.277,6.795-6.446,6.795c-4.167,0-6.446-2.47-6.446-6.795V137.66z M265.304,151.978c0,1.931,0.85,2.664,2.2,2.664
							c1.351,0,2.2-0.732,2.2-2.664v-14.589c0-1.93-0.849-2.664-2.2-2.664c-1.35,0-2.2,0.734-2.2,2.664V151.978z"/>
					</g>
				</g>
			</g>
			<g>
				<path style="fill:#CB6DE2;" d="M183.553,201.032H79.896c-5.129,0-9.286,4.158-9.286,9.286v43.419
					c0,5.129,4.158,9.287,9.286,9.287h103.657c5.129,0,9.286-4.158,9.286-9.287v-43.419
					C192.839,205.19,188.681,201.032,183.553,201.032z"/>
				<rect x="70.61" y="220.917" style="fill:#611FC9;" width="122.23" height="8.773"/>
				<g>
					<rect x="78.407" y="238.656" style="fill:#611FC9;" width="27.682" height="3.509"/>
					<rect x="78.407" y="247.624" style="fill:#611FC9;" width="19.689" height="3.509"/>
				</g>
			</g>
			<g>
				<g>
					<rect x="323.52" y="291.164" style="fill:#8050DD;" width="53.487" height="63.966"/>
					<rect x="358.156" y="291.164" style="fill:#611FC9;" width="18.851" height="63.966"/>
				</g>
				<g>
					<rect x="376.85" y="324.208" style="fill:#CB6DE2;" width="29.617" height="30.922"/>
					<rect x="396.029" y="324.208" style="fill:#B452CC;" width="10.438" height="30.922"/>
				</g>
				<g>
					<rect x="329.945" y="269.584" style="fill:#CB6DE2;" width="40.586" height="21.56"/>
					<rect x="356.226" y="269.584" style="fill:#B452CC;" width="14.304" height="21.56"/>
				</g>
				<g>
					<rect x="376.85" y="295.375" style="fill:#9B33B5;" width="39.645" height="28.885"/>
					<rect x="402.523" y="295.375" style="fill:#781291;" width="13.973" height="28.885"/>
				</g>
				<g>
					<g>
						<path style="fill:#2C1B4C;" d="M304.177,307.471c-0.649,0-1.212-0.353-1.422-0.969l-4.269-12.526
							c-1.982-5.818-7.284-9.432-13.836-9.432h-14.931c-0.99,0-1.651-0.803-1.475-1.793c0.176-0.991,1.121-1.793,2.111-1.793h14.931
							c7.897,0,14.288,4.356,16.677,11.369l4.269,12.526c0.3,0.88-0.236,1.962-1.196,2.417
							C304.748,307.406,304.455,307.471,304.177,307.471z"/>
						<path style="fill:#2C1B4C;" d="M440.147,304.424c-0.237-0.52-0.753-0.835-1.368-0.835H304.546
							c-0.615,0-1.243,0.315-1.664,0.835c-0.421,0.52-0.576,1.172-0.41,1.728l15.34,51.46c0.186,0.625,0.746,1.023,1.438,1.023
							h85.308c0.692,0,1.393-0.398,1.801-1.023l33.585-51.46C440.307,305.596,440.384,304.944,440.147,304.424z M414.549,338.978
							h-22.81l6.813-16.368l26.669,0.016L414.549,338.978z M390.098,338.978h-23.887l2.91-16.385l27.79,0.017L390.098,338.978z
							 M311.333,322.558l26.556,0.016l0.954,16.404h-22.615L311.333,322.558z M339.682,322.575l27.772,0.016l-2.911,16.386h-23.907
							L339.682,322.575z M339.587,320.931l-0.8-13.755h31.405l-2.443,13.755L339.587,320.931z M364.241,340.676l-2.553,14.373
							h-20.117l-0.836-14.373H364.241z M365.91,340.676h23.481l-5.983,14.373h-20.052L365.91,340.676z M369.417,320.93l2.443-13.755
							h31.476l-5.725,13.754L369.417,320.93z M336.994,307.175l0.8,13.755l-26.946,0l-4.1-13.756H336.994z M316.734,340.676h22.208
							l0.836,14.373h-18.759L316.734,340.676z M404.061,355.049h-19.011l5.983-14.373h22.409L404.061,355.049z M426.329,320.929
							l-27.077,0.001l5.725-13.754h30.328L426.329,320.929z"/>
						<path style="fill:#2C1B4C;" d="M406.052,398.798H337.19c-4.252,0-7.668-2.508-8.709-6.391l-10.864-35.449
							c-0.266-0.895,0.566-2.196,1.536-2.62c0.97-0.424,1.646,0.021,1.911,0.916L332,390.89c0.004,0.014,0.009,0.029,0.012,0.043
							c0.69,2.599,2.971,4.279,5.814,4.279h68.862c0.99,0,1.651,0.803,1.475,1.793C407.988,397.995,407.042,398.798,406.052,398.798
							z"/>
					</g>
					<g>
						<path style="fill:#2C1B4C;" d="M353.158,403.22c-0.016-5.284-4.304-9.563-9.592-9.563c-5.288,0-9.575,4.279-9.592,9.563
							H353.158z"/>
						<path style="fill:#2C1B4C;" d="M350.316,403.25c0,3.728-3.022,6.75-6.75,6.75c-3.728,0-6.75-3.022-6.75-6.75
							c0-3.728,3.022-6.75,6.75-6.75C347.294,396.5,350.316,399.522,350.316,403.25z"/>
						<path style="fill:#FFFFFF;" d="M343.567,406.833c-1.976,0-3.583-1.607-3.583-3.583c0-1.975,1.607-3.582,3.583-3.582
							c1.975,0,3.582,1.607,3.582,3.582C347.148,405.226,345.541,406.833,343.567,406.833z"/>
					</g>
					<g>
						<path style="fill:#2C1B4C;" d="M400.852,403.22c-0.016-5.284-4.304-9.563-9.592-9.563c-5.288,0-9.576,4.279-9.592,9.563
							H400.852z"/>
						<path style="fill:#2C1B4C;" d="M398.01,403.25c0,3.728-3.022,6.75-6.75,6.75s-6.75-3.022-6.75-6.75
							c0-3.728,3.022-6.75,6.75-6.75S398.01,399.522,398.01,403.25z"/>
						<path style="fill:#FFFFFF;" d="M391.26,406.833c-1.975,0-3.582-1.607-3.582-3.583c0-1.975,1.607-3.582,3.582-3.582
							c1.976,0,3.583,1.607,3.583,3.582C394.842,405.226,393.235,406.833,391.26,406.833z"/>
					</g>
				</g>
			</g>
			<g>
				<g>
					<path style="fill:#2C1B4C;" d="M291.837,345.139l-51.231-177.817c-2.38-8.259-11.004-14.955-19.264-14.955h-85.151
						c-8.26,0-13.026,6.696-10.646,14.955l51.231,177.817c2.38,8.26,11.004,14.955,19.264,14.955h85.151
						C289.45,360.094,294.217,353.398,291.837,345.139z"/>
					<g>
						<g>
							<g>
								<g>
									<path style="fill:#611FC9;" d="M228.503,152.366h-85.151c-8.26,0-13.026,6.696-10.646,14.955l51.231,177.818
										c2.38,8.26,11.004,14.955,19.264,14.955h85.151c8.259,0,13.026-6.696,10.646-14.955l-51.231-177.818
										C245.388,159.062,236.763,152.366,228.503,152.366z"/>
								</g>
							</g>
						</g>
						<path style="fill:#FFFFFF;" d="M230.118,157.97h-12.495l-2.041,8.52c-0.763,3.185-3.494,5.178-7.095,5.178H174.49
							c-3.601,0-7.48-1.993-10.078-5.178l-6.95-8.52h-12.495c-5.156,0-8.143,4.195-6.657,9.352l51.231,177.818
							c1.486,5.156,6.889,9.352,12.046,9.352h85.151c5.157,0,8.143-4.195,6.657-9.352l-51.231-177.818
							C240.678,162.165,235.274,157.97,230.118,157.97z"/>
						<g>
							<path style="fill:#E8E4EF;" d="M143.195,159.742h12.495l6.95,8.52c2.598,3.185,6.477,5.178,10.078,5.178h33.998
								c2.701,0,4.912-1.121,6.17-3.025c-1.196,0.804-2.698,1.253-4.398,1.253H174.49c-3.601,0-7.48-1.993-10.078-5.178l-6.95-8.52
								h-12.495c-2.668,0-4.748,1.129-5.935,2.928C140.155,160.163,141.566,159.742,143.195,159.742z"/>
							<path style="fill:#E8E4EF;" d="M293.395,345.139l-51.231-177.818c-1.486-5.157-6.889-9.352-12.046-9.352h-12.495
								l-0.425,1.773h11.146c5.157,0,10.56,4.195,12.046,9.352l51.231,177.818c0.717,2.488,0.384,4.746-0.722,6.423
								C293.332,351.743,294.411,348.667,293.395,345.139z"/>
						</g>
						<path style="fill:#CB6DE2;" d="M241.617,237.322h-59.682c-3.617,0-7.403-2.938-8.442-6.555l-10.994-37.646
							c-0.931-3.232,1.495-6.456,4.859-6.456h62.261c2.253,0,4.235,1.491,4.859,3.657l11.801,40.445
							C247.323,234.385,245.228,237.322,241.617,237.322z"/>
						<g>
							<path style="fill:#9B33B5;" d="M217.426,219.427H193.63c-1.439,0-2.952-1.176-3.363-2.615l-3.598-12.308
								c-0.368-1.259,0.575-2.518,1.886-2.519l24.919-0.021c0.875-0.001,1.645,0.576,1.89,1.416l3.92,13.433
								C219.704,218.251,218.865,219.427,217.426,219.427z"/>
							<path style="fill:#9B33B5;" d="M216.939,200.283l-33.242,0.02c-1.121,0-2.295-0.911-2.617-2.032l-0.512-1.55
								c-0.289-1.002,0.463-2.002,1.507-2.002l34.042-0.02c0.699,0,1.313,0.462,1.506,1.134l0.763,2.418
								C218.708,199.372,218.059,200.283,216.939,200.283z"/>
						</g>
						<path style="fill:#CB6DE2;" d="M251.769,273.253h-59.682c-3.617,0-7.403-2.937-8.442-6.554l-3.066-11.092
							c-0.931-3.233,1.495-6.456,4.859-6.456h62.261c2.253,0,4.235,1.491,4.859,3.657l3.872,13.892
							C257.475,270.315,255.38,273.253,251.769,273.253z"/>
						<path style="fill:#CB6DE2;" d="M215.75,308.708l-14.889,0.173c-3.617,0-7.403-2.938-8.442-6.555l-3.066-11.092
							c-0.931-3.233,1.495-6.456,4.859-6.456l17.468-0.173c2.253,0,4.235,1.491,4.859,3.657l3.872,13.892
							C221.456,305.771,219.361,308.708,215.75,308.708z"/>
						<path style="fill:#CB6DE2;" d="M259.455,289.147l-36.305,0.136c-0.577,0-1.182-0.469-1.348-1.046l-0.489-1.771
							c-0.149-0.516,0.239-1.031,0.776-1.031l36.717-0.136c0.36,0,0.676,0.238,0.776,0.584l0.618,2.218
							C260.366,288.678,260.031,289.147,259.455,289.147z"/>
						<path style="fill:#CB6DE2;" d="M261.98,297.124l-36.305,0.136c-0.577,0-1.182-0.469-1.348-1.046l-0.49-1.771
							c-0.149-0.516,0.239-1.031,0.776-1.031l36.717-0.136c0.36,0,0.676,0.238,0.776,0.584l0.618,2.218
							C262.892,296.655,262.557,297.124,261.98,297.124z"/>
						<path style="fill:#CB6DE2;" d="M224.116,342.175l-14.888,0.173c-3.617,0-7.403-2.938-8.442-6.555l-3.066-11.092
							c-0.931-3.232,1.495-6.456,4.859-6.456l17.468-0.173c2.254,0,4.235,1.491,4.859,3.657l3.872,13.892
							C229.823,339.237,227.728,342.175,224.116,342.175z"/>
						<path style="fill:#CB6DE2;" d="M269.256,323.224l-36.305,0.136c-0.577,0-1.182-0.469-1.348-1.046l-0.49-1.771
							c-0.149-0.516,0.239-1.031,0.776-1.031l36.717-0.136c0.36,0,0.676,0.238,0.776,0.584l0.618,2.218
							C270.167,322.755,269.832,323.224,269.256,323.224z"/>
						<path style="fill:#CB6DE2;" d="M254.858,332.338l-20.089,0.116c-0.577,0-1.182-0.469-1.348-1.047l-0.489-1.771
							c-0.149-0.516,0.239-1.031,0.776-1.031l20.501-0.116c0.36,0,0.676,0.238,0.776,0.584l0.618,2.218
							C255.769,331.869,255.435,332.338,254.858,332.338z"/>
						<path style="fill:#CB6DE2;" d="M247.311,305.966l-19.775,0.068c-0.577,0-1.182-0.469-1.348-1.046l-0.49-1.771
							c-0.149-0.516,0.239-1.031,0.776-1.031l20.186-0.068c0.36,0,0.676,0.238,0.776,0.584l0.618,2.218
							C248.222,305.497,247.888,305.966,247.311,305.966z"/>
					</g>
				</g>
				<path style="fill:#9B33B5;" d="M233.282,226.837l-47.081-0.082c-0.547,0-1.119-0.444-1.277-0.991l-0.25-0.756
					c-0.141-0.489,0.226-0.976,0.735-0.976l47.471,0.082c0.341,0,0.64,0.226,0.735,0.553l0.372,1.179
					C234.145,226.393,233.828,226.837,233.282,226.837z"/>
				<g>
					<path style="fill:#FFA683;" d="M284.566,318.889c0.563-1.675,1.605-3.507,2.399-5.639h-19.984
						c-3.878,16.794-5.295,31.952-5.295,31.952l4.54,56.609l8.01,0.089c0.671-7.831,0.788-33.056,3.222-55.491
						C278.752,334.492,282.892,323.873,284.566,318.889z"/>
					<g>
						<path style="fill:#FFA683;" d="M300.416,318.889c0.408-1.577,0.738-3.507,1.006-5.639h-19.984
							c0.271,16.794,2.599,31.952,2.599,31.952l18.191,56.788l7.854-0.336c0.684-5.475-6.278-34.817-9.398-57.393
							C299.064,332.532,299.527,322.326,300.416,318.889z"/>
						<path style="fill:#7327CC;" d="M310.216,401.655l0.626,5.448c0,1.6-1.167,2.897-2.606,2.897h-18.91
							c-1.017,0-1.411-1.471-0.557-2.085c2.498-1.794,10.768-4.37,13.388-6.158L310.216,401.655z"/>
					</g>
					<path style="fill:#FFA683;" d="M300.997,263.326c-0.931-4.855-1.246-9.776,0.097-13.174c2.387-6.029,2.395-16.678,1.182-24.172
						c3.69,4.855,7.712,11.103,8.481,16.12C311.655,248.007,305.731,257.127,300.997,263.326z"/>
					<path style="fill:#442D68;" d="M306.007,332.759c-7.753,1.797-15.667,2.703-23.573,2.703c-6.862,0-13.717-0.68-20.474-2.031
						l-3.326-0.672c0,0,1.392-42.574,5.373-48.983c0,0,29.27,1.918,40.64-3.455c0.574,4.402,0.866,11.378-1.182,19.163
						C300.002,312.657,306.702,323.979,306.007,332.759z"/>
					<path style="fill:#CB6DE2;" d="M274.927,217.161c0,0-5.719,7.568-7.799,11.843c-1.729,3.554-6.933,11.439,1.213,21.145
						c8.146,9.706-4.333,28.77-4.333,33.623c0,0,31.717,2.08,41.942-4.16c0,0-8.492-20.278-4.853-29.464
						c3.64-9.186,1.733-29.117-1.56-32.237C296.245,214.793,274.927,217.161,274.927,217.161z"/>
					<path style="fill:#FFA683;" d="M268.06,194.294c0,0-6.063,16.822,6.94,16.807v6.125h11.564v-21.645
						c0,0-9.265-3.689-9.535-3.689C276.758,191.892,268.06,194.294,268.06,194.294z"/>
					<path style="opacity:0.62;fill:#E58365;" d="M275.124,216.921h2.135c-0.041-2.116,0.009-4.05,0.301-4.497
						c0.706-1.083,2.025-2.778,2.025-2.778c-0.847,0.424-4.461,1.059-4.461,1.059V216.921z"/>
					<path style="fill:#2E1B54;" d="M264.579,333.915c-1.383-11.423,3.009-35.344,6.355-51.595l-6.926,1.452
						c-3.986,6.413-5.373,48.991-5.373,48.991l3.323,0.664C262.83,333.602,263.704,333.763,264.579,333.915z"/>
					<path style="fill:#B452CC;" d="M280.589,237.092c4.102-5.488,1.849-12.074,1.849-12.074l-14.923,3.233
						c-0.138,0.259-0.27,0.513-0.387,0.753c-1.729,3.554-6.933,11.439,1.213,21.145c8.146,9.706-4.333,28.77-4.333,33.623
						c0,0,2.614,0.171,6.574,0.267c1.837-9.03,3.44-16.035,3.739-17.859c0.866-5.286-0.144-12.334-2.571-16.725
						C269.323,245.065,276.487,242.581,280.589,237.092z"/>
					<path style="fill:#FFA683;" d="M217.761,217.965l33.071,31.829c1.65,1.754,4.33,2.044,6.311,0.675
						c9.114-6.296,32.971-23.355,22.223-29.625c-6.548-3.82-27.818,16.688-27.818,16.688l-28.91-22.065c0,0-1.063-3.66-2.124-4.198
						c-1.061-0.538-10.684-1.215-9.96-0.433c0.723,0.782,5.741,1.98,5.741,1.98S215.652,217.235,217.761,217.965z"/>
					<path style="opacity:0.62;fill:#E58365;" d="M280.335,221.516c-0.286-0.235-0.606-0.46-0.968-0.672
						c-6.548-3.82-27.818,16.688-27.818,16.688l-28.91-22.064c0,0,27.127,24.611,29.173,24.611
						C253.683,240.079,270.04,222.178,280.335,221.516z"/>
					<path style="fill:#442D68;" d="M278.56,198.551c0,0,2.575-1.74,4.176,0.835c0.955,1.537-1.23,3.41-2.204,5.637
						c-0.974,2.227-1.183,5.406,3.132,6.867c4.315,1.462-6.69,11.242-1.857,18.951c5.614,8.955,15.701,9.146,20.921,1.281
						c5.22-7.865,0.563-12.854-2.082-16.752c-2.645-3.898-0.742-4.01-0.394-7.072c0.348-3.062-2.947-7.126-4.547-8.1
						c-1.601-0.974,1.456-10.773-4.39-14.044c-5.846-3.271-17.749-6.976-23.738,8.539
						C267.576,194.693,271.561,198.108,278.56,198.551z"/>
					<path style="fill:#7327CC;" d="M274.461,401.655l0.626,5.448c0,1.6-1.167,2.897-2.606,2.897h-18.91
						c-1.017,0-1.411-1.471-0.557-2.085c2.498-1.794,10.768-4.37,13.388-6.158L274.461,401.655z"/>
					<path style="opacity:0.62;fill:#E58365;" d="M304.938,401.876l-2.711,0.113l-18.192-56.784c0,0-0.583-3.812-1.206-9.743
						c1.805-0.008,3.617-0.065,5.422-0.162c0,3.771,0.186,9.088,1.157,13.927C290.825,356.316,302.227,393.144,304.938,401.876z"/>
					<path style="opacity:0.62;fill:#E58365;" d="M299.879,335.984c-4.88,1.529-13.514,1.78-16.711,1.821
						c-0.122-1.052-0.201-1.088-0.338-2.343c5.657-0.024,11.305-0.51,16.905-1.449C299.783,335.017,299.798,334.923,299.879,335.984
						z"/>
					<path style="fill:#E58365;" d="M265.779,336.077c0,0-1.966,4.831-1.788,9.84c0.146,4.224,3.601,43.578,4.685,55.919
						l-2.452-0.024l-4.54-56.606c0,0,0.429-4.605,1.465-11.548c5.381,1.02,10.828,1.602,16.282,1.756
						c-0.154,0.607-0.291,1.23-0.437,1.853C275.846,337.105,267.786,336.643,265.779,336.077z"/>
				</g>
				<path style="fill:#9B33B5;" d="M227.371,232.839l-33.489-0.082c-0.547,0-1.119-0.444-1.277-0.991l-0.25-0.756
					c-0.141-0.489,0.226-0.976,0.735-0.976l33.879,0.082c0.341,0,0.64,0.225,0.735,0.553l0.372,1.179
					C228.234,232.395,227.917,232.839,227.371,232.839z"/>
				<g>
					<path style="fill:#9B33B5;" d="M195.936,253.779l-0.311-1.147h1.985l0.311,1.147c1.817,0.353,3.058,1.676,3.626,3.772
						l0.132,0.486h-2.294l-0.174-0.64c-0.299-1.103-0.854-1.522-1.626-1.522c-0.772,0-1.1,0.419-0.801,1.522
						c0.862,3.177,5.646,3.331,6.843,7.742c0.568,2.096,0.029,3.442-1.596,3.795l0.305,1.125h-1.985l-0.305-1.125
						c-1.838-0.353-3.086-1.699-3.654-3.795l-0.287-1.059h2.294l0.329,1.214c0.299,1.103,0.892,1.5,1.664,1.5
						c0.772,0,1.15-0.397,0.851-1.5c-0.862-3.176-5.646-3.331-6.843-7.743C193.838,255.478,194.339,254.154,195.936,253.779z"/>
				</g>
				<g>
					<path style="fill:#9B33B5;" d="M209.492,264.261l-0.166-9.504h2.411l4.185,9.504h1.045l0.885,2.009h-1.045l1.124,2.552h-2.17
						l-1.124-2.552h-4.26L209.492,264.261z M213.432,263.562l-2.159-4.903l0.089,4.903H213.432z"/>
					<path style="fill:#9B33B5;" d="M219.97,264.281l0.575,1.306c0.442,1.004,1.043,1.366,1.747,1.366
						c0.703,0,0.986-0.362,0.544-1.366l-1.363-3.095c-0.442-1.005-1.053-1.386-1.756-1.386c-0.704,0-0.977,0.382-0.535,1.386
						l0.186,0.422h-2.09l-3.19-8.158h5.827l0.885,2.01h-3.838l1.297,3.356c0.11-0.663,0.594-1.025,1.478-1.025
						c1.628,0,2.956,1.145,3.867,3.215l1.38,3.134c0.991,2.251,0.432,3.537-1.738,3.537c-2.17,0-3.862-1.286-4.853-3.537
						l-0.513-1.165H219.97z"/>
					<path style="fill:#9B33B5;" d="M229.131,266.693l0.938,2.13h-2.13l-0.938-2.13H229.131z"/>
					<path style="fill:#9B33B5;" d="M229.532,256.605c-0.703,0-0.977,0.382-0.535,1.386l0.664,1.507h-2.09l-0.602-1.366
						c-0.991-2.251-0.432-3.536,1.738-3.536s3.862,1.286,4.853,3.536c1.947,4.421-1.729,6.068-0.711,8.379
						c0.044,0.1,0.088,0.201,0.153,0.301h4.18l0.885,2.009h-6.39l-0.761-1.728c-1.823-4.139,2.257-4.822,0.469-8.881
						C230.827,256.947,230.235,256.605,229.532,256.605z"/>
					<path style="fill:#9B33B5;" d="M239.624,264.281l0.575,1.306c0.442,1.004,1.043,1.366,1.747,1.366
						c0.703,0,0.986-0.362,0.544-1.366l-1.363-3.095c-0.442-1.005-1.053-1.386-1.756-1.386c-0.704,0-0.977,0.382-0.535,1.386
						l0.186,0.422h-2.09l-3.19-8.158h5.827l0.885,2.01h-3.838l1.297,3.356c0.11-0.663,0.594-1.025,1.478-1.025
						c1.628,0,2.956,1.145,3.867,3.215l1.38,3.134c0.991,2.251,0.432,3.537-1.738,3.537c-2.17,0-3.862-1.286-4.853-3.537
						l-0.513-1.165H239.624z"/>
				</g>
			</g>
			<g>
				<g>
					<path style="fill:#9B33B5;" d="M129.621,377.131c-1.405-1.286-3.797,0.663-12.656-3.815
						c-12.922-6.532-21.686-46.113-21.686-46.113c18.122-5.402,21.05,35.525,28.902,41.787c3.543,2.826,5.368,5.723,6.306,8.054
						L129.621,377.131z"/>
					<path style="fill:#CB6DE2;" d="M102.21,338.559c4.991,11.489,11.233,28.547,19.363,33.371c2.268,1.346,3.99,2.954,5.316,4.573
						c-1.858-0.16-4.812-0.603-9.923-3.186c-12.921-6.532-21.686-46.113-21.686-46.113S97.219,327.069,102.21,338.559z"/>
				</g>
				<g>
					<path style="fill:#9B33B5;" d="M136.99,377.767h-2.012c-1.308-3.326-1.729-9.575,2.645-21.052
						c8.094-21.24,12.179-48.786,6.538-56.887c0,0,19.316,16.461,14.924,33.583C154.963,349.481,134.211,360.185,136.99,377.767z"/>
					<path style="fill:#CB6DE2;" d="M136.171,377.767h-1.194c-1.309-3.324-1.728-9.574,2.646-21.052
						c8.094-21.24,12.179-48.786,6.538-56.887c0,0,12.749,16.951,7.912,33.184C147.297,349.038,132.581,357.382,136.171,377.767z"/>
				</g>
				<g>
					<path style="fill:#9B33B5;" d="M152.593,371.848c-6.753,3.289-9.642,5.477-11.525,8.247h-2.371
						c1.772-6.406,2.829-13.258,6.989-18.439c4.723-5.883,22.925-15.566,23.55-16.689
						C169.861,343.844,161.714,367.405,152.593,371.848z"/>
					<path style="fill:#CB6DE2;" d="M140.781,378.285c-0.141,0.514-0.347,1.136-0.592,1.81h-1.492
						c1.772-6.406,2.829-13.258,6.989-18.439c4.723-5.883,22.925-15.566,23.55-16.689c0,0-8.834,13.248-18.66,19.301
						C143.541,368.604,141.679,375.012,140.781,378.285z"/>
				</g>
				<g>
					<path style="fill:#9B33B5;" d="M131.412,367.697c0.248,4.206,1.041,7.563,1.886,10.07h-1.406
						c-4.825-7.448-12.246-21.904-10.857-38.784c2.031-24.668,4.24-55.592,4.24-55.592s27.158,24.62,13.794,51.926
						C132.406,348.932,130.946,359.79,131.412,367.697z"/>
					<g>
						<path style="fill:#CB6DE2;" d="M130.035,322.189c-2.754,20.442-2.789,43.331,1.599,53.016c-0.8-0.677-1.656-1.389-2.532-2.112
							c-4.421-8.055-9.207-20.269-8.067-34.111c2.031-24.668,4.24-55.592,4.24-55.592S133.618,295.585,130.035,322.189z"/>
					</g>
				</g>
				<path style="fill:#EDBBF9;" d="M151.042,376.514h-30.91c-2.74,0-4.818,2.47-4.35,5.17l3.95,22.748
					c0.614,3.23,3.438,5.568,6.726,5.568h18.257c3.288,0,6.112-2.338,6.726-5.568l3.95-22.748
					C155.86,378.984,153.782,376.514,151.042,376.514z"/>
				<path style="fill:#D786EA;" d="M155.45,381.08c0.089-2.453-1.874-4.566-4.408-4.566h-30.91c-2.534,0-4.497,2.113-4.409,4.566
					H155.45z"/>
				<path style="fill:#D786EA;" d="M151.042,376.514h-8.595c2.74,0,4.818,2.47,4.35,5.17l-3.95,22.748
					c-0.614,3.23-3.438,5.568-6.726,5.568h8.595c3.288,0,6.112-2.338,6.726-5.568l3.95-22.748
					C155.86,378.984,153.782,376.514,151.042,376.514z"/>
			</g>
			<g>
				<g>
					<rect x="202.772" y="368.506" style="fill:#CB6DE2;" width="45.811" height="41.494"/>
					<rect x="209.499" y="378.823" style="fill:#FFFFFF;" width="18.044" height="3.594"/>
					<rect x="209.499" y="389.972" style="fill:#FFFFFF;" width="18.044" height="3.594"/>
					<rect x="233.679" y="368.506" style="fill:#B452CC;" width="14.903" height="41.494"/>
				</g>
				<g>
					<rect x="167.603" y="384.142" style="fill:#8050DD;" width="28.548" height="25.858"/>
					<rect x="171.642" y="396.054" style="fill:#FFFFFF;" width="13.066" height="3.377"/>
					<rect x="187.993" y="384.142" style="fill:#611FC9;" width="8.158" height="25.858"/>
				</g>
			</g>
			<g>
				<g>
					<ellipse style="fill:#9B33B5;" cx="345.801" cy="228.149" rx="25.113" ry="23.875"/>
					<path style="fill:#CB6DE2;" d="M346.764,218.157l2.014,6.2c0.127,0.392,0.493,0.658,0.906,0.658h6.519
						c0.922,0,1.306,1.18,0.56,1.723l-5.274,3.832c-0.334,0.243-0.473,0.672-0.346,1.065l2.015,6.2
						c0.285,0.877-0.719,1.607-1.465,1.065l-5.274-3.832c-0.334-0.243-0.786-0.243-1.12,0l-5.274,3.832
						c-0.746,0.542-1.75-0.187-1.465-1.065l2.014-6.2c0.128-0.392-0.012-0.822-0.346-1.065l-5.274-3.832
						c-0.746-0.542-0.363-1.723,0.56-1.723h6.519c0.413,0,0.778-0.266,0.906-0.658l2.014-6.2
						C345.238,217.279,346.479,217.279,346.764,218.157z"/>
				</g>
				<g>
					<ellipse style="fill:#8050DD;" cx="409.894" cy="228.087" rx="25.113" ry="23.875"/>
					<g>
						<path style="fill:#611FC9;" d="M400.273,219.723c0-2.478,1.274-3.855,3.648-3.855c2.375,0,3.648,1.377,3.648,3.855v7.916
							c0,2.478-1.273,3.855-3.648,3.855c-2.374,0-3.648-1.377-3.648-3.855V219.723z M402.683,227.812
							c0,1.067,0.448,1.514,1.239,1.514c0.757,0,1.239-0.447,1.239-1.514v-8.261c0-1.067-0.482-1.514-1.239-1.514
							c-0.791,0-1.239,0.447-1.239,1.514V227.812z M413.422,216.041h2.237l-9.5,24.093h-2.238L413.422,216.041z M412.217,228.535
							c0-2.478,1.273-3.855,3.648-3.855c2.375,0,3.648,1.377,3.648,3.855v7.916c0,2.478-1.273,3.855-3.648,3.855
							c-2.375,0-3.648-1.377-3.648-3.855V228.535z M414.626,236.623c0,1.067,0.448,1.514,1.239,1.514
							c0.757,0,1.239-0.447,1.239-1.514v-8.261c0-1.067-0.482-1.514-1.239-1.514c-0.791,0-1.239,0.447-1.239,1.514V236.623z"/>
					</g>
				</g>
			</g>
			<path style="fill:#F8EDFC;" d="M314.403,90.371c0-12.177-24.965-16.297-55.762-16.297c-30.796,0-55.762,4.12-55.762,16.297
				c0,12.177,24.965,22.049,55.762,22.049C289.438,112.42,314.403,102.548,314.403,90.371z"/>
			<path style="opacity:0.33;fill:#EDBBF9;" d="M286.118,75.513c6.381,2.528,10.139,6.032,10.139,10.749
				c0,12.177-24.965,22.049-55.762,22.049c-6.342,0-12.429-0.425-18.11-1.196c9.75,3.304,22.409,5.304,36.256,5.304
				c30.796,0,55.762-9.872,55.762-22.049C314.403,82.145,303.003,77.6,286.118,75.513z"/>
		</g>
	</g>
</g>
<g id="DESIGNED_BY_FREEPIK">
	<g>
		<g id="XMLID_319_">
			<g id="XMLID_338_">
				<path id="XMLID_346_" style="fill:#1D262D;" d="M260.104,465.465c-0.432,0.443-0.803,0.931-1.108,1.453l-0.465-0.241
					c-0.067-0.298-0.349-0.503-0.659-0.466c-0.331,0.039-0.568,0.339-0.529,0.67c0.039,0.331,0.339,0.568,0.67,0.529
					c0.066-0.008,0.127-0.026,0.184-0.052l0.451,0.234c-0.251,0.554-0.433,1.139-0.539,1.744l0.747,0.132
					c0.23-1.306,0.85-2.507,1.792-3.473L260.104,465.465z"/>
				<path id="XMLID_345_" style="fill:#1D262D;" d="M265.592,463.163c-0.171,0-0.341,0.006-0.51,0.017l-0.074-0.626
					c0.188-0.149,0.296-0.389,0.266-0.645c-0.046-0.393-0.402-0.674-0.795-0.628c-0.393,0.046-0.674,0.402-0.628,0.795
					c0.03,0.254,0.189,0.461,0.404,0.564l0.074,0.624c-0.714,0.116-1.403,0.332-2.06,0.646l0.327,0.684
					c0.934-0.447,1.942-0.673,2.995-0.673c0.496,0,0.993,0.053,1.475,0.158l0.161-0.741
					C266.692,463.222,266.142,463.163,265.592,463.163z"/>
				<path id="XMLID_344_" style="fill:#1D262D;" d="M272.194,465.711c0.331-0.04,0.566-0.341,0.526-0.672
					c-0.04-0.331-0.341-0.566-0.672-0.526c-0.309,0.038-0.535,0.304-0.53,0.609l-0.416,0.363c-0.418-0.43-0.889-0.813-1.408-1.139
					l-0.404,0.641c1.134,0.715,2.021,1.726,2.563,2.925l0.69-0.313c-0.251-0.554-0.567-1.072-0.942-1.545l0.402-0.351
					C272.065,465.716,272.129,465.719,272.194,465.711z"/>
				<path id="XMLID_343_" style="fill:#1D262D;" d="M265.044,473.372c-0.386,0.023-0.775,0.035-1.157,0.035
					c-0.88,0-1.733-0.061-2.478-0.179c-0.39-0.062-0.846-0.155-1.27-0.292c1.046,1.861,3.069,3.125,5.388,3.125
					c2.855,0,5.262-1.916,5.95-4.504c-0.682,0.449-1.505,0.825-2.459,1.123C267.839,473.047,266.463,473.286,265.044,473.372z"/>
				<path id="XMLID_339_" style="fill:#1D262D;" d="M265.592,464.68c-3.352,0-6.08,2.666-6.08,5.943
					c0,0.426,0.046,0.849,0.137,1.261c0.673,0.483,2.706,0.89,5.348,0.731c2.879-0.173,5.297-0.957,6.672-2.159
					c-0.006-0.195-0.021-0.39-0.045-0.582C271.244,466.913,268.65,464.68,265.592,464.68z M263.432,471.194
					c-1.02,0-1.85-0.83-1.85-1.85c0-1.02,0.83-1.85,1.85-1.85c1.02,0,1.85,0.83,1.85,1.85
					C265.282,470.365,264.452,471.194,263.432,471.194z M268.17,470.286c-0.75,0-1.36-0.61-1.36-1.36s0.61-1.361,1.36-1.361
					c0.75,0,1.361,0.61,1.361,1.361S268.92,470.286,268.17,470.286z"/>
			</g>
			<path id="XMLID_336_" style="fill:#1D262D;" d="M281.595,466.547c-0.295-0.116-0.805-0.309-1.382-0.237
				c-0.551,0.069-0.844,0.341-0.844,1.007v0.866h2.228v1.717h-2.228v5.455h-1.932v-5.455h-1.34v-1.717h1.34v-0.888
				c0-1.68,0.896-2.783,2.568-2.783c0.643,0,1.157,0.122,1.59,0.308L281.595,466.547z"/>
			<path id="XMLID_334_" style="fill:#1D262D;" d="M286.298,469.879c-0.177-0.03-0.358-0.046-0.526-0.046
				c-0.896,0-1.51,0.548-1.51,1.614v3.908h-1.932v-7.172h1.873v0.785c0.451-0.673,1.14-0.977,2.021-0.977
				c0.414,0,0.848,0.128,1.094,0.337L286.298,469.879z"/>
			<path id="XMLID_331_" style="fill:#1D262D;" d="M293.965,471.757c0,0.222-0.015,0.489-0.037,0.651h-5.085
				c0.207,1.036,0.933,1.488,1.843,1.488c0.622,0,1.295-0.252,1.813-0.688l1.133,1.243c-0.814,0.748-1.85,1.088-3.057,1.088
				c-2.198,0-3.723-1.495-3.723-3.753c0-2.258,1.48-3.797,3.627-3.797C292.544,467.99,293.958,469.522,293.965,471.757z
				 M288.851,471.091h3.175c-0.177-0.918-0.733-1.436-1.562-1.436C289.554,469.655,289.021,470.203,288.851,471.091z"/>
			<path id="XMLID_328_" style="fill:#1D262D;" d="M301.618,471.757c0,0.222-0.015,0.489-0.037,0.651h-5.085
				c0.207,1.036,0.933,1.488,1.843,1.488c0.622,0,1.295-0.252,1.814-0.688l1.132,1.243c-0.814,0.748-1.85,1.088-3.057,1.088
				c-2.198,0-3.723-1.495-3.723-3.753c0-2.258,1.48-3.797,3.627-3.797C300.197,467.99,301.611,469.522,301.618,471.757z
				 M296.504,471.091h3.175c-0.178-0.918-0.733-1.436-1.562-1.436C297.207,469.655,296.674,470.203,296.504,471.091z"/>
			<path id="XMLID_325_" style="fill:#1D262D;" d="M309.964,471.764c0,2.154-1.495,3.775-3.471,3.775
				c-0.962,0-1.643-0.378-2.109-0.933v3.708h-1.924v-10.133h1.887v0.792c0.466-0.585,1.155-0.984,2.139-0.984
				C308.469,467.99,309.964,469.61,309.964,471.764z M304.287,471.764c0,1.132,0.748,1.976,1.843,1.976
				c1.14,0,1.85-0.881,1.85-1.976c0-1.095-0.71-1.976-1.85-1.976C305.035,469.788,304.287,470.632,304.287,471.764z"/>
			<path id="XMLID_322_" style="fill:#1D262D;" d="M313.068,465.836c0,0.696-0.54,1.229-1.236,1.229
				c-0.696,0-1.229-0.533-1.229-1.229c0-0.696,0.533-1.243,1.229-1.243C312.527,464.592,313.068,465.14,313.068,465.836z
				 M312.809,475.354h-1.932v-7.172h1.932V475.354z"/>
			<path id="XMLID_320_" style="fill:#1D262D;" d="M316.032,470.736l2.701-2.554h2.368l-3.479,3.375l3.501,3.797h-2.376
				l-2.716-2.901v2.901H314.1v-10.658h1.932V470.736z"/>
		</g>
		<g>
			<path style="fill:#1D262D;" d="M184.412,475.289v-1.055c-0.527,0.718-1.391,1.23-2.387,1.23c-1.846,0-3.149-1.406-3.149-3.706
				c0-2.256,1.289-3.721,3.149-3.721c0.952,0,1.816,0.469,2.387,1.245v-3.765h1.099v9.77H184.412z M184.412,473.37v-3.208
				c-0.395-0.615-1.245-1.143-2.124-1.143c-1.421,0-2.27,1.172-2.27,2.739c0,1.567,0.85,2.724,2.27,2.724
				C183.168,474.483,184.017,473.986,184.412,473.37z"/>
			<path style="fill:#1D262D;" d="M186.932,471.744c0-2.051,1.465-3.706,3.486-3.706c2.139,0,3.398,1.67,3.398,3.794v0.279h-5.727
				c0.088,1.333,1.025,2.446,2.549,2.446c0.805,0,1.626-0.322,2.182-0.894l0.527,0.718c-0.703,0.703-1.655,1.084-2.812,1.084
				C188.44,475.465,186.932,473.956,186.932,471.744z M190.403,468.947c-1.509,0-2.256,1.274-2.314,2.358h4.643
				C192.718,470.25,192.015,468.947,190.403,468.947z"/>
			<path style="fill:#1D262D;" d="M194.607,474.351l0.571-0.791c0.469,0.542,1.362,1.011,2.329,1.011c1.084,0,1.67-0.513,1.67-1.216
				c0-1.714-4.38-0.659-4.38-3.281c0-1.098,0.952-2.036,2.636-2.036c1.201,0,2.051,0.454,2.622,1.026l-0.513,0.762
				c-0.424-0.513-1.201-0.894-2.109-0.894c-0.967,0-1.567,0.483-1.567,1.113c0,1.552,4.38,0.527,4.38,3.281
				c0,1.187-0.952,2.138-2.783,2.138C196.306,475.465,195.325,475.113,194.607,474.351z"/>
			<path style="fill:#1D262D;" d="M201.477,466.471c0-0.41,0.337-0.747,0.732-0.747c0.41,0,0.747,0.337,0.747,0.747
				c0,0.41-0.337,0.732-0.747,0.732C201.814,467.203,201.477,466.881,201.477,466.471z M201.667,475.289v-7.075h1.099v7.075H201.667
				z"/>
			<path style="fill:#1D262D;" d="M204.582,477.105l0.556-0.82c0.586,0.703,1.289,0.967,2.3,0.967c1.172,0,2.27-0.571,2.27-2.124
				v-1.011c-0.513,0.718-1.377,1.26-2.373,1.26c-1.845,0-3.149-1.377-3.149-3.662c0-2.27,1.289-3.677,3.149-3.677
				c0.952,0,1.802,0.469,2.373,1.245v-1.069h1.098v6.87c0,2.344-1.641,3.076-3.369,3.076
				C206.237,478.16,205.417,477.926,204.582,477.105z M209.709,473.253v-3.091c-0.381-0.615-1.23-1.143-2.109-1.143
				c-1.421,0-2.27,1.128-2.27,2.695c0,1.553,0.849,2.695,2.27,2.695C208.478,474.41,209.328,473.868,209.709,473.253z"/>
			<path style="fill:#1D262D;" d="M217.413,475.289v-4.629c0-1.245-0.63-1.641-1.582-1.641c-0.865,0-1.685,0.527-2.095,1.099v5.17
				h-1.099v-7.075h1.099v1.025c0.498-0.586,1.464-1.201,2.519-1.201c1.48,0,2.256,0.747,2.256,2.285v4.966H217.413z"/>
			<path style="fill:#1D262D;" d="M219.932,471.744c0-2.051,1.465-3.706,3.486-3.706c2.139,0,3.398,1.67,3.398,3.794v0.279h-5.727
				c0.088,1.333,1.025,2.446,2.549,2.446c0.806,0,1.626-0.322,2.183-0.894l0.527,0.718c-0.703,0.703-1.655,1.084-2.812,1.084
				C221.441,475.465,219.932,473.956,219.932,471.744z M223.404,468.947c-1.509,0-2.256,1.274-2.314,2.358h4.643
				C225.718,470.25,225.015,468.947,223.404,468.947z"/>
			<path style="fill:#1D262D;" d="M233.35,475.289v-1.055c-0.527,0.718-1.392,1.23-2.388,1.23c-1.846,0-3.149-1.406-3.149-3.706
				c0-2.256,1.289-3.721,3.149-3.721c0.952,0,1.817,0.469,2.388,1.245v-3.765h1.098v9.77H233.35z M233.35,473.37v-3.208
				c-0.396-0.615-1.245-1.143-2.124-1.143c-1.421,0-2.27,1.172-2.27,2.739c0,1.567,0.849,2.724,2.27,2.724
				C232.105,474.483,232.954,473.986,233.35,473.37z"/>
			<path style="fill:#1D262D;" d="M239.692,475.289v-9.77h1.098v3.765c0.572-0.776,1.421-1.245,2.388-1.245
				c1.845,0,3.149,1.465,3.149,3.721c0,2.299-1.304,3.706-3.149,3.706c-0.996,0-1.86-0.513-2.388-1.23v1.055H239.692z
				 M242.9,474.483c1.436,0,2.285-1.157,2.285-2.724c0-1.568-0.85-2.739-2.285-2.739c-0.864,0-1.728,0.527-2.109,1.143v3.208
				C241.171,473.986,242.036,474.483,242.9,474.483z"/>
			<path style="fill:#1D262D;" d="M247.528,477.061c0.161,0.073,0.425,0.117,0.601,0.117c0.483,0,0.805-0.161,1.055-0.747
				l0.469-1.069l-2.959-7.148h1.187l2.358,5.8l2.344-5.8h1.201l-3.545,8.51c-0.425,1.025-1.143,1.421-2.08,1.435
				c-0.234,0-0.601-0.044-0.805-0.103L247.528,477.061z"/>
		</g>
	</g>
</g>
</svg>
