<?xml version="1.0" encoding="utf-8"?>
<!-- Generator: Adobe Illustrator 27.5.0, SVG Export Plug-In . SVG Version: 6.00 Build 0)  -->
<svg version="1.1" xmlns="http://www.w3.org/2000/svg" xmlns:xlink="http://www.w3.org/1999/xlink" x="0px" y="0px"
	 viewBox="0 0 3710 3710" style="enable-background:new 0 0 3710 3710;" xml:space="preserve">
<g id="Background">
	<g>
		<g>
			<rect style="fill:#FFFFFF;" width="3710" height="3710"/>
		</g>
	</g>
</g>
<g id="Illustration">
	<g>
		<linearGradient id="SVGID_1_" gradientUnits="userSpaceOnUse" x1="3487.8284" y1="3647.9336" x2="1543.2271" y2="1577.8746">
			<stop  offset="0" style="stop-color:#B37CFF"/>
			<stop  offset="1" style="stop-color:#F895E7"/>
		</linearGradient>
		<path style="opacity:0.3;fill:url(#SVGID_1_);" d="M2903.963,2817.435c-71.786,73.995-136.019,117.492-185.197,150.329
			c-479.628,320.252-1027.895,227.948-1197.405,196.398c-273.484-50.901-504.343-86.81-702.692-266.01
			c-450.708-407.197-428.787-1256.641-84.391-1782.834c40.835-62.391,384.71-572.121,934.164-643.946
			c13.439-1.757,23.466-2.757,32.248-3.687c84.999-9,611.723-56.497,1041.213,303.33c61.48,51.507,160.418,144.414,252.166,286.111
			C3329.541,1575.234,3330.603,2377.671,2903.963,2817.435z"/>
		<g>
			
				<linearGradient id="SVGID_00000002373076405826980430000010502870480604806276_" gradientUnits="userSpaceOnUse" x1="2401.6296" y1="3421.7893" x2="804.9218" y2="192.0902" gradientTransform="matrix(0.9999 -0.015 0.015 0.9999 -44.3337 10.1347)">
				<stop  offset="0" style="stop-color:#2B3582"/>
				<stop  offset="1" style="stop-color:#150E42"/>
			</linearGradient>
			<path style="fill:url(#SVGID_00000002373076405826980430000010502870480604806276_);" d="M784.565,619.822
				c-2.577,417.083-9.647,1855.727,11.683,2365.182c2.259,53.973,39.908,96.756,86.087,97.829
				c228.402,5.313,1065.556,14.903,1438.655-9.025c77.712-4.986,138.447-79.607,138.695-170.667
				c1.192-437.76-0.166-1668.937-49.315-2232.211c-5.891-67.49-52.027-120.612-109.797-126.495
				c-249.033-25.363-1090.523-83.865-1412.728-54.535C829.737,495.19,784.988,551.62,784.565,619.822z"/>
			
				<linearGradient id="SVGID_00000180327034348752980730000007351598855688803519_" gradientUnits="userSpaceOnUse" x1="2064.6223" y1="1130.0422" x2="-1392.1671" y2="5552.1284" gradientTransform="matrix(0.9999 -0.015 0.015 0.9999 -44.3337 10.1347)">
				<stop  offset="0" style="stop-color:#53D8FF"/>
				<stop  offset="1" style="stop-color:#3840F7"/>
			</linearGradient>
			<path style="fill:url(#SVGID_00000180327034348752980730000007351598855688803519_);" d="M888.338,746.218
				c-7.234,336.723-29.186,1456.894-10.674,1870.712c2.706,60.484,44.208,108.802,95.932,111.562
				c212.954,11.373,939.24,32.591,1250.833-1.323c56.107-6.106,99.398-59.924,101.443-125.816
				c10.66-343.577,40.416-1386.753,22.479-1795.939c-2.86-65.277-46.902-117.96-102.619-122.968
				c-230.512-20.72-1002.623-66.662-1267.524-45.757C928.481,640.61,889.593,687.922,888.338,746.218z"/>
			<path style="opacity:0.5;fill:#FFFFFF;" d="M1347.878,555.867L1347.878,555.867c0.192,12.796,8.873,23.219,19.805,23.724
				c53.966,2.496,205.987,9.56,273.936,13.15c13.396,0.706,23.691-13.526,20.919-28.886l-0.474-2.621
				c-1.887-10.484-9.456-18.279-18.582-19.118c-45.955-4.231-184.606-15.791-276.277-10.584
				C1356.19,532.159,1347.684,542.97,1347.878,555.867z"/>
		</g>
		<g>
			
				<linearGradient id="SVGID_00000079470923793420466610000002511159127116076971_" gradientUnits="userSpaceOnUse" x1="910.8195" y1="2512.2905" x2="1329.8202" y2="1950.2173">
				<stop  offset="0" style="stop-color:#2B3582"/>
				<stop  offset="1" style="stop-color:#150E42"/>
			</linearGradient>
			<path style="fill:url(#SVGID_00000079470923793420466610000002511159127116076971_);" d="M950.409,1818.215
				c0,0,191.752,505.713,252.334,610.915c70.323,122.119,275.703,44.302,265.483-57.899s-250.175-524.63-250.175-524.63
				L950.409,1818.215z"/>
			
				<linearGradient id="SVGID_00000093888831477341502840000006336307662197523844_" gradientUnits="userSpaceOnUse" x1="1616.4624" y1="1153.0192" x2="2379.1372" y2="2511.3616">
				<stop  offset="0" style="stop-color:#CB236D"/>
				<stop  offset="1" style="stop-color:#4C246D"/>
			</linearGradient>
			<polygon style="fill:url(#SVGID_00000093888831477341502840000006336307662197523844_);" points="1209.502,1449.829 
				2401.312,1036.609 2388.795,2154.846 1176.932,1884.45 			"/>
			
				<linearGradient id="SVGID_00000145058996270489249750000017437182412978911137_" gradientUnits="userSpaceOnUse" x1="3055.6077" y1="1326.8171" x2="2278.8835" y2="1650.4528">
				<stop  offset="0" style="stop-color:#A737D5"/>
				<stop  offset="1" style="stop-color:#EF497A"/>
			</linearGradient>
			
				<ellipse style="fill:url(#SVGID_00000145058996270489249750000017437182412978911137_);" cx="2402.435" cy="1598.973" rx="117.091" ry="574.67"/>
			
				<linearGradient id="SVGID_00000030465739997835587430000000456777255383173538_" gradientUnits="userSpaceOnUse" x1="2272.9939" y1="1608.3031" x2="2581.2019" y2="1580.2841">
				<stop  offset="0" style="stop-color:#A737D5"/>
				<stop  offset="1" style="stop-color:#EF497A"/>
			</linearGradient>
			<path style="fill:url(#SVGID_00000030465739997835587430000000456777255383173538_);" d="M2411.322,2134.343
				c-10.583-10.763-33.638-52.284-53.402-159.653c-19.103-103.761-29.622-238.346-29.622-378.961
				c0-140.616,10.519-275.2,29.622-378.961c19.764-107.37,42.82-148.891,53.402-159.655c10.583,10.764,33.638,52.285,53.403,159.655
				c19.103,103.761,29.622,238.345,29.622,378.961c0,140.615-10.519,275.2-29.622,378.961
				C2444.96,2082.059,2421.905,2123.58,2411.322,2134.343z"/>
			<g>
				<defs>
					<path id="SVGID_00000029046151390064332070000006745169581388368783_" d="M2411.322,2134.343
						c-10.583-10.763-33.638-52.284-53.402-159.653c-19.103-103.761-29.622-238.346-29.622-378.961
						c0-140.616,10.519-275.2,29.622-378.961c19.764-107.37,42.82-148.891,53.402-159.655
						c10.583,10.764,33.638,52.285,53.403,159.655c19.103,103.761,169.84,238.345,169.84,378.961
						c0,140.615-150.737,275.2-169.84,378.961C2444.96,2082.059,2421.905,2123.58,2411.322,2134.343z"/>
				</defs>
				<clipPath id="SVGID_00000035519475007343572760000010613350243873687477_">
					<use xlink:href="#SVGID_00000029046151390064332070000006745169581388368783_"  style="overflow:visible;"/>
				</clipPath>
				
					<linearGradient id="SVGID_00000080175806619867843450000002297519374267683487_" gradientUnits="userSpaceOnUse" x1="2661.8481" y1="1576.6902" x2="1830.6161" y2="1624.3844">
					<stop  offset="0" style="stop-color:#2B3582"/>
					<stop  offset="1" style="stop-color:#150E42"/>
				</linearGradient>
				
					<path style="clip-path:url(#SVGID_00000035519475007343572760000010613350243873687477_);fill:url(#SVGID_00000080175806619867843450000002297519374267683487_);" d="
					M2561.401,1591.449c0,97.643-52.6,176.798-156.708,176.798c-104.107,0-188.503-79.155-188.503-176.798
					c0-97.643,84.396-176.798,188.503-176.798C2508.801,1414.651,2561.401,1493.806,2561.401,1591.449z"/>
			</g>
			
				<linearGradient id="SVGID_00000112602014099480660850000013273340336839394483_" gradientUnits="userSpaceOnUse" x1="1087.2679" y1="1872.0186" x2="1056.6088" y2="1100.4429">
				<stop  offset="0" style="stop-color:#2B3582"/>
				<stop  offset="1" style="stop-color:#150E42"/>
			</linearGradient>
			<path style="fill:url(#SVGID_00000112602014099480660850000013273340336839394483_);" d="M1017.281,1425.791
				c56.065-6.511,136.46-8.854,223.386,11.053c-28.639,149.601-24.317,305.53,8.805,466.989l-245.175,0
				c-39.089,0-72.421-28.393-78.517-67.004c-12.219-77.394-27.157-207.474-11.229-311.949
				C922.545,1472.45,964.598,1431.909,1017.281,1425.791z"/>
			<path style="fill:#FFFFFF;" d="M1164.423,1540.367H973.402c-6.484,0-12.205-3.399-15.304-9.095
				c-3.097-5.695-2.844-12.347,0.678-17.79c1.474-2.277,4.515-2.916,6.792-1.455c2.277,1.474,2.929,4.515,1.455,6.795
				c-1.535,2.373-1.645,5.27-0.296,7.755c1.351,2.482,3.847,3.966,6.674,3.966h191.021c4.189,0,7.596-3.406,7.596-7.595v-13.594
				c0-4.189-3.407-7.595-7.596-7.595H971.985c-2.714,0-4.912-2.2-4.912-4.912c0-2.712,2.198-4.912,4.912-4.912h192.437
				c9.606,0,17.42,7.816,17.42,17.419v13.594C1181.843,1532.552,1174.029,1540.367,1164.423,1540.367z"/>
			<path style="fill:#FFFFFF;" d="M1147.389,1624.966H956.369c-6.484,0-12.204-3.399-15.303-9.094
				c-3.097-5.696-2.845-12.347,0.678-17.79c1.474-2.274,4.517-2.917,6.792-1.455c2.277,1.474,2.929,4.515,1.455,6.795
				c-1.535,2.373-1.646,5.27-0.296,7.755c1.351,2.481,3.847,3.965,6.674,3.965h191.021c4.189,0,7.597-3.406,7.597-7.595v-13.591
				c0-4.189-3.407-7.598-7.597-7.598H954.952c-2.713,0-4.912-2.2-4.912-4.912c0-2.712,2.198-4.912,4.912-4.912h192.437
				c9.606,0,17.42,7.816,17.42,17.422v13.591C1164.809,1617.151,1156.996,1624.966,1147.389,1624.966z"/>
			<path style="fill:#FFFFFF;" d="M1382.679,1419.562c-2.082,0-4.013-1.334-4.678-3.422c-0.823-2.587,0.606-5.347,3.19-6.172
				l902.663-287.244c2.584-0.822,5.347,0.608,6.17,3.191c0.823,2.587-0.606,5.347-3.19,6.172l-902.663,287.244
				C1383.675,1419.488,1383.173,1419.562,1382.679,1419.562z"/>
			<path style="fill:#FFFFFF;" d="M1260.614,1469.461c-1.936,0-3.771-1.151-4.549-3.054c-1.027-2.51,0.177-5.379,2.689-6.405
				l46.457-18.989c2.509-1.033,5.379,0.179,6.406,2.689c1.026,2.51-0.177,5.379-2.69,6.406l-46.457,18.989
				C1261.863,1469.346,1261.233,1469.461,1260.614,1469.461z"/>
			<path style="fill:#FFFFFF;" d="M1164.423,1724.046H973.402c-6.484,0-12.203-3.399-15.302-9.095
				c-3.099-5.695-2.846-12.347,0.676-17.79c1.474-2.28,4.515-2.923,6.792-1.458c2.277,1.474,2.929,4.515,1.455,6.792
				c-1.536,2.376-1.647,5.276-0.294,7.761c1.351,2.481,3.845,3.965,6.672,3.965h191.021c4.189,0,7.596-3.409,7.596-7.598v-13.591
				c0-4.189-3.407-7.595-7.596-7.595H971.985c-2.714,0-4.912-2.2-4.912-4.912c0-2.712,2.198-4.912,4.912-4.912h192.437
				c9.606,0,17.42,7.816,17.42,17.419v13.591C1181.843,1716.23,1174.029,1724.046,1164.423,1724.046z"/>
			<path style="fill:#FFFFFF;" d="M1182.308,1834.02H991.288c-6.484,0-12.203-3.399-15.302-9.095
				c-3.098-5.695-2.846-12.347,0.677-17.79c1.476-2.28,4.517-2.923,6.792-1.458c2.277,1.474,2.929,4.515,1.455,6.792
				c-1.536,2.376-1.647,5.276-0.294,7.761c1.351,2.482,3.845,3.966,6.672,3.966h191.021c4.189,0,7.596-3.406,7.596-7.595v-13.594
				c0-4.189-3.407-7.595-7.596-7.595H989.871c-2.713,0-4.912-2.2-4.912-4.912s2.199-4.912,4.912-4.912h192.437
				c9.606,0,17.42,7.815,17.42,17.419v13.594C1199.729,1826.204,1191.915,1834.02,1182.308,1834.02z"/>
			<path style="fill:#FFFFFF;" d="M1352.914,2431.948c-8.802,0-17.699-0.95-26.574-2.885c-38.836-8.462-70.454-34.07-86.744-70.26
				l-152.615-339.049c-1.114-2.472-0.011-5.379,2.463-6.495c2.474-1.116,5.382-0.006,6.495,2.465l152.615,339.05
				c14.999,33.318,44.114,56.899,79.877,64.689c35.149,7.665,70.716-1.433,97.587-24.95c1.44-1.26,2.888-2.555,4.341-3.882
				c2.002-1.829,5.108-1.692,6.939,0.313c1.829,2.002,1.69,5.11-0.313,6.939c-1.508,1.378-3.006,2.718-4.499,4.023
				C1410.039,2421.549,1382.014,2431.948,1352.914,2431.948z"/>
			<path style="fill:#FFFFFF;" d="M1068.898,1972.519c-1.874,0-3.663-1.078-4.482-2.894l-17.025-37.824
				c-1.114-2.472-0.011-5.379,2.462-6.495c2.472-1.113,5.382-0.006,6.495,2.463l17.025,37.821c1.114,2.475,0.011,5.382-2.463,6.498
				C1070.257,1972.381,1069.571,1972.519,1068.898,1972.519z"/>
			<path style="fill:#FFFFFF;" d="M2533.494,1586.359c-2.555,0-4.71-1.976-4.894-4.563c-3.395-47.843-19.977-83.512-49.287-106.015
				c-50.686-38.915-123.01-25.541-123.736-25.397c-2.678,0.509-5.238-1.228-5.751-3.892c-0.515-2.664,1.23-5.241,3.894-5.753
				c3.134-0.604,77.423-14.323,131.577,27.249c31.635,24.287,49.501,62.345,53.102,113.111c0.192,2.705-1.845,5.056-4.552,5.248
				C2533.728,1586.355,2533.611,1586.359,2533.494,1586.359z"/>
		</g>
		<g>
			<g>
				
					<linearGradient id="SVGID_00000152246369780380804360000004434317990910605711_" gradientUnits="userSpaceOnUse" x1="2797.0342" y1="1947.8363" x2="3449.866" y2="1040.5118">
					<stop  offset="0" style="stop-color:#FDF53F"/>
					<stop  offset="1" style="stop-color:#D93C65"/>
				</linearGradient>
				<path style="fill:url(#SVGID_00000152246369780380804360000004434317990910605711_);" d="M2791.236,1529.947l-8.675,275.534
					c-0.943,29.954,23.083,54.748,53.052,54.748h314.874c28.579,0,52.027-22.628,53.044-51.189l8.616-241.952
					c0.991-27.842-19.712-51.712-47.414-54.667l-314.815-33.582C2819.215,1475.563,2792.208,1499.085,2791.236,1529.947z"/>
				<g>
					<path style="fill:#FFFFFF;" d="M3118.431,1806.46h-281.474c-8.241,0-15.733-4.539-19.551-11.844
						c-3.818-7.3-3.268-16.047,1.439-22.813l58.544-84.192c3.635-5.23,9.349-8.631,15.68-9.334
						c6.302-0.702,12.649,1.357,17.342,5.66l22.286,20.098c0.296-0.058,0.38-0.241,0.422-0.335l53.809-117.895
						c3.427-7.515,10.68-12.447,18.927-12.876c8.283-0.356,15.971,3.731,20.156,10.848l111.433,189.436
						c4.064,6.902,4.117,15.182,0.139,22.137C3133.606,1802.304,3126.444,1806.46,3118.431,1806.46z M2895.905,1699.765l-0.891,0.1
						l-58.544,84.192c-0.102,0.147-0.207,0.299-0.039,0.618c0.165,0.32,0.348,0.32,0.527,0.32h281.474c0.155,0,0.346,0,0.516-0.299
						c0.173-0.299,0.076-0.466-0.003-0.597l-111.433-189.441c-0.089-0.147-0.202-0.236-0.542-0.288
						c-0.362,0.021-0.44,0.183-0.514,0.346l-53.806,117.895c-2.922,6.404-8.786,11.068-15.686,12.468
						c-6.905,1.399-14.113-0.608-19.296-5.366L2895.905,1699.765z"/>
					<path style="fill:#FFFFFF;" d="M3114.605,1634.696c-28.229,0-51.194-22.965-51.194-51.197
						c0-28.232,22.965-51.197,51.194-51.197c28.229,0,51.197,22.965,51.197,51.197
						C3165.802,1611.731,3142.834,1634.696,3114.605,1634.696z M3114.605,1553.769c-16.393,0-29.728,13.338-29.728,29.73
						c0,16.393,13.335,29.731,29.728,29.731c16.393,0,29.73-13.338,29.73-29.731
						C3144.336,1567.106,3130.998,1553.769,3114.605,1553.769z"/>
				</g>
			</g>
			<g>
				
					<linearGradient id="SVGID_00000013167857036168949760000016330644905712913587_" gradientUnits="userSpaceOnUse" x1="2527.6694" y1="1357.0641" x2="3272.7463" y2="583.1091">
					<stop  offset="0" style="stop-color:#FDF53F"/>
					<stop  offset="1" style="stop-color:#D93C65"/>
				</linearGradient>
				<path style="fill:url(#SVGID_00000013167857036168949760000016330644905712913587_);" d="M2548.956,979.831v251.863
					c0,29.925,23.513,54.569,53.405,55.973l314.961,14.798c31.945,1.501,58.665-23.994,58.665-55.973V979.831
					c0-30.947-25.088-56.035-56.035-56.035h-314.961C2574.044,923.796,2548.956,948.883,2548.956,979.831z"/>
				<path style="fill:#FFFFFF;" d="M2663.055,1240.686c-4.071,0-7.509-0.049-10.234-0.104c-4.651-0.093-8.467-3.518-9.06-8.141
					c-0.596-4.656,2.251-8.956,6.771-10.231c24.188-6.779,50.562-18.301,69.982-27.63c-92.617-7.55-111.107-55.117-114.679-76.876
					c-9.017-54.871,38.607-116.958,106.158-138.405c68.935-21.868,138.761-13.99,177.918,20.085
					c20.807,18.11,43.376,52.786,32.734,115.191C2902.74,1231.33,2720.662,1240.686,2663.055,1240.686z M2655.094,1238.382h0.006
					H2655.094z M2653.169,1223.774c0,0,0.016,0,0.022,0C2653.185,1223.774,2653.177,1223.774,2653.169,1223.774z M2786.981,1178.117
					l-29.342,16.359c-1.546,0.859-27.373,15.183-58.783,28.319c71.503-4.311,192.472-24.511,207.222-111.044
					c7.485-43.923-1.663-77.467-27.197-99.685c-39.612-34.48-109.799-33.243-161.803-16.747
					c-58.895,18.701-102.243,73.495-94.66,119.661c6.885,41.91,54.611,65.354,130.975,63.751L2786.981,1178.117z"/>
			</g>
			<g>
				
					<linearGradient id="SVGID_00000103226807478717288030000009237888324535022744_" gradientUnits="userSpaceOnUse" x1="3082.3567" y1="1324.6256" x2="3331.4165" y2="815.7705">
					<stop  offset="0" style="stop-color:#53D8FF"/>
					<stop  offset="1" style="stop-color:#3840F7"/>
				</linearGradient>
				<path style="fill:url(#SVGID_00000103226807478717288030000009237888324535022744_);" d="M3165.813,1366.998l-101.68,8.923
					c-29.604,2.598-54.593-21.733-52.785-51.396l7.847-128.731c1.479-24.263,20.648-43.706,44.888-45.529l101.602-7.64
					c29.39-2.21,53.973,22.027,52.18,51.446l-7.769,127.448C3208.632,1345.551,3189.799,1364.892,3165.813,1366.998z"/>
				<path style="fill:#FFFFFF;" d="M3106.369,1336.668c-19.425,0.001-39.774-8.089-45.484-20.035
					c-2.265-4.738-3.935-14.053,10.331-23.2c13.225-8.479,24.709-11.463,34.137-8.876c9.294,2.554,12.95,9.667,13.102,9.968
					c0.686,1.37,0.132,3.036-1.237,3.722c-1.365,0.681-3.024,0.135-3.714-1.222c-0.131-0.251-2.849-5.312-9.745-7.153
					c-7.715-2.059-17.935,0.785-29.549,8.231c-8.145,5.223-10.944,10.653-8.322,16.14c5.76,12.048,35.496,21.568,56.883,14.442
					c11.815-3.938,15.509-29.877,10.402-73.036c-4.026-34.021-12.136-67.139-12.217-67.469c-0.25-1.012,0.09-2.079,0.878-2.76
					c0.787-0.682,1.891-0.865,2.858-0.472c1.879,0.764,46.166,19.088,57.998,53.106c5.194,14.934,3.265,30.56-5.736,46.442
					c-0.754,1.332-2.448,1.801-3.779,1.045c-1.333-0.755-1.801-2.447-1.046-3.779c8.179-14.433,9.969-28.526,5.323-41.887
					c-8.758-25.181-37.982-41.682-49.814-47.477c2.489,10.941,7.955,36.509,11.042,62.599c5.608,47.387,0.845,73.95-14.155,78.95
					C3118.931,1335.809,3112.697,1336.668,3106.369,1336.668z"/>
			</g>
			<g>
				
					<linearGradient id="SVGID_00000085223155701922408870000002903085718713675431_" gradientUnits="userSpaceOnUse" x1="2840.7786" y1="1267.9637" x2="2556.4561" y2="2074.321">
					<stop  offset="0" style="stop-color:#53D8FF"/>
					<stop  offset="1" style="stop-color:#3840F7"/>
				</linearGradient>
				
					<circle style="fill:url(#SVGID_00000085223155701922408870000002903085718713675431_);" cx="2773.65" cy="1458.346" r="123.92"/>
				<path style="fill:#FFFFFF;" d="M2854.775,1449.803c-1.311-24.599-18.028-45.266-38.846-47.883
					c-16.558-2.081-31.291,7.279-39.134,22.422c-7.861-15.888-22.731-26.721-39.602-26.261
					c-21.456,0.585-38.885,20.066-40.259,45.136c-0.908,16.565,5.104,31.79,14.972,42.054l60.566,49.332
					c2.616,2.131,6.028,2.227,8.639,0.245l59.325-45.01C2849.902,1480.48,2855.641,1466.047,2854.775,1449.803z"/>
			</g>
			<g>
				
					<linearGradient id="SVGID_00000154401293575225999290000005596265729805034140_" gradientUnits="userSpaceOnUse" x1="2706.042" y1="1650.1147" x2="2276.9749" y2="2866.9775">
					<stop  offset="0" style="stop-color:#53D8FF"/>
					<stop  offset="1" style="stop-color:#3840F7"/>
				</linearGradient>
				
					<circle style="fill:url(#SVGID_00000154401293575225999290000005596265729805034140_);" cx="2604.739" cy="1937.417" r="187.005"/>
				<g>
					<path style="fill:#FFFFFF;" d="M2604.739,2054.691c-64.665,0-117.274-52.609-117.274-117.273
						c0-64.664,52.609-117.273,117.274-117.273c64.665,0,117.273,52.609,117.273,117.273
						C2722.012,2002.082,2669.404,2054.691,2604.739,2054.691z M2604.739,1839.796c-53.829,0-97.622,43.793-97.622,97.621
						c0,53.828,43.793,97.621,97.622,97.621c53.828,0,97.621-43.793,97.621-97.621
						C2702.36,1883.589,2658.567,1839.796,2604.739,1839.796z"/>
					<path style="fill-rule:evenodd;clip-rule:evenodd;fill:#FFFFFF;" d="M2568.001,1982.58v-84.311
						c0-9.009,9.806-14.592,17.554-9.995l71.043,42.156c7.589,4.503,7.589,15.488,0,19.99l-71.043,42.156
						C2577.807,1997.173,2568.001,1991.589,2568.001,1982.58z"/>
				</g>
			</g>
		</g>
		<g>
			
				<linearGradient id="SVGID_00000034782091941176145600000015229341968406561969_" gradientUnits="userSpaceOnUse" x1="1083.6228" y1="1251.7112" x2="1181.764" y2="1354.2142" gradientTransform="matrix(0.9932 0.1165 -0.1165 0.9932 577.7628 87.9432)">
				<stop  offset="0" style="stop-color:#2B3582"/>
				<stop  offset="1" style="stop-color:#150E42"/>
			</linearGradient>
			<path style="fill:url(#SVGID_00000034782091941176145600000015229341968406561969_);" d="M1487.19,1401.62
				c0,0-27.055-1.731-36.839,53.199c0,0,55.792,63.204,138.452,86.385c6.206,1.74-3.777-44.197-5.354-50.447
				C1575.941,1461.024,1543.936,1438.688,1487.19,1401.62z"/>
			
				<linearGradient id="SVGID_00000070826422782049784680000017016342443585463218_" gradientUnits="userSpaceOnUse" x1="1281.6169" y1="274.5717" x2="899.8434" y2="1231.7712" gradientTransform="matrix(0.9932 0.1165 -0.1165 0.9932 577.7628 87.9432)">
				<stop  offset="0" style="stop-color:#53D8FF"/>
				<stop  offset="1" style="stop-color:#3840F7"/>
			</linearGradient>
			<path style="fill:url(#SVGID_00000070826422782049784680000017016342443585463218_);" d="M1192.007,1301.06l56.74,6.655
				c0,0,196.708-171.906,313.203-177.913c0,0,67.604,110.817-38.38,290.628c-8.526,14.465-28.162,19.032-41.163,8.408
				c-3.889-3.178-6.485-7.13-7.789-11.856l25.725-161.126c0,0-163.789,112.5-192.55,134.545
				C1279.031,1412.443,1149.576,1381.767,1192.007,1301.06z"/>
			
				<linearGradient id="SVGID_00000127042027034732354710000014923605038748644283_" gradientUnits="userSpaceOnUse" x1="1213.8154" y1="1508.9934" x2="1399.4532" y2="1645.2412" gradientTransform="matrix(0.9932 0.1165 -0.1165 0.9932 577.7628 87.9432)">
				<stop  offset="0" style="stop-color:#2B3582"/>
				<stop  offset="1" style="stop-color:#150E42"/>
			</linearGradient>
			<path style="fill:url(#SVGID_00000127042027034732354710000014923605038748644283_);" d="M1693.198,1769.21
				c-21.333-23.623-56.476-51.447-110.381-64.564l-19.823,9.144c0,0,9.754,18.781,29.145,39.684
				c18.454,13.825,47.204,32.989,72.159,39.339C1688.56,1798.985,1693.941,1784.519,1693.198,1769.21z"/>
			
				<linearGradient id="SVGID_00000036223162219129216280000008904640820441780619_" gradientUnits="userSpaceOnUse" x1="1111.8438" y1="1270.6924" x2="1237.8738" y2="896.009" gradientTransform="matrix(0.9932 0.1165 -0.1165 0.9932 577.7628 87.9432)">
				<stop  offset="0" style="stop-color:#2B3582"/>
				<stop  offset="1" style="stop-color:#150E42"/>
			</linearGradient>
			<path style="fill:url(#SVGID_00000036223162219129216280000008904640820441780619_);" d="M1583.448,1490.758
				c-15.204,3.023-24.08,23.021-59.64,4.938c-34.403-17.495-59.127-37.753-71.723-49.241c-0.621,2.64-1.207,5.404-1.734,8.364
				c0,0,58.406,70.24,141.066,93.421c6.205,1.741,11.957-3.983,10.379-10.232C1598.964,1526.795,1593.5,1509.651,1583.448,1490.758z
				"/>
			
				<linearGradient id="SVGID_00000176008878989127495960000001200013522706023304_" gradientUnits="userSpaceOnUse" x1="1332.7931" y1="1345.0082" x2="1458.8236" y2="970.3235" gradientTransform="matrix(0.9932 0.1165 -0.1165 0.9932 577.7628 87.9432)">
				<stop  offset="0" style="stop-color:#2B3582"/>
				<stop  offset="1" style="stop-color:#150E42"/>
			</linearGradient>
			<path style="fill:url(#SVGID_00000176008878989127495960000001200013522706023304_);" d="M1709.024,1789.102
				c-4.062-5.877-9.328-12.698-15.826-19.892c0.743,15.309-4.638,29.776-28.9,23.602c-24.954-6.35-53.705-25.514-72.159-39.339
				c22.336,24.079,57.465,50.975,105.283,55.246C1708.043,1809.668,1715.087,1797.874,1709.024,1789.102z"/>
			
				<linearGradient id="SVGID_00000161633874397882381040000007240538417806030745_" gradientUnits="userSpaceOnUse" x1="1216.6072" y1="1250.5259" x2="827.7236" y2="1397.2098" gradientTransform="matrix(0.9932 0.1165 -0.1165 0.9932 577.7628 87.9432)">
				<stop  offset="0" style="stop-color:#53D8FF"/>
				<stop  offset="1" style="stop-color:#3840F7"/>
			</linearGradient>
			<path style="fill:url(#SVGID_00000161633874397882381040000007240538417806030745_);" d="M1189.268,1342.358l265.37,34.042
				c0,0,137.015,143.339,142.084,337.999c0,0,2.917,14.615-24.793,13.807c0,0-84.712-70.677-132.106-183.628
				c-58.112-138.493-181.548-105.964-181.548-105.964c-148.866,32.005-189.377-46.195-188.561-63.476L1189.268,1342.358z"/>
			
				<linearGradient id="SVGID_00000096045817188788376090000005816063380966022535_" gradientUnits="userSpaceOnUse" x1="913.8915" y1="1005.4538" x2="787.8634" y2="1155.325" gradientTransform="matrix(0.9932 0.1165 -0.1165 0.9932 577.7628 87.9432)">
				<stop  offset="0" style="stop-color:#F9B776"/>
				<stop  offset="1" style="stop-color:#F47960"/>
			</linearGradient>
			<path style="fill:url(#SVGID_00000096045817188788376090000005816063380966022535_);" d="M1220.647,1129.052
				c0,0,11.791,146.706,145.29,219.855l50.542-0.028l9.564,20.136l-117.377-9.99c0,0-95.316-51.316-135.623-165.409
				C1171.712,1189.846,1149.611,1126.209,1220.647,1129.052z"/>
			
				<linearGradient id="SVGID_00000044180122642258472680000006043485859236543650_" gradientUnits="userSpaceOnUse" x1="769.466" y1="843.7535" x2="130.269" y2="1679.6252" gradientTransform="matrix(0.9932 0.1165 -0.1165 0.9932 577.7628 87.9432)">
				<stop  offset="0" style="stop-color:#FDF53F"/>
				<stop  offset="1" style="stop-color:#D93C65"/>
			</linearGradient>
			<path style="fill:url(#SVGID_00000044180122642258472680000006043485859236543650_);" d="M1211.146,1342.549
				c0,0-22.156-92.234-19.071-178.969c0,0,26.195-17.66,42.104-24.738c5.152-2.293,7.679-8.123,5.836-13.452
				c-8.278-23.936-63.976-120.643-68.785-122.46c-26.138-9.878-130.405-75.334-220.656,21.925
				c-38.732,41.741-15.215,186.974,119.14,350.281l4.914,1.551c16.596,5.238,34.473,4.719,50.737-1.474L1211.146,1342.549z"/>
			
				<linearGradient id="SVGID_00000106862400003120937040000001678002085869260161_" gradientUnits="userSpaceOnUse" x1="766.9371" y1="1141.8197" x2="1018.8531" y2="797.1849" gradientTransform="matrix(0.9932 0.1165 -0.1165 0.9932 577.7628 87.9432)">
				<stop  offset="0" style="stop-color:#F9B776"/>
				<stop  offset="1" style="stop-color:#F47960"/>
			</linearGradient>
			<path style="fill:url(#SVGID_00000106862400003120937040000001678002085869260161_);" d="M1103.983,1172.889
				c0,0,77.821,117.605,191.527,146.799c0,0,33.053-23.721,54.118-11.397c21.064,12.324,46.478,58.795,46.478,58.795l-148.355-17.4
				c0,0-139.695-21.395-199.813-114.679C1057.07,1205.904,1076.046,1190.105,1103.983,1172.889z"/>
			
				<linearGradient id="SVGID_00000022523808711264574790000002405512044396325541_" gradientUnits="userSpaceOnUse" x1="612.8329" y1="856.2263" x2="622.112" y2="772.7151" gradientTransform="matrix(0.9932 0.1165 -0.1165 0.9932 577.7628 87.9432)">
				<stop  offset="0" style="stop-color:#F9B776"/>
				<stop  offset="1" style="stop-color:#F47960"/>
			</linearGradient>
			<path style="fill:url(#SVGID_00000022523808711264574790000002405512044396325541_);" d="M1080.642,916.22l-27.509,63.63
				c-1.26,2.915-0.525,6.319,1.869,8.407c8.755,7.637,32.116,23.522,67.727,14.924c4.073-0.983,7.176-4.316,8-8.423l11.426-56.903
				L1080.642,916.22z"/>
			<g>
				
					<linearGradient id="SVGID_00000052789699048619899870000013439031720073781634_" gradientUnits="userSpaceOnUse" x1="662.3236" y1="783.3793" x2="621.4246" y2="648.4846" gradientTransform="matrix(0.9932 0.1165 -0.1165 0.9932 577.7628 87.9432)">
					<stop  offset="0" style="stop-color:#F9B776"/>
					<stop  offset="1" style="stop-color:#F47960"/>
				</linearGradient>
				<path style="fill:url(#SVGID_00000052789699048619899870000013439031720073781634_);" d="M1202.691,876.391
					c0,0-17.74,67.224-46.467,85.168c-28.727,17.943-78.036-3.888-89.273-57.453l44.769-84.082L1202.691,876.391z"/>
				
					<linearGradient id="SVGID_00000108298164661218512490000015974752319886029224_" gradientUnits="userSpaceOnUse" x1="625.416" y1="535.6899" x2="663.4413" y2="752.5749" gradientTransform="matrix(0.9932 0.1165 -0.1165 0.9932 577.7628 87.9432)">
					<stop  offset="0" style="stop-color:#2B3582"/>
					<stop  offset="1" style="stop-color:#150E42"/>
				</linearGradient>
				<path style="fill:url(#SVGID_00000108298164661218512490000015974752319886029224_);" d="M1101.153,876.592
					c1.922,0.878,4.164-0.157,4.719-2.196c1.688-6.2,5.52-18.411,11.308-26.356c0,0-1.454-9.263,22.13,7.239
					c23.584,16.502,59.06,40.84,82.711,31.599c23.058-9.01,51.864-64.586-6.758-60.539c-2.231,0.154-4.034-1.82-3.61-4.016
					c1.825-9.475,3.456-31.576-17.983-41.245c-20.063-9.049-32.575-0.98-37.941,4.146c-1.579,1.508-4.142,1.174-5.259-0.702
					c-5.286-8.882-20.204-28.215-46.45-20.145c-21.618,6.647-26.3,18.934-26.886,26.864c-0.19,2.569-2.987,3.997-5.186,2.654
					c-5.955-3.638-15.905-6.332-27.03,4.684c-15.38,15.229,2.074,32.047,7.375,36.541c0.868,0.736,1.332,1.842,1.207,2.974
					c-0.971,8.744-4.081,47.019,12.501,70.758c1.436,2.056,4.557,1.868,5.79-0.315l18.819-33.319
					c0.874-1.547,2.786-2.169,4.403-1.43L1101.153,876.592z"/>
				
					<linearGradient id="SVGID_00000140726010094584470890000008149525080227819693_" gradientUnits="userSpaceOnUse" x1="619.9604" y1="796.2227" x2="579.0619" y2="661.3296" gradientTransform="matrix(0.9932 0.1165 -0.1165 0.9932 577.7628 87.9432)">
					<stop  offset="0" style="stop-color:#F9B776"/>
					<stop  offset="1" style="stop-color:#F47960"/>
				</linearGradient>
				<path style="fill:url(#SVGID_00000140726010094584470890000008149525080227819693_);" d="M1100.629,883.744
					c0,0-4.691-37.636-19.728-27.359c-15.037,10.277-0.903,38.436,14.142,45.252L1100.629,883.744z"/>
			</g>
			
				<linearGradient id="SVGID_00000009548889397918358480000015589502077956260487_" gradientUnits="userSpaceOnUse" x1="954.2609" y1="1063.8453" x2="1145.952" y2="1063.8453" gradientTransform="matrix(0.9932 0.1165 -0.1165 0.9932 577.7628 87.9432)">
				<stop  offset="0" style="stop-color:#2B3582"/>
				<stop  offset="1" style="stop-color:#150E42"/>
			</linearGradient>
			<path style="fill:url(#SVGID_00000009548889397918358480000015589502077956260487_);" d="M1387.663,1374.514l92.665-214.327
				c3.781-8.744,12.585-14.229,22.1-13.767l90.655,4.395c9.215,0.446,14.966,10.174,10.918,18.464l-99.347,203.407
				c-3.201,6.553-9.902,10.664-17.194,10.546l-89.714-0.553L1387.663,1374.514z"/>
			
				<linearGradient id="SVGID_00000165223469562769293120000010574218749395905945_" gradientUnits="userSpaceOnUse" x1="977.5276" y1="1147.6407" x2="824.2482" y2="1189.6506" gradientTransform="matrix(0.9932 0.1165 -0.1165 0.9932 577.7628 87.9432)">
				<stop  offset="0" style="stop-color:#2B3582"/>
				<stop  offset="1" style="stop-color:#150E42"/>
			</linearGradient>
			<path style="fill:url(#SVGID_00000165223469562769293120000010574218749395905945_);" d="M1397.746,1382.678
				c-0.145-0.017-0.289-0.037-0.433-0.063l-187.585-31.671c-4.637-0.781-7.761-5.175-6.979-9.813
				c0.783-4.639,5.203-7.838,9.815-6.979l187.585,31.671c4.637,0.782,7.762,5.176,6.979,9.813
				C1406.369,1380.13,1402.22,1383.203,1397.746,1382.678z"/>
			
				<linearGradient id="SVGID_00000116916856118350564010000013044519566871983022_" gradientUnits="userSpaceOnUse" x1="855.1943" y1="733.1879" x2="626.98" y2="1121.4926" gradientTransform="matrix(0.9932 0.1165 -0.1165 0.9932 577.7628 87.9432)">
				<stop  offset="0" style="stop-color:#FDF53F"/>
				<stop  offset="1" style="stop-color:#D93C65"/>
			</linearGradient>
			<path style="fill:url(#SVGID_00000116916856118350564010000013044519566871983022_);" d="M1191.876,1165.274
				c0,0-0.004,0-0.007-0.001c-0.931-0.113-1.599-0.961-1.486-1.896c4.75-39.389-4.323-93.471-4.413-94.014
				c-0.159-0.927,0.467-1.808,1.392-1.963c0.94-0.161,1.808,0.466,1.964,1.392c0.093,0.547,9.249,55.118,4.439,94.995
				C1193.653,1164.718,1192.808,1165.383,1191.876,1165.274z"/>
			
				<linearGradient id="SVGID_00000021103935200088760000000003078126753762518407_" gradientUnits="userSpaceOnUse" x1="785.3002" y1="692.1146" x2="557.088" y2="1080.4155" gradientTransform="matrix(0.9932 0.1165 -0.1165 0.9932 577.7628 87.9432)">
				<stop  offset="0" style="stop-color:#FDF53F"/>
				<stop  offset="1" style="stop-color:#D93C65"/>
			</linearGradient>
			<path style="fill:url(#SVGID_00000021103935200088760000000003078126753762518407_);" d="M1103.786,1174.581
				c-0.499-0.058-0.969-0.338-1.253-0.8c-0.354-0.574-35.482-57.903-45.464-95.553c-0.242-0.909,0.3-1.84,1.208-2.082
				c0.904-0.249,1.844,0.3,2.082,1.209c9.854,37.169,44.724,94.073,45.076,94.643c0.492,0.801,0.242,1.85-0.559,2.342
				C1104.536,1174.549,1104.152,1174.624,1103.786,1174.581z"/>
			
				<linearGradient id="SVGID_00000084522888988659044590000009596056882117067176_" gradientUnits="userSpaceOnUse" x1="760.0001" y1="677.2549" x2="531.7928" y2="1065.5477" gradientTransform="matrix(0.9932 0.1165 -0.1165 0.9932 577.7628 87.9432)">
				<stop  offset="0" style="stop-color:#FDF53F"/>
				<stop  offset="1" style="stop-color:#D93C65"/>
			</linearGradient>
			<path style="fill:url(#SVGID_00000084522888988659044590000009596056882117067176_);" d="M1036.361,1248.042l-1.196-0.686
				c-56.773-32.605-85.314-108.282-85.596-109.042c-0.328-0.883,0.125-1.864,1.003-2.189c0.888-0.318,1.865,0.122,2.19,1.004
				c0.274,0.745,28.011,74.231,82.911,106.58l7.064-7.853c0.635-0.7,1.712-0.75,2.406-0.126c0.7,0.628,0.754,1.707,0.127,2.406
				L1036.361,1248.042z"/>
		</g>
		<g>
			
				<linearGradient id="SVGID_00000157297585739862953370000006910937402501835166_" gradientUnits="userSpaceOnUse" x1="5355.5635" y1="1874.1973" x2="5129.1162" y2="2143.2705" gradientTransform="matrix(1 0 0 1 -2177.1235 0)">
				<stop  offset="0" style="stop-color:#2B3582"/>
				<stop  offset="1" style="stop-color:#150E42"/>
			</linearGradient>
			<path style="fill:url(#SVGID_00000157297585739862953370000006910937402501835166_);" d="M2749.218,1892.184
				c-43.228,28.819-82.854,93.661-3.603,198.13c71.085,93.703,144.095,154.901,133.287,212.539s73.463,202.941,244.96,108.071
				c169.311-93.661,136.89-273.779-68.445-342.224C2935.222,2028.634,2907.482,1786.675,2749.218,1892.184z"/>
			
				<linearGradient id="SVGID_00000078030548678239108640000015634870670614101910_" gradientUnits="userSpaceOnUse" x1="-1761.1206" y1="2168.2686" x2="-1820.8138" y2="2389.1333" gradientTransform="matrix(-1 0 0 1 887.3063 0)">
				<stop  offset="0" style="stop-color:#F9B776"/>
				<stop  offset="1" style="stop-color:#F47960"/>
			</linearGradient>
			<path style="fill:url(#SVGID_00000078030548678239108640000015634870670614101910_);" d="M2611.685,2252.369
				c0,0,67.075,80.33,134.618,15.094l26.096,60.518c0,0-98.634,76.374-173.448-43.792L2611.685,2252.369z"/>
			
				<linearGradient id="SVGID_00000035488597754262014810000001995780062976584620_" gradientUnits="userSpaceOnUse" x1="2571.7493" y1="1261.1995" x2="2536.4395" y2="122.428" gradientTransform="matrix(-0.9922 -0.1247 -0.1247 0.9922 5616.814 715.4178)">
				<stop  offset="0" style="stop-color:#FDF53F"/>
				<stop  offset="1" style="stop-color:#D93C65"/>
			</linearGradient>
			<path style="fill:url(#SVGID_00000035488597754262014810000001995780062976584620_);" d="M2777.35,2103.242
				c18.619-5.582,72.833-15.888,124.399,31.699c8.746,8.071,12.32,20.334,9.201,31.819c-13.851,50.991-50.394,201.64-18.352,266.823
				c0,0-56.466,62.246-118.067,12.077c0,0-27.639-120.461-63.84-173.344c-24.994-36.509,39.854-137.097,56.26-161.399
				C2769.436,2107.24,2773.098,2104.518,2777.35,2103.242z"/>
			
				<linearGradient id="SVGID_00000021836488917906216160000008926373677159345586_" gradientUnits="userSpaceOnUse" x1="-3126.5679" y1="2824.7964" x2="-3111.6658" y2="2718.9905" gradientTransform="matrix(0.9887 0.1503 -0.1503 0.9887 6298.4761 -161.5951)">
				<stop  offset="0" style="stop-color:#F9B776"/>
				<stop  offset="1" style="stop-color:#F47960"/>
			</linearGradient>
			<path style="fill:url(#SVGID_00000021836488917906216160000008926373677159345586_);" d="M2806.192,2006.039
				c0,0,37.572,73.576,44.16,107.364c0,0-28.342,17.734-59.85-1.636c0,0-13.247-76.721-19.395-89.957L2806.192,2006.039z"/>
			<g>
				
					<linearGradient id="SVGID_00000100358053072183663140000009586874216954835093_" gradientUnits="userSpaceOnUse" x1="-4167.2129" y1="4184.8125" x2="-4027.8726" y2="4345.0166" gradientTransform="matrix(0.9609 -0.2771 0.2771 0.9609 5570.8604 -3190.0432)">
					<stop  offset="0" style="stop-color:#F9B776"/>
					<stop  offset="1" style="stop-color:#F47960"/>
				</linearGradient>
				<path style="fill:url(#SVGID_00000100358053072183663140000009586874216954835093_);" d="M2721.967,1964.566
					c0,0-7.001,123.685,45.035,125.418c52.036,1.734,57.085-86.21,57.085-86.21s-15.362-55.56-40.134-62.037
					C2759.181,1935.258,2721.967,1964.566,2721.967,1964.566z"/>
				
					<linearGradient id="SVGID_00000106831867958121371150000017166527101809040279_" gradientUnits="userSpaceOnUse" x1="-3921.6289" y1="3954.6084" x2="-4104.5444" y2="4171.9551" gradientTransform="matrix(0.9609 -0.2771 0.2771 0.9609 5570.8604 -3190.0432)">
					<stop  offset="0" style="stop-color:#2B3582"/>
					<stop  offset="1" style="stop-color:#150E42"/>
				</linearGradient>
				<path style="fill:url(#SVGID_00000106831867958121371150000017166527101809040279_);" d="M2737.269,1926.391
					c0,0-23.775,24.311-19.693,39.442c4.083,15.131,55.079-0.692,67.652-7.839l42.127,44.838c0,0-1.291-66.423-30.354-86.878
					C2767.938,1895.497,2737.269,1926.391,2737.269,1926.391z"/>
				
					<linearGradient id="SVGID_00000130618178753033779660000018182904190292323982_" gradientUnits="userSpaceOnUse" x1="-4132.3989" y1="4154.5327" x2="-3993.0608" y2="4314.7344" gradientTransform="matrix(0.9609 -0.2771 0.2771 0.9609 5570.8604 -3190.0432)">
					<stop  offset="0" style="stop-color:#F9B776"/>
					<stop  offset="1" style="stop-color:#F47960"/>
				</linearGradient>
				<path style="fill:url(#SVGID_00000130618178753033779660000018182904190292323982_);" d="M2808.323,2004.967
					c0,0,6.341-42.424,27.078-30.494c20.737,11.929-1.521,44.807-17.721,42.755L2808.323,2004.967z"/>
			</g>
			
				<linearGradient id="SVGID_00000015313881134474568890000016435504163784342433_" gradientUnits="userSpaceOnUse" x1="2297.9167" y1="3331.0635" x2="2630.3635" y2="2744.2236" gradientTransform="matrix(-1 -0.0095 -0.0095 1 5360.7085 56.9446)">
				<stop  offset="0" style="stop-color:#F9B776"/>
				<stop  offset="1" style="stop-color:#F47960"/>
			</linearGradient>
			<path style="fill:url(#SVGID_00000015313881134474568890000016435504163784342433_);" d="M2702.618,2698.58
				c0.211,5.468-9.39,48.845-14.615,71.983c-2.103,9.31-0.639,19.052,4.102,27.336l180.966,304.574
				c2.19,3.684,3.783,7.675,4.752,11.849c3.316,14.293,10.195,49.321,6.603,81.188l-9.361,19.444l40.488-9.193l8.809-108.729
				l-11.462-6.989c-9.902-6.037-17.612-15.063-22.026-25.788c-16.364-39.747-56.999-140.927-67.474-190.236
				c-11.904-56.04-74.135-101.558-74.135-101.558l10.933-25.848L2702.618,2698.58z"/>
			
				<linearGradient id="SVGID_00000123418062426049792570000003244232656874212494_" gradientUnits="userSpaceOnUse" x1="2370.3879" y1="3123.582" x2="2467.563" y2="3123.582" gradientTransform="matrix(-1 -0.0095 -0.0095 1 5360.7085 56.9446)">
				<stop  offset="0" style="stop-color:#2B3582"/>
				<stop  offset="1" style="stop-color:#150E42"/>
			</linearGradient>
			<path style="fill:url(#SVGID_00000123418062426049792570000003244232656874212494_);" d="M2960.548,3168.347
				c0,0-21.864-34.664-24.436-48.157c-2.572-13.493-9.734-37.32-23.214-30.147c0,0-6.352,65.546-4.162,91.158
				c2.19,25.611-28.953,24.788-28.953,24.788s-8.583,1.206-14.868,7.49c-4.341,4.34-1.236,11.868,4.888,12.263
				c10.191,0.657,26.379,0.829,43.376-2.456c5.94-1.147,10.344-6.202,10.704-12.242l4.487-75.438l27.579,34.825L2960.548,3168.347z"
				/>
			
				<linearGradient id="SVGID_00000035509678814626828940000017017279421136293804_" gradientUnits="userSpaceOnUse" x1="2674.6611" y1="2896.9338" x2="2177.4729" y2="3055.9185" gradientTransform="matrix(-1 -0.0095 -0.0095 1 5360.7085 56.9446)">
				<stop  offset="0" style="stop-color:#F9B776"/>
				<stop  offset="1" style="stop-color:#F47960"/>
			</linearGradient>
			<path style="fill:url(#SVGID_00000035509678814626828940000017017279421136293804_);" d="M2810.724,2747.095
				c0,0,6.383,272.44,7.247,311.133c0.864,38.694-6.11,124.442-44.899,150.073l16.879,12.496c0,0,21.093-17.928,41.701-52.431
				c23.15-38.761,30.15-45.843,30.15-45.843l-7.681-15.732c-3.364-6.887-4.352-14.678-2.803-22.185
				c8.37-40.57,36.334-175.51,43.963-204.57c9.004-34.303,9.644-80.112-21.682-118.458
				C2842.273,2723.235,2810.724,2747.095,2810.724,2747.095z"/>
			
				<linearGradient id="SVGID_00000073713835274964748820000017044542582179813777_" gradientUnits="userSpaceOnUse" x1="2460.4817" y1="3141.1326" x2="2576.3237" y2="3141.1326" gradientTransform="matrix(-1 -0.0095 -0.0095 1 5360.7085 56.9446)">
				<stop  offset="0" style="stop-color:#2B3582"/>
				<stop  offset="1" style="stop-color:#150E42"/>
			</linearGradient>
			<path style="fill:url(#SVGID_00000073713835274964748820000017044542582179813777_);" d="M2846.544,3233.077
				c1.203,0.011,2.226-0.851,2.396-2.042c1.292-9.083,6.664-45.496,11.062-54.925c5.038-10.799,21.491-56.247-0.009-60.106
				c0,0-53.45,78.091-63.71,88.62c-10.26,10.53-23.21,3.678-23.21,3.678s-9.997,2.954-17.535,12.588
				c-3.588,4.585-0.246,11.316,5.577,11.372l36.002,0.344c10.456,0.099,19.86-6.252,23.746-15.959
				c6.338-15.829,17.223-39.046,29.911-49.346l-6.592,63.127C2844.033,3231.835,2845.129,3233.064,2846.544,3233.077
				L2846.544,3233.077z"/>
			
				<linearGradient id="SVGID_00000079446831632055019760000014177351565032990655_" gradientUnits="userSpaceOnUse" x1="2620.9458" y1="2363.0764" x2="2343.4243" y2="2981.7188" gradientTransform="matrix(-1 -0.0095 -0.0095 1 5360.7085 56.9446)">
				<stop  offset="0" style="stop-color:#CB236D"/>
				<stop  offset="1" style="stop-color:#4C246D"/>
			</linearGradient>
			<path style="fill:url(#SVGID_00000079446831632055019760000014177351565032990655_);" d="M2766.01,2416.287
				c0,0,8.113,25.859-4.351,68.451l-77.317,269.995c-1.215,4.243,1.075,8.683,5.229,10.174
				c23.127,8.301,99.153,31.76,202.935,24.607c5.225-0.361,9.606-4.06,10.742-9.173c6.838-30.781,30.17-135.8,34.974-157.378
				c18.305-82.222,36.032-160.417-53.882-214.033C2842.902,2426.677,2806.965,2426.663,2766.01,2416.287z"/>
			
				<linearGradient id="SVGID_00000112601091669260121390000016365652223656800173_" gradientUnits="userSpaceOnUse" x1="-1875.8621" y1="2253.6838" x2="-1620.2339" y2="2253.6838" gradientTransform="matrix(-1 0 0 1 887.3063 0)">
				<stop  offset="0" style="stop-color:#F9B776"/>
				<stop  offset="1" style="stop-color:#F47960"/>
			</linearGradient>
			<path style="fill:url(#SVGID_00000112601091669260121390000016365652223656800173_);" d="M2859.275,2171.81
				c0,0,15.564,222.411-128.135,110.7c0,0-21.223-20.048-36.544-22.486c-8.252-1.313-17.563-2.19-24.398-2.72
				c-3.119-0.242-4.577,3.786-2.018,5.584c4.936,3.468,11.404,7.201,17.014,7.783c10.841,1.124-0.716,9.068,11.089,29.826
				c11.805,20.758,28.669,12.93,28.669,12.93s164.652,168.615,197.526-125.46C2923.637,2133.261,2870.997,2136.171,2859.275,2171.81
				z"/>
			<g>
				
					<linearGradient id="SVGID_00000106119709680692224640000004194047216050053790_" gradientUnits="userSpaceOnUse" x1="-4341.4165" y1="2091.8003" x2="-4384.6592" y2="2137.5046" gradientTransform="matrix(0.9865 -0.1635 0.2088 1.2596 6481.2007 -1140.5688)">
					<stop  offset="0" style="stop-color:#2B3582"/>
					<stop  offset="1" style="stop-color:#150E42"/>
				</linearGradient>
				<path style="fill:url(#SVGID_00000106119709680692224640000004194047216050053790_);" d="M2567.588,2197.083l48.886-6.441
					c5.828-0.966,11.845,2.449,15.447,8.768l32.157,71.081c6.054,10.621,1.748,24.71-8.049,26.334l-39.255,5.035
					c-3.756,0.623-7.616-1.748-9.736-5.979l-43.492-86.808C2561.033,2204.056,2563.135,2197.821,2567.588,2197.083z"/>
			</g>
			
				<linearGradient id="SVGID_00000170240526784727956820000013379709601339244177_" gradientUnits="userSpaceOnUse" x1="-1695.1616" y1="2191.6199" x2="-1726.6208" y2="2308.0193" gradientTransform="matrix(-1 0 0 1 887.3063 0)">
				<stop  offset="0" style="stop-color:#F9B776"/>
				<stop  offset="1" style="stop-color:#F47960"/>
			</linearGradient>
			<path style="fill:url(#SVGID_00000170240526784727956820000013379709601339244177_);" d="M2600.94,2292.96
				c0,0-32.869-47.834-29.051-53.724s32.632-14.326,39.397-16.316C2618.052,2220.93,2630.786,2264.308,2600.94,2292.96z"/>
			<path style="opacity:0.75;fill:#FFFFFF;" d="M3101.827,2373.64c-0.716,0-1.393-0.429-1.675-1.136
				c-0.368-0.925,0.084-1.97,1.01-2.339c31.542-12.545,57.14-39.137,68.478-71.136c11.337-31.999,8.19-68.779-8.418-98.386
				c-23.376-41.673-68.19-64.962-111.527-87.484l-5.221-2.716c-46.853-24.4-92.521-53.465-109.282-100.509
				c-0.333-0.938,0.156-1.968,1.092-2.302c0.941-0.332,1.967,0.155,2.302,1.092c16.342,45.872,61.351,74.462,107.552,98.524
				l5.219,2.713c43.805,22.768,89.104,46.306,113.007,88.923c17.108,30.497,20.349,68.385,8.671,101.348
				c-11.679,32.963-38.05,60.357-70.543,73.282C3102.273,2373.598,3102.048,2373.64,3101.827,2373.64z"/>
			<path style="opacity:0.75;fill:#FFFFFF;" d="M3053.433,2357.04c-0.804,0-1.537-0.542-1.745-1.358
				c-0.243-0.967,0.341-1.945,1.305-2.188c36.448-9.22,66.886-32.017,81.424-60.976c16.386-32.646,11.19-73.324-12.358-96.718
				c-0.705-0.7-0.709-1.84-0.007-2.547s1.842-0.707,2.547-0.007c24.62,24.46,30.103,66.889,13.038,100.89
				c-15,29.881-46.312,53.378-83.76,62.848C3053.728,2357.022,3053.578,2357.04,3053.433,2357.04z"/>
		</g>
		<g>
			<g>
				<g>
					
						<linearGradient id="SVGID_00000059288952772508220770000014028017671783977875_" gradientUnits="userSpaceOnUse" x1="2525.9468" y1="3267.8589" x2="2851.697" y2="1930.9281" gradientTransform="matrix(-1 0 0 1 3539.3325 0)">
						<stop  offset="0" style="stop-color:#F895E7"/>
						<stop  offset="1" style="stop-color:#B37CFF"/>
					</linearGradient>
					<path style="fill:url(#SVGID_00000059288952772508220770000014028017671783977875_);" d="M777.113,2472.841
						c13.415-27.948,23.01-57.204,25.248-89.058c5.639-80.262-41.018-154.174-75.295-223.278
						c-31.503-63.513-54.917-158.151,51.382-149.73c84.687,6.71,184.248,91.106,195.608,179.112
						c13.442,104.158-37.265,235.505,22.854,330.119c84.104,132.36,144.769,102.027,144.769,325.386
						c0,95.439-52.864,148.084-113.415,177.08c-95.571,45.767-209.532,27.274-285.678-46.418
						c-67.271-65.103-107.27-158.692-93.742-252.652C662.507,2628.505,736.938,2556.539,777.113,2472.841z"/>
					
						<linearGradient id="SVGID_00000122699650345082305530000012732851393760240786_" gradientUnits="userSpaceOnUse" x1="2600.8447" y1="2620.3674" x2="2773.9272" y2="2620.3674" gradientTransform="matrix(-1 0 0 1 3539.3325 0)">
						<stop  offset="0" style="stop-color:#2B3582"/>
						<stop  offset="1" style="stop-color:#150E42"/>
					</linearGradient>
					<path style="fill:url(#SVGID_00000122699650345082305530000012732851393760240786_);" d="M848.17,3192.72
						c2.113,0,4.035-1.428,4.572-3.571c52.715-210.418,81.41-401.176,85.288-566.974c3.108-132.838-9.62-250.085-37.824-348.489
						c-25.17-87.813-58.291-144.113-81.641-175.881c-25.515-34.712-44.938-48.386-45.753-48.95c-2.145-1.48-5.081-0.954-6.564,1.187
						c-1.483,2.137-0.955,5.073,1.181,6.559l0,0c0.19,0.134,19.352,13.704,44.095,47.555
						c22.863,31.277,55.297,86.745,79.971,173.382c27.772,97.504,40.247,213.756,37.08,345.528
						c-3.963,164.837-32.555,354.523-84.982,563.793c-0.633,2.527,0.903,5.088,3.428,5.721
						C847.405,3192.674,847.79,3192.72,848.17,3192.72z"/>
				</g>
				
					<linearGradient id="SVGID_00000063608579043381000020000009185646090511457688_" gradientUnits="userSpaceOnUse" x1="2808.9382" y1="2414.1785" x2="2825.3159" y2="2288.6165" gradientTransform="matrix(-1 0 0 1 3539.3325 0)">
					<stop  offset="0" style="stop-color:#F895E7"/>
					<stop  offset="1" style="stop-color:#B37CFF"/>
				</linearGradient>
				<path style="fill:url(#SVGID_00000063608579043381000020000009185646090511457688_);" d="M692.729,2237.375
					c4.095-1.111,8.593-1.458,13.384-0.907c26.492,3.046,37.371,30.984,45.155,52.828c6.666,18.706,14.52,41.412,10.584,61.677
					c-4.256,21.91-27.524,39.783-44.408,17.537c-19.192-25.286-47.989-64.11-48.164-97.617
					C669.193,2254.236,678.545,2241.222,692.729,2237.375z"/>
			</g>
			<g>
				
					<linearGradient id="SVGID_00000041986799743820868410000010871121731704825742_" gradientUnits="userSpaceOnUse" x1="3278.0947" y1="2801.4036" x2="3359.5359" y2="2177.0193" gradientTransform="matrix(-0.9734 0.2289 0.2289 0.9734 3340.3967 -279.6934)">
					<stop  offset="0" style="stop-color:#A737D5"/>
					<stop  offset="1" style="stop-color:#EF497A"/>
				</linearGradient>
				<path style="fill:url(#SVGID_00000041986799743820868410000010871121731704825742_);" d="M476.798,2846.782
					c-10.836-71.387,15.109-153.344,28.059-228.834c6.847-39.914,10.014-79.525,3.603-119.738
					c-6.374-39.981-25.16-83.221-7.838-123.054c34.901-80.249,117.872-43.729,165.399,16.684
					c55.151,70.105,70.228,184.663,91.176,272.876c12.628,53.179,31.651,107.725,38.313,161.916
					c11.035,89.772-9.262,152.097-52.206,194.188c-41.189,40.372-103.92,48.742-154.308,20.681
					C543.477,3016.15,494.279,2961.945,476.798,2846.782z"/>
				
					<linearGradient id="SVGID_00000137850413769940679610000018233638665451419776_" gradientUnits="userSpaceOnUse" x1="3265.3147" y1="2362.7473" x2="3398.5542" y2="2362.7473" gradientTransform="matrix(-0.9734 0.2289 0.2289 0.9734 3340.3967 -279.6934)">
					<stop  offset="0" style="stop-color:#2B3582"/>
					<stop  offset="1" style="stop-color:#150E42"/>
				</linearGradient>
				<path style="fill:url(#SVGID_00000137850413769940679610000018233638665451419776_);" d="M666.614,3179.979
					c2.26,0,4.257-1.631,4.644-3.934c0.183-1.084,18.247-110.098,18.72-260.489c0.436-138.872-14.458-342.528-87.894-524.107
					c-0.98-2.417-3.725-3.574-6.142-2.604c-2.415,0.977-3.58,3.725-2.604,6.142c40.216,99.439,87.992,270.467,87.206,520.539
					c-0.47,149.626-18.407,257.879-18.588,258.953c-0.433,2.571,1.299,5.003,3.868,5.436
					C666.09,3179.958,666.352,3179.979,666.614,3179.979z"/>
			</g>
		</g>
	</g>
</g>
</svg>
